<?xml version="1.0" encoding="UTF-8"?>
<svg width="375px" height="667px" viewBox="0 0 375 667" version="1.1" xmlns="http://www.w3.org/2000/svg" xmlns:xlink="http://www.w3.org/1999/xlink">
    <!-- Generator: Sketch 51.3 (57544) - http://www.bohemiancoding.com/sketch -->
    <title>Edit list-final_exploration-3.0</title>
    <desc>Created with Sketch.</desc>
    <defs>
        <rect id="path-1" x="0" y="64" width="375" height="48"></rect>
        <filter x="-0.1%" y="-0.5%" width="100.1%" height="101.0%" filterUnits="objectBoundingBox" id="filter-2">
            <feOffset dx="0" dy="-0.5" in="SourceAlpha" result="shadowOffsetInner1"></feOffset>
            <feComposite in="shadowOffsetInner1" in2="SourceAlpha" operator="arithmetic" k2="-1" k3="1" result="shadowInnerInner1"></feComposite>
            <feColorMatrix values="0 0 0 0 0.784313725   0 0 0 0 0.780392157   0 0 0 0 0.8  0 0 0 1 0" type="matrix" in="shadowInnerInner1"></feColorMatrix>
        </filter>
        <rect id="path-3" x="0" y="0" width="375" height="30"></rect>
        <filter x="-0.1%" y="-0.8%" width="100.1%" height="101.7%" filterUnits="objectBoundingBox" id="filter-4">
            <feOffset dx="0" dy="-0.5" in="SourceAlpha" result="shadowOffsetInner1"></feOffset>
            <feComposite in="shadowOffsetInner1" in2="SourceAlpha" operator="arithmetic" k2="-1" k3="1" result="shadowInnerInner1"></feComposite>
            <feColorMatrix values="0 0 0 0 0.784313725   0 0 0 0 0.780392157   0 0 0 0 0.8  0 0 0 1 0" type="matrix" in="shadowInnerInner1"></feColorMatrix>
        </filter>
        <rect id="path-5" x="0" y="0" width="375" height="64"></rect>
        <filter x="-0.1%" y="-0.4%" width="100.1%" height="101.6%" filterUnits="objectBoundingBox" id="filter-6">
            <feOffset dx="0" dy="0.5" in="SourceAlpha" result="shadowOffsetOuter1"></feOffset>
            <feColorMatrix values="0 0 0 0 0.698039216   0 0 0 0 0.698039216   0 0 0 0 0.698039216  0 0 0 1 0" type="matrix" in="shadowOffsetOuter1"></feColorMatrix>
        </filter>
        <rect id="path-7" x="0" y="0" width="375" height="44"></rect>
        <filter x="-0.1%" y="-0.6%" width="100.1%" height="101.1%" filterUnits="objectBoundingBox" id="filter-8">
            <feOffset dx="0" dy="-0.5" in="SourceAlpha" result="shadowOffsetInner1"></feOffset>
            <feComposite in="shadowOffsetInner1" in2="SourceAlpha" operator="arithmetic" k2="-1" k3="1" result="shadowInnerInner1"></feComposite>
            <feColorMatrix values="0 0 0 0 0.815686275   0 0 0 0 0.00784313725   0 0 0 0 0.105882353  0 0 0 0.8 0" type="matrix" in="shadowInnerInner1"></feColorMatrix>
        </filter>
        <rect id="path-9" x="0" y="0" width="375" height="49"></rect>
        <filter x="-0.1%" y="-0.5%" width="100.1%" height="101.0%" filterUnits="objectBoundingBox" id="filter-10">
            <feOffset dx="0" dy="0.5" in="SourceAlpha" result="shadowOffsetInner1"></feOffset>
            <feComposite in="shadowOffsetInner1" in2="SourceAlpha" operator="arithmetic" k2="-1" k3="1" result="shadowInnerInner1"></feComposite>
            <feColorMatrix values="0 0 0 0 0.698039216   0 0 0 0 0.698039216   0 0 0 0 0.698039216  0 0 0 1 0" type="matrix" in="shadowInnerInner1"></feColorMatrix>
        </filter>
    </defs>
    <g id="Edit-list-final_exploration-3.0" stroke="none" stroke-width="1" fill="none" fill-rule="evenodd">
        <rect fill="#FFFFFF" x="0" y="0" width="375" height="667"></rect>
        <g id="Alternate-header" fill="#FFFFFF">
            <g id="Center" transform="translate(150.000000, 32.000000)" font-family="SFUIText-Semibold, SF UI Text" font-size="17" font-weight="500" letter-spacing="-0.409999996">
                <text id="New-Task">
                    <tspan x="0.563828111" y="16">New Task</tspan>
                </text>
            </g>
            <g id="Status-Bar">
                <g id="Pin-Right" transform="translate(309.000000, 3.000000)">
                    <path d="M37.4937128,2.5 L57.0062872,2.5 C57.8266197,2.5 58.5,3.17394722 58.5,4.00530324 L58.5,10.4946968 C58.5,11.3319784 57.831242,12 57.0062872,12 L37.4937128,12 C36.6733803,12 36,11.3260528 36,10.4946968 L36,4.00530324 C36,3.16802155 36.668758,2.5 37.4937128,2.5 Z M59,5.5 L59.75,5.5 C60.1671014,5.5 60.5,5.83232111 60.5,6.24225998 L60.5,8.25774002 C60.5,8.66440529 60.1642136,9 59.75,9 L59,9 L59,5.5 Z M37.5081524,3 C36.9513652,3 36.5,3.45699692 36.5,4.00844055 L36.5,10.4915594 C36.5,11.0485058 36.9490581,11.5 37.5081524,11.5 L56.9918476,11.5 C57.5486348,11.5 58,11.0430031 58,10.4915594 L58,4.00844055 C58,3.45149422 57.5509419,3 56.9918476,3 L37.5081524,3 Z M37.5067444,3.5 L56.9932556,3.5 C57.2697754,3.5 57.5,3.72031886 57.5,3.99209595 L57.5,10.5079041 C57.5,10.783628 57.2731228,11 56.9932556,11 L37.5067444,11 C37.2302246,11 37,10.7796811 37,10.5079041 L37,3.99209595 C37,3.71637201 37.2268772,3.5 37.5067444,3.5 Z" id="Battery"></path>
                    <text id="100%" font-family="SanFranciscoText-Light, San Francisco Text" font-size="12" font-weight="300">
                        <tspan x="4.93945312" y="11.5">100%</tspan>
                    </text>
                </g>
                <text id="Time" font-family="SanFranciscoText-Light, San Francisco Text" font-size="12" font-weight="300">
                    <tspan x="166.634766" y="14.5">9:41 AM</tspan>
                </text>
                <g id="Overrides/Status-Bar/Signal---White">
                    <path d="M96.1444208,12.4385043 L94.0225391,14.5 L91.8601652,12.4053177 C92.3778594,11.8314341 93.1390073,11.4689119 93.987563,11.4689119 C94.8523616,11.4689119 95.626374,11.8454456 96.1444208,12.4385043 Z M98.3234964,10.3214425 L97.2346215,11.3793293 C96.4356305,10.518235 95.2768836,9.97668394 93.987563,9.97668394 C92.713648,9.97668394 91.567205,10.5053708 90.7692987,11.3486 L89.6792698,10.2926936 C90.7566264,9.17975893 92.2882723,8.48445596 93.987563,8.48445596 C95.7014387,8.48445596 97.2447794,9.19174563 98.3234964,10.3214425 Z M100.5,8.20687933 L99.4118698,9.26404272 C98.0538809,7.86552609 96.1260026,6.99222798 93.987563,6.99222798 C91.8628921,6.99222798 89.9460798,7.85431655 88.5895579,9.23709441 L87.5,8.18164431 C89.1355496,6.52895605 91.4375103,5.5 93.987563,5.5 C96.5505699,5.5 98.8629578,6.53943672 100.5,8.20687933 Z" id="Wi-Fi" fill-rule="evenodd"></path>
                    <text id="Carrier" font-family="SanFranciscoText-Light, San Francisco Text" font-size="12" font-weight="300">
                        <tspan x="44" y="14.5">Sketch</tspan>
                    </text>
                    <path d="M9.25,13 C7.73121694,13 6.5,11.7687831 6.5,10.25 C6.5,8.73121694 7.73121694,7.5 9.25,7.5 C10.7687831,7.5 12,8.73121694 12,10.25 C12,11.7687831 10.7687831,13 9.25,13 Z M16.25,13 C14.7312169,13 13.5,11.7687831 13.5,10.25 C13.5,8.73121694 14.7312169,7.5 16.25,7.5 C17.7687831,7.5 19,8.73121694 19,10.25 C19,11.7687831 17.7687831,13 16.25,13 Z M23.25,13 C21.7312169,13 20.5,11.7687831 20.5,10.25 C20.5,8.73121694 21.7312169,7.5 23.25,7.5 C24.7687831,7.5 26,8.73121694 26,10.25 C26,11.7687831 24.7687831,13 23.25,13 Z M30.25,13 C28.7312169,13 27.5,11.7687831 27.5,10.25 C27.5,8.73121694 28.7312169,7.5 30.25,7.5 C31.7687831,7.5 33,8.73121694 33,10.25 C33,11.7687831 31.7687831,13 30.25,13 Z M37.25,13 C35.7312169,13 34.5,11.7687831 34.5,10.25 C34.5,8.73121694 35.7312169,7.5 37.25,7.5 C38.7687831,7.5 40,8.73121694 40,10.25 C40,11.7687831 38.7687831,13 37.25,13 Z" id="Mobile-Signal" fill-rule="evenodd"></path>
                </g>
            </g>
        </g>
        <text id="Cancel" font-family="SFUIText-Regular, SF UI Text" font-size="17" font-weight="normal" letter-spacing="-0.2541146" fill="#FFFFFF">
            <tspan x="9.19129888" y="48">Cancel</tspan>
        </text>
        <g id="Rectangle">
            <use fill="#FFFFFF" fill-rule="evenodd" xlink:href="#path-1"></use>
            <use fill="black" fill-opacity="1" filter="url(#filter-2)" xlink:href="#path-1"></use>
        </g>
        <text id="Work" font-family="SFUIText-Semibold, SF UI Text" font-size="16" font-weight="500" letter-spacing="-0.3858823" fill="#222222">
            <tspan x="42.4631708" y="93">Work</tspan>
        </text>
        <g id="noun_928817_cc" transform="translate(16.000000, 82.000000)" fill="#4A4A4A" fill-rule="nonzero">
            <g id="Group">
                <g id="Shape">
                    <path d="M0.167928259,9.69328622 C0.0751840432,9.69328622 0,9.58887207 0,9.46007067 C0,9.33126929 0.0751840432,9.22685513 0.167928259,9.22685513 L11.8320717,9.22685513 C11.924816,9.22685513 12,9.33126929 12,9.46007067 C12,9.58887207 11.924816,9.69328622 11.8320717,9.69328622 L0.167928259,9.69328622 Z M0.167928259,12 C0.0751840432,12 0,11.8955858 0,11.7667844 C0,11.6379831 0.0751840432,11.5335689 0.167928259,11.5335689 L5.80685502,11.5335689 C5.89959923,11.5335689 5.97478328,11.6379831 5.97478328,11.7667844 C5.97478328,11.8955858 5.89959923,12 5.80685502,12 L0.167928259,12 Z M0.167928259,7.38657244 C0.0751840432,7.38657244 0,7.28215829 0,7.15335689 C0,7.02455551 0.0751840432,6.92014133 0.167928259,6.92014133 L11.8320717,6.92014133 C11.924816,6.92014133 12,7.02455551 12,7.15335689 C12,7.28215829 11.924816,7.38657244 11.8320717,7.38657244 L0.167928259,7.38657244 Z M0.167928259,5.07985867 C0.0751840432,5.07985867 0,4.97544449 0,4.84664311 C0,4.71784171 0.0751840432,4.61342756 0.167928259,4.61342756 L11.8320717,4.61342756 C11.924816,4.61342756 12,4.71784171 12,4.84664311 C12,4.97544449 11.924816,5.07985867 11.8320717,5.07985867 L0.167928259,5.07985867 Z M0.167928259,2.77314487 C0.0751840432,2.77314487 0,2.66873071 0,2.53992933 C0,2.41112793 0.0751840432,2.30671378 0.167928259,2.30671378 L11.8320717,2.30671378 C11.924816,2.30671378 12,2.41112793 12,2.53992933 C12,2.66873071 11.924816,2.77314487 11.8320717,2.77314487 L0.167928259,2.77314487 Z M0.167928259,0.466431089 C0.0751840432,0.466431089 0,0.362016933 0,0.233215556 C0,0.104414156 0.0751840432,0 0.167928259,0 L11.8320717,0 C11.924816,0 12,0.104414156 12,0.233215556 C12,0.362016933 11.924816,0.466431089 11.8320717,0.466431089 L0.167928259,0.466431089 Z"></path>
                </g>
            </g>
        </g>
        <g id="Cells/Table/Cell-Title" transform="translate(0.000000, 126.000000)">
            <g id="Rectangle">
                <use fill="#FFFFFF" fill-rule="evenodd" xlink:href="#path-3"></use>
                <use fill="black" fill-opacity="1" filter="url(#filter-4)" xlink:href="#path-3"></use>
            </g>
            <text id="Cell-Title" font-family="SFUIText-Regular, SF UI Text" font-size="13" font-weight="normal" letter-spacing="-0.0799999982" fill="#6D6D72">
                <tspan x="15" y="20">LIST MEMBERS</tspan>
            </text>
        </g>
        <g id="Details_label" transform="translate(0.000000, 156.000000)">
            <g id="Cells/Table/Cell">
                <rect id="Cell" fill="#FFFFFF" x="0" y="0" width="375" height="44"></rect>
                <g id="Overrides/Cell/Label/Icon-+-Label">
                    <polygon id="Rectangle" fill="#FFFFFF" points="0 44 59 44 59 43 0 43"></polygon>
                    <g id="Pin" stroke-width="1" transform="translate(15.000000, 7.000000)" fill="#030303" font-family="SFUIText-Regular, SF UI Text" font-size="17" font-weight="normal" letter-spacing="-0.409999996">
                        <text id="Label">
                            <tspan x="43" y="21">You</tspan>
                        </text>
                    </g>
                </g>
            </g>
            <path d="M28.001,23.001 C25.668,23.001 21,24.168 21,26.501 L21,29 L35.001,29 L35.001,26.501 C35.001,24.168 30.335,23.001 28.001,23.001 M28.001,15 C26.345,15 25.001,16.345 25.001,18.001 C25.001,19.657 26.345,21.001 28.001,21.001 C29.658,21.001 30.992,19.657 30.992,18.001 C30.992,16.345 29.658,15 28.001,15" id="Fill-8" stroke="#9B9B9B"></path>
        </g>
        <g id="P_tag" transform="translate(289.000000, 170.000000)">
            <g id="Priority_tag">
                <rect id="Rectangle-3" stroke="#76D9BF" x="0.5" y="0.5" width="63" height="15" rx="7.5"></rect>
                <text id="Owner" font-family="SFUIText-Medium, SF UI Text" font-size="9" font-weight="400" letter-spacing="-0.409999996" fill="#76D9BF">
                    <tspan x="18.788916" y="11">Owner</tspan>
                </text>
            </g>
        </g>
        <g id="Alternate-header">
            <g id="Bar">
                <use fill="black" fill-opacity="1" filter="url(#filter-6)" xlink:href="#path-5"></use>
                <use fill="#FFFFFF" fill-rule="evenodd" xlink:href="#path-5"></use>
            </g>
            <g id="Center" transform="translate(147.000000, 32.000000)" fill="#222222" font-family="SFUIText-Semibold, SF UI Text" font-size="17" font-weight="500" letter-spacing="-0.409999996">
                <text id="Edit-Board">
                    <tspan x="0.815380841" y="16">Edit Board</tspan>
                </text>
            </g>
            <g id="Status-Bar">
                <g id="Pin-Right" transform="translate(309.000000, 3.000000)" fill="#000000">
                    <path d="M37.4937128,2.5 L57.0062872,2.5 C57.8266197,2.5 58.5,3.17394722 58.5,4.00530324 L58.5,10.4946968 C58.5,11.3319784 57.831242,12 57.0062872,12 L37.4937128,12 C36.6733803,12 36,11.3260528 36,10.4946968 L36,4.00530324 C36,3.16802155 36.668758,2.5 37.4937128,2.5 Z M59,5.5 L59.75,5.5 C60.1671014,5.5 60.5,5.83232111 60.5,6.24225998 L60.5,8.25774002 C60.5,8.66440529 60.1642136,9 59.75,9 L59,9 L59,5.5 Z M37.5081524,3 C36.9513652,3 36.5,3.45699692 36.5,4.00844055 L36.5,10.4915594 C36.5,11.0485058 36.9490581,11.5 37.5081524,11.5 L56.9918476,11.5 C57.5486348,11.5 58,11.0430031 58,10.4915594 L58,4.00844055 C58,3.45149422 57.5509419,3 56.9918476,3 L37.5081524,3 Z M37.5067444,3.5 L56.9932556,3.5 C57.2697754,3.5 57.5,3.72031886 57.5,3.99209595 L57.5,10.5079041 C57.5,10.783628 57.2731228,11 56.9932556,11 L37.5067444,11 C37.2302246,11 37,10.7796811 37,10.5079041 L37,3.99209595 C37,3.71637201 37.2268772,3.5 37.5067444,3.5 Z" id="Battery"></path>
                    <text id="100%" font-family="SanFranciscoText-Light, San Francisco Text" font-size="12" font-weight="300">
                        <tspan x="4.93945312" y="11.5">100%</tspan>
                    </text>
                </g>
                <text id="Time" font-family="SanFranciscoText-Light, San Francisco Text" font-size="12" font-weight="300" fill="#000000">
                    <tspan x="166.634766" y="14.5">9:41 AM</tspan>
                </text>
                <g id="Overrides/Status-Bar/Signal---Black" fill="#030303">
                    <path d="M96.1444208,12.4385043 L94.0225391,14.5 L91.8601652,12.4053177 C92.3778594,11.8314341 93.1390073,11.4689119 93.987563,11.4689119 C94.8523616,11.4689119 95.626374,11.8454456 96.1444208,12.4385043 Z M98.3234964,10.3214425 L97.2346215,11.3793293 C96.4356305,10.518235 95.2768836,9.97668394 93.987563,9.97668394 C92.713648,9.97668394 91.567205,10.5053708 90.7692987,11.3486 L89.6792698,10.2926936 C90.7566264,9.17975893 92.2882723,8.48445596 93.987563,8.48445596 C95.7014387,8.48445596 97.2447794,9.19174563 98.3234964,10.3214425 Z M100.5,8.20687933 L99.4118698,9.26404272 C98.0538809,7.86552609 96.1260026,6.99222798 93.987563,6.99222798 C91.8628921,6.99222798 89.9460798,7.85431655 88.5895579,9.23709441 L87.5,8.18164431 C89.1355496,6.52895605 91.4375103,5.5 93.987563,5.5 C96.5505699,5.5 98.8629578,6.53943672 100.5,8.20687933 Z" id="Wi-Fi" fill-rule="evenodd"></path>
                    <text id="Carrier" font-family="SFUIText-Regular, SF UI Text" font-size="12" font-weight="normal">
                        <tspan x="44" y="14.5">Sketch</tspan>
                    </text>
                    <path d="M9.25,13 C7.73121694,13 6.5,11.7687831 6.5,10.25 C6.5,8.73121694 7.73121694,7.5 9.25,7.5 C10.7687831,7.5 12,8.73121694 12,10.25 C12,11.7687831 10.7687831,13 9.25,13 Z M16.25,13 C14.7312169,13 13.5,11.7687831 13.5,10.25 C13.5,8.73121694 14.7312169,7.5 16.25,7.5 C17.7687831,7.5 19,8.73121694 19,10.25 C19,11.7687831 17.7687831,13 16.25,13 Z M23.25,13 C21.7312169,13 20.5,11.7687831 20.5,10.25 C20.5,8.73121694 21.7312169,7.5 23.25,7.5 C24.7687831,7.5 26,8.73121694 26,10.25 C26,11.7687831 24.7687831,13 23.25,13 Z M30.25,13 C28.7312169,13 27.5,11.7687831 27.5,10.25 C27.5,8.73121694 28.7312169,7.5 30.25,7.5 C31.7687831,7.5 33,8.73121694 33,10.25 C33,11.7687831 31.7687831,13 30.25,13 Z M37.25,13 C35.7312169,13 34.5,11.7687831 34.5,10.25 C34.5,8.73121694 35.7312169,7.5 37.25,7.5 C38.7687831,7.5 40,8.73121694 40,10.25 C40,11.7687831 38.7687831,13 37.25,13 Z" id="Mobile-Signal" fill-rule="evenodd"></path>
                </g>
            </g>
        </g>
        <g id="Delete_list" transform="translate(0.000000, 573.000000)">
            <g id="Rectangle-5" transform="translate(187.500000, 22.000000) rotate(180.000000) translate(-187.500000, -22.000000) ">
                <use fill="#FFFFFF" fill-rule="evenodd" xlink:href="#path-7"></use>
                <use fill="black" fill-opacity="1" filter="url(#filter-8)" xlink:href="#path-7"></use>
            </g>
            <text id="Delete-Board" font-family="SFUIText-Medium, SF UI Text" font-size="14" font-weight="400" letter-spacing="-0.409999996" fill="#D0021B" fill-opacity="0.795884284">
                <tspan x="146.74418" y="26">Delete Board</tspan>
            </text>
        </g>
        <g id="Back-to-work" transform="translate(8.000000, 30.000000)" fill="#76D9BF">
            <text id="↳-Label" font-family="SFUIText-Medium, SF UI Text" font-size="17" font-weight="400" line-spacing="22" letter-spacing="-0.408">
                <tspan x="18.5" y="16">Work</tspan>
            </text>
            <path d="M10.0371349,21.5826673 L0.792151852,12.4458042 C0.402616049,12.0611888 0.402616049,11.4398102 0.792151852,11.0541958 L10.0371349,1.91733267 C10.5994648,1.36088911 11.5143745,1.36088911 12.0777032,1.91733267 C12.6400331,2.47377622 12.6400331,3.37687313 12.0777032,3.93331668 L4.16912762,11.7504995 L12.0777032,19.5656843 C12.6400331,20.1231269 12.6400331,21.0262238 12.0777032,21.5826673 C11.5143745,22.1391109 10.5994648,22.1391109 10.0371349,21.5826673" id="Chevron"></path>
        </g>
        <g id="Tab_bar" transform="translate(0.000000, 617.000000)">
            <g id="Bars/Tab-Bar/3-Items" transform="translate(0.000000, 1.000000)">
                <g id="Bar">
                    <use fill-opacity="0.9" fill="#FAFAFA" fill-rule="evenodd" xlink:href="#path-9"></use>
                    <use fill="black" fill-opacity="1" filter="url(#filter-10)" xlink:href="#path-9"></use>
                </g>
                <g id="Overrides/Tab-Bar/Item" transform="translate(163.500000, 0.000000)" font-family="SFUIText-Regular, SF UI Text" font-size="10" font-weight="normal" letter-spacing="0.119999997">
                    <text id="Label"></text>
                </g>
            </g>
            <g id="Overrides/Tab-Bar/Item" transform="translate(288.000000, 0.000000)" font-family="SFUIText-Regular, SF UI Text" font-size="10" font-weight="normal" letter-spacing="0.119999997">
                <text id="Label"></text>
            </g>
            <g id="share" transform="translate(53.000000, 15.000000)" stroke="#9B9B9B" stroke-linecap="round" stroke-linejoin="round" stroke-width="2">
                <path d="M0,10 L0,18 C0,19.1045695 0.8954305,20 2,20 L14,20 C15.1045695,20 16,19.1045695 16,18 L16,10" id="Shape"></path>
                <polyline id="Shape" points="12 4 8 0 4 4"></polyline>
                <path d="M8,0 L8,13" id="Shape"></path>
            </g>
            <g id="edit" transform="translate(302.000000, 15.000000)" stroke="#76D9BF" stroke-linecap="round" stroke-linejoin="round" stroke-width="2">
                <path d="M18,12.66 L18,18 C18,19.1045695 17.1045695,20 16,20 L2,20 C0.8954305,20 0,19.1045695 0,18 L0,4 C-2.22044605e-16,2.8954305 0.8954305,2 2,2 L7.34,2" id="Shape"></path>
                <polygon id="Shape" points="16 0 20 4 10 14 6 14 6 10"></polygon>
            </g>
        </g>
        <g id="Add_groups" transform="translate(2.000000, 200.000000)">
            <rect id="Rectangle-5" fill="#FFFFFF" x="0" y="0" width="375" height="44"></rect>
            <polygon id="Shape" fill="#76D9BF" points="27 15 27 21 21 21 21 23 27 23 27 29 29 29 29 23 35 23 35 21 29 21 29 15"></polygon>
            <text id="Add-Collaborators" font-family="SFUIText-Medium, SF UI Text" font-size="17" font-weight="400" letter-spacing="-0.409999996" fill="#76D9BF">
                <tspan x="55.0042871" y="28">Add Collaborators</tspan>
            </text>
        </g>
    </g>
</svg>