<?xml version="1.0" encoding="UTF-8"?>
<svg width="375px" height="667px" viewBox="0 0 375 667" version="1.1" xmlns="http://www.w3.org/2000/svg" xmlns:xlink="http://www.w3.org/1999/xlink">
    <!-- Generator: Sketch 51.3 (57544) - http://www.bohemiancoding.com/sketch -->
    <title>Edit task-exploration_3.0-aka-final</title>
    <desc>Created with Sketch.</desc>
    <defs>
        <rect id="path-1" x="0" y="64" width="375" height="48"></rect>
        <filter x="-0.1%" y="-0.5%" width="100.1%" height="101.0%" filterUnits="objectBoundingBox" id="filter-2">
            <feOffset dx="0" dy="-0.5" in="SourceAlpha" result="shadowOffsetInner1"></feOffset>
            <feComposite in="shadowOffsetInner1" in2="SourceAlpha" operator="arithmetic" k2="-1" k3="1" result="shadowInnerInner1"></feComposite>
            <feColorMatrix values="0 0 0 0 0.784313725   0 0 0 0 0.780392157   0 0 0 0 0.8  0 0 0 1 0" type="matrix" in="shadowInnerInner1"></feColorMatrix>
        </filter>
        <rect id="path-3" x="0" y="112" width="375" height="64"></rect>
        <filter x="-0.1%" y="-0.4%" width="100.1%" height="100.8%" filterUnits="objectBoundingBox" id="filter-4">
            <feOffset dx="0" dy="-0.5" in="SourceAlpha" result="shadowOffsetInner1"></feOffset>
            <feComposite in="shadowOffsetInner1" in2="SourceAlpha" operator="arithmetic" k2="-1" k3="1" result="shadowInnerInner1"></feComposite>
            <feColorMatrix values="0 0 0 0 0.784313725   0 0 0 0 0.780392157   0 0 0 0 0.8  0 0 0 1 0" type="matrix" in="shadowInnerInner1"></feColorMatrix>
        </filter>
        <rect id="path-5" x="0" y="175" width="375" height="65"></rect>
        <filter x="-0.1%" y="-0.4%" width="100.1%" height="100.8%" filterUnits="objectBoundingBox" id="filter-6">
            <feOffset dx="0" dy="-0.5" in="SourceAlpha" result="shadowOffsetInner1"></feOffset>
            <feComposite in="shadowOffsetInner1" in2="SourceAlpha" operator="arithmetic" k2="-1" k3="1" result="shadowInnerInner1"></feComposite>
            <feColorMatrix values="0 0 0 0 0.784313725   0 0 0 0 0.780392157   0 0 0 0 0.8  0 0 0 1 0" type="matrix" in="shadowInnerInner1"></feColorMatrix>
        </filter>
        <rect id="path-7" x="0" y="624" width="375" height="44"></rect>
        <filter x="-0.1%" y="-0.6%" width="100.1%" height="101.1%" filterUnits="objectBoundingBox" id="filter-8">
            <feOffset dx="0" dy="-0.5" in="SourceAlpha" result="shadowOffsetInner1"></feOffset>
            <feComposite in="shadowOffsetInner1" in2="SourceAlpha" operator="arithmetic" k2="-1" k3="1" result="shadowInnerInner1"></feComposite>
            <feColorMatrix values="0 0 0 0 0.784313725   0 0 0 0 0.780392157   0 0 0 0 0.8  0 0 0 1 0" type="matrix" in="shadowInnerInner1"></feColorMatrix>
        </filter>
        <rect id="path-9" x="0" y="0" width="375" height="74"></rect>
        <filter x="-0.1%" y="-0.3%" width="100.1%" height="100.7%" filterUnits="objectBoundingBox" id="filter-10">
            <feOffset dx="0" dy="-0.5" in="SourceAlpha" result="shadowOffsetInner1"></feOffset>
            <feComposite in="shadowOffsetInner1" in2="SourceAlpha" operator="arithmetic" k2="-1" k3="1" result="shadowInnerInner1"></feComposite>
            <feColorMatrix values="0 0 0 0 0.784313725   0 0 0 0 0.780392157   0 0 0 0 0.8  0 0 0 1 0" type="matrix" in="shadowInnerInner1"></feColorMatrix>
        </filter>
        <rect id="path-11" x="0" y="0" width="375" height="64"></rect>
        <filter x="-0.1%" y="-0.4%" width="100.1%" height="101.6%" filterUnits="objectBoundingBox" id="filter-12">
            <feOffset dx="0" dy="0.5" in="SourceAlpha" result="shadowOffsetOuter1"></feOffset>
            <feColorMatrix values="0 0 0 0 0.698039216   0 0 0 0 0.698039216   0 0 0 0 0.698039216  0 0 0 1 0" type="matrix" in="shadowOffsetOuter1"></feColorMatrix>
        </filter>
        <rect id="path-13" x="0" y="0" width="375" height="44"></rect>
        <filter x="-0.1%" y="-0.6%" width="100.1%" height="101.1%" filterUnits="objectBoundingBox" id="filter-14">
            <feOffset dx="0" dy="-0.5" in="SourceAlpha" result="shadowOffsetInner1"></feOffset>
            <feComposite in="shadowOffsetInner1" in2="SourceAlpha" operator="arithmetic" k2="-1" k3="1" result="shadowInnerInner1"></feComposite>
            <feColorMatrix values="0 0 0 0 0.815686275   0 0 0 0 0.00784313725   0 0 0 0 0.105882353  0 0 0 0.8 0" type="matrix" in="shadowInnerInner1"></feColorMatrix>
        </filter>
    </defs>
    <g id="Edit-task-exploration_3.0-aka-final" stroke="none" stroke-width="1" fill="none" fill-rule="evenodd">
        <rect fill="#FFFFFF" x="0" y="0" width="375" height="667"></rect>
        <g id="Alternate-header" fill="#FFFFFF">
            <g id="Center" transform="translate(150.000000, 32.000000)" font-family="SFUIText-Semibold, SF UI Text" font-size="17" font-weight="500" letter-spacing="-0.409999996">
                <text id="New-Task">
                    <tspan x="0.563828111" y="16">New Task</tspan>
                </text>
            </g>
            <g id="Status-Bar">
                <g id="Pin-Right" transform="translate(309.000000, 3.000000)">
                    <path d="M37.4937128,2.5 L57.0062872,2.5 C57.8266197,2.5 58.5,3.17394722 58.5,4.00530324 L58.5,10.4946968 C58.5,11.3319784 57.831242,12 57.0062872,12 L37.4937128,12 C36.6733803,12 36,11.3260528 36,10.4946968 L36,4.00530324 C36,3.16802155 36.668758,2.5 37.4937128,2.5 Z M59,5.5 L59.75,5.5 C60.1671014,5.5 60.5,5.83232111 60.5,6.24225998 L60.5,8.25774002 C60.5,8.66440529 60.1642136,9 59.75,9 L59,9 L59,5.5 Z M37.5081524,3 C36.9513652,3 36.5,3.45699692 36.5,4.00844055 L36.5,10.4915594 C36.5,11.0485058 36.9490581,11.5 37.5081524,11.5 L56.9918476,11.5 C57.5486348,11.5 58,11.0430031 58,10.4915594 L58,4.00844055 C58,3.45149422 57.5509419,3 56.9918476,3 L37.5081524,3 Z M37.5067444,3.5 L56.9932556,3.5 C57.2697754,3.5 57.5,3.72031886 57.5,3.99209595 L57.5,10.5079041 C57.5,10.783628 57.2731228,11 56.9932556,11 L37.5067444,11 C37.2302246,11 37,10.7796811 37,10.5079041 L37,3.99209595 C37,3.71637201 37.2268772,3.5 37.5067444,3.5 Z" id="Battery"></path>
                    <text id="100%" font-family="SanFranciscoText-Light, San Francisco Text" font-size="12" font-weight="300">
                        <tspan x="4.93945312" y="11.5">100%</tspan>
                    </text>
                </g>
                <text id="Time" font-family="SanFranciscoText-Light, San Francisco Text" font-size="12" font-weight="300">
                    <tspan x="166.634766" y="14.5">9:41 AM</tspan>
                </text>
                <g id="Overrides/Status-Bar/Signal---White">
                    <path d="M96.1444208,12.4385043 L94.0225391,14.5 L91.8601652,12.4053177 C92.3778594,11.8314341 93.1390073,11.4689119 93.987563,11.4689119 C94.8523616,11.4689119 95.626374,11.8454456 96.1444208,12.4385043 Z M98.3234964,10.3214425 L97.2346215,11.3793293 C96.4356305,10.518235 95.2768836,9.97668394 93.987563,9.97668394 C92.713648,9.97668394 91.567205,10.5053708 90.7692987,11.3486 L89.6792698,10.2926936 C90.7566264,9.17975893 92.2882723,8.48445596 93.987563,8.48445596 C95.7014387,8.48445596 97.2447794,9.19174563 98.3234964,10.3214425 Z M100.5,8.20687933 L99.4118698,9.26404272 C98.0538809,7.86552609 96.1260026,6.99222798 93.987563,6.99222798 C91.8628921,6.99222798 89.9460798,7.85431655 88.5895579,9.23709441 L87.5,8.18164431 C89.1355496,6.52895605 91.4375103,5.5 93.987563,5.5 C96.5505699,5.5 98.8629578,6.53943672 100.5,8.20687933 Z" id="Wi-Fi" fill-rule="evenodd"></path>
                    <text id="Carrier" font-family="SanFranciscoText-Light, San Francisco Text" font-size="12" font-weight="300">
                        <tspan x="44" y="14.5">Sketch</tspan>
                    </text>
                    <path d="M9.25,13 C7.73121694,13 6.5,11.7687831 6.5,10.25 C6.5,8.73121694 7.73121694,7.5 9.25,7.5 C10.7687831,7.5 12,8.73121694 12,10.25 C12,11.7687831 10.7687831,13 9.25,13 Z M16.25,13 C14.7312169,13 13.5,11.7687831 13.5,10.25 C13.5,8.73121694 14.7312169,7.5 16.25,7.5 C17.7687831,7.5 19,8.73121694 19,10.25 C19,11.7687831 17.7687831,13 16.25,13 Z M23.25,13 C21.7312169,13 20.5,11.7687831 20.5,10.25 C20.5,8.73121694 21.7312169,7.5 23.25,7.5 C24.7687831,7.5 26,8.73121694 26,10.25 C26,11.7687831 24.7687831,13 23.25,13 Z M30.25,13 C28.7312169,13 27.5,11.7687831 27.5,10.25 C27.5,8.73121694 28.7312169,7.5 30.25,7.5 C31.7687831,7.5 33,8.73121694 33,10.25 C33,11.7687831 31.7687831,13 30.25,13 Z M37.25,13 C35.7312169,13 34.5,11.7687831 34.5,10.25 C34.5,8.73121694 35.7312169,7.5 37.25,7.5 C38.7687831,7.5 40,8.73121694 40,10.25 C40,11.7687831 38.7687831,13 37.25,13 Z" id="Mobile-Signal" fill-rule="evenodd"></path>
                </g>
            </g>
        </g>
        <text id="Cancel" font-family="SFUIText-Regular, SF UI Text" font-size="17" font-weight="normal" letter-spacing="-0.2541146" fill="#FFFFFF">
            <tspan x="9.19129888" y="48">Cancel</tspan>
        </text>
        <g id="Rectangle">
            <use fill="#FFFFFF" fill-rule="evenodd" xlink:href="#path-1"></use>
            <use fill="black" fill-opacity="1" filter="url(#filter-2)" xlink:href="#path-1"></use>
        </g>
        <text id="CSE-21-Problem-Set" font-family="SFUIText-Semibold, SF UI Text" font-size="16" font-weight="500" letter-spacing="-0.3858823" fill="#222222">
            <tspan x="10.2073157" y="92">CSE 21 Problem Set</tspan>
        </text>
        <g id="Rectangle" fill="black" fill-opacity="1">
            <use filter="url(#filter-4)" xlink:href="#path-3"></use>
        </g>
        <g id="Rectangle" fill="black" fill-opacity="1">
            <use filter="url(#filter-6)" xlink:href="#path-5"></use>
        </g>
        <text id="Description" font-family="SFUIText-Medium, SF UI Text" font-size="14" font-weight="400" letter-spacing="-0.409999996" fill="#9B9B9B">
            <tspan x="31.3175" y="133">Description</tspan>
        </text>
        <text id="Due" font-family="SFUIText-Medium, SF UI Text" font-size="14" font-weight="400" letter-spacing="-0.409999996" fill="#9B9B9B">
            <tspan x="32.1276953" y="197">Due</tspan>
        </text>
        <g id="Rectangle">
            <use fill="#FFFFFF" fill-rule="evenodd" xlink:href="#path-7"></use>
            <use fill="black" fill-opacity="1" filter="url(#filter-8)" xlink:href="#path-7"></use>
        </g>
        <g id="Priority-group" transform="translate(0.000000, 240.000000)">
            <g id="Rectangle">
                <use fill="#FFFFFF" fill-rule="evenodd" xlink:href="#path-9"></use>
                <use fill="black" fill-opacity="1" filter="url(#filter-10)" xlink:href="#path-9"></use>
            </g>
            <g id="Segmented-controls" transform="translate(32.000000, 37.493333)">
                <rect id="Button-Background" stroke="#E1E1E1" x="0.5" y="0.5" width="65" height="19" rx="4"></rect>
                <g id="Active-Tab" transform="translate(44.000000, 0.000000)">
                    <rect id="Stretch" x="0" y="4" width="22" height="16"></rect>
                    <path d="M0,0 L0,20 L17.9904421,20 C20.2048598,20 22,18.2075324 22,16.00077 L22,3.99922997 C22,1.79051625 20.1996477,0 17.9904421,0 L0,0 Z" fill="#E1E1E1"></path>
                </g>
                <text id="!" font-family="SFUIText-Semibold, SF UI Text" font-size="16" font-weight="500" fill="#D0021B">
                    <tspan x="52" y="15">!</tspan>
                </text>
                <rect id="Active-Tab" fill="#E1E1E1" x="22" y="0" width="1" height="20"></rect>
                <rect id="Active-Tab" fill="#E1E1E1" x="43" y="0" width="1" height="20"></rect>
                <text id="!" font-family="SFUIText-Semibold, SF UI Text" font-size="16" font-weight="500" fill="#7ED321">
                    <tspan x="9" y="15.5">!</tspan>
                </text>
                <text id="!" font-family="SFUIText-Semibold, SF UI Text" font-size="16" font-weight="500" fill="#F5A623">
                    <tspan x="30" y="15">!</tspan>
                </text>
            </g>
            <text id="Priority" font-family="SFUIText-Medium, SF UI Text" font-size="14" font-weight="400" letter-spacing="-0.409999996" fill="#9B9B9B">
                <tspan x="31.5032812" y="26.7066667">Priority</tspan>
            </text>
            <g id="noun_678307_cc" transform="translate(10.000000, 15.786667)" fill="#4A4A4A" fill-rule="nonzero">
                <path d="M6,0 C2.6862915,0 0,2.65047428 0,5.92 C0,9.18952572 2.6862915,11.84 6,11.84 C9.3137085,11.84 12,9.18952572 12,5.92 C12,2.65047428 9.3137085,0 6,0 Z M6,10.5244444 C3.42267117,10.5244444 1.33333333,8.46296445 1.33333333,5.92 C1.33333333,3.37703555 3.42267117,1.31555556 6,1.31555556 C8.57732883,1.31555556 10.6666667,3.37703555 10.6666667,5.92 C10.6666667,7.14117459 10.1750014,8.31233305 9.29983165,9.17583389 C8.42466188,10.0393347 7.23767695,10.5244444 6,10.5244444 Z" id="Shape"></path>
                <rect id="Rectangle-path" x="5.33333333" y="2.63111111" width="1.33333333" height="3.94666667"></rect>
                <rect id="Rectangle-path" x="5.33333333" y="7.89333333" width="1.33333333" height="1.31555556"></rect>
            </g>
        </g>
        <g id="Alternate-header">
            <g id="Bar">
                <use fill="black" fill-opacity="1" filter="url(#filter-12)" xlink:href="#path-11"></use>
                <use fill="#FFFFFF" fill-rule="evenodd" xlink:href="#path-11"></use>
            </g>
            <g id="Center" transform="translate(152.000000, 32.000000)" fill="#222222" font-family="SFUIText-Semibold, SF UI Text" font-size="17" font-weight="500" letter-spacing="-0.409999996">
                <text id="Edit-Task">
                    <tspan x="0.864775375" y="16">Edit Task</tspan>
                </text>
            </g>
            <g id="Status-Bar">
                <g id="Pin-Right" transform="translate(309.000000, 3.000000)" fill="#000000">
                    <path d="M37.4937128,2.5 L57.0062872,2.5 C57.8266197,2.5 58.5,3.17394722 58.5,4.00530324 L58.5,10.4946968 C58.5,11.3319784 57.831242,12 57.0062872,12 L37.4937128,12 C36.6733803,12 36,11.3260528 36,10.4946968 L36,4.00530324 C36,3.16802155 36.668758,2.5 37.4937128,2.5 Z M59,5.5 L59.75,5.5 C60.1671014,5.5 60.5,5.83232111 60.5,6.24225998 L60.5,8.25774002 C60.5,8.66440529 60.1642136,9 59.75,9 L59,9 L59,5.5 Z M37.5081524,3 C36.9513652,3 36.5,3.45699692 36.5,4.00844055 L36.5,10.4915594 C36.5,11.0485058 36.9490581,11.5 37.5081524,11.5 L56.9918476,11.5 C57.5486348,11.5 58,11.0430031 58,10.4915594 L58,4.00844055 C58,3.45149422 57.5509419,3 56.9918476,3 L37.5081524,3 Z M37.5067444,3.5 L56.9932556,3.5 C57.2697754,3.5 57.5,3.72031886 57.5,3.99209595 L57.5,10.5079041 C57.5,10.783628 57.2731228,11 56.9932556,11 L37.5067444,11 C37.2302246,11 37,10.7796811 37,10.5079041 L37,3.99209595 C37,3.71637201 37.2268772,3.5 37.5067444,3.5 Z" id="Battery"></path>
                    <text id="100%" font-family="SanFranciscoText-Light, San Francisco Text" font-size="12" font-weight="300">
                        <tspan x="4.93945312" y="11.5">100%</tspan>
                    </text>
                </g>
                <text id="Time" font-family="SanFranciscoText-Light, San Francisco Text" font-size="12" font-weight="300" fill="#000000">
                    <tspan x="166.634766" y="14.5">9:41 AM</tspan>
                </text>
                <g id="Overrides/Status-Bar/Signal---Black" fill="#030303">
                    <path d="M96.1444208,12.4385043 L94.0225391,14.5 L91.8601652,12.4053177 C92.3778594,11.8314341 93.1390073,11.4689119 93.987563,11.4689119 C94.8523616,11.4689119 95.626374,11.8454456 96.1444208,12.4385043 Z M98.3234964,10.3214425 L97.2346215,11.3793293 C96.4356305,10.518235 95.2768836,9.97668394 93.987563,9.97668394 C92.713648,9.97668394 91.567205,10.5053708 90.7692987,11.3486 L89.6792698,10.2926936 C90.7566264,9.17975893 92.2882723,8.48445596 93.987563,8.48445596 C95.7014387,8.48445596 97.2447794,9.19174563 98.3234964,10.3214425 Z M100.5,8.20687933 L99.4118698,9.26404272 C98.0538809,7.86552609 96.1260026,6.99222798 93.987563,6.99222798 C91.8628921,6.99222798 89.9460798,7.85431655 88.5895579,9.23709441 L87.5,8.18164431 C89.1355496,6.52895605 91.4375103,5.5 93.987563,5.5 C96.5505699,5.5 98.8629578,6.53943672 100.5,8.20687933 Z" id="Wi-Fi" fill-rule="evenodd"></path>
                    <text id="Carrier" font-family="SFUIText-Regular, SF UI Text" font-size="12" font-weight="normal">
                        <tspan x="44" y="14.5">Sketch</tspan>
                    </text>
                    <path d="M9.25,13 C7.73121694,13 6.5,11.7687831 6.5,10.25 C6.5,8.73121694 7.73121694,7.5 9.25,7.5 C10.7687831,7.5 12,8.73121694 12,10.25 C12,11.7687831 10.7687831,13 9.25,13 Z M16.25,13 C14.7312169,13 13.5,11.7687831 13.5,10.25 C13.5,8.73121694 14.7312169,7.5 16.25,7.5 C17.7687831,7.5 19,8.73121694 19,10.25 C19,11.7687831 17.7687831,13 16.25,13 Z M23.25,13 C21.7312169,13 20.5,11.7687831 20.5,10.25 C20.5,8.73121694 21.7312169,7.5 23.25,7.5 C24.7687831,7.5 26,8.73121694 26,10.25 C26,11.7687831 24.7687831,13 23.25,13 Z M30.25,13 C28.7312169,13 27.5,11.7687831 27.5,10.25 C27.5,8.73121694 28.7312169,7.5 30.25,7.5 C31.7687831,7.5 33,8.73121694 33,10.25 C33,11.7687831 31.7687831,13 30.25,13 Z M37.25,13 C35.7312169,13 34.5,11.7687831 34.5,10.25 C34.5,8.73121694 35.7312169,7.5 37.25,7.5 C38.7687831,7.5 40,8.73121694 40,10.25 C40,11.7687831 38.7687831,13 37.25,13 Z" id="Mobile-Signal" fill-rule="evenodd"></path>
                </g>
            </g>
        </g>
        <g id="noun_928817_cc" transform="translate(10.000000, 124.000000)" fill="#4A4A4A" fill-rule="nonzero" stroke="#979797" stroke-width="0.5">
            <g id="Group">
                <g id="Shape">
                    <path d="M0.167928259,9.69328622 C0.0751840432,9.69328622 0,9.58887207 0,9.46007067 C0,9.33126929 0.0751840432,9.22685513 0.167928259,9.22685513 L11.8320717,9.22685513 C11.924816,9.22685513 12,9.33126929 12,9.46007067 C12,9.58887207 11.924816,9.69328622 11.8320717,9.69328622 L0.167928259,9.69328622 Z M0.167928259,12 C0.0751840432,12 0,11.8955858 0,11.7667844 C0,11.6379831 0.0751840432,11.5335689 0.167928259,11.5335689 L5.80685502,11.5335689 C5.89959923,11.5335689 5.97478328,11.6379831 5.97478328,11.7667844 C5.97478328,11.8955858 5.89959923,12 5.80685502,12 L0.167928259,12 Z M0.167928259,7.38657244 C0.0751840432,7.38657244 0,7.28215829 0,7.15335689 C0,7.02455551 0.0751840432,6.92014133 0.167928259,6.92014133 L11.8320717,6.92014133 C11.924816,6.92014133 12,7.02455551 12,7.15335689 C12,7.28215829 11.924816,7.38657244 11.8320717,7.38657244 L0.167928259,7.38657244 Z M0.167928259,5.07985867 C0.0751840432,5.07985867 0,4.97544449 0,4.84664311 C0,4.71784171 0.0751840432,4.61342756 0.167928259,4.61342756 L11.8320717,4.61342756 C11.924816,4.61342756 12,4.71784171 12,4.84664311 C12,4.97544449 11.924816,5.07985867 11.8320717,5.07985867 L0.167928259,5.07985867 Z M0.167928259,2.77314487 C0.0751840432,2.77314487 0,2.66873071 0,2.53992933 C0,2.41112793 0.0751840432,2.30671378 0.167928259,2.30671378 L11.8320717,2.30671378 C11.924816,2.30671378 12,2.41112793 12,2.53992933 C12,2.66873071 11.924816,2.77314487 11.8320717,2.77314487 L0.167928259,2.77314487 Z M0.167928259,0.466431089 C0.0751840432,0.466431089 0,0.362016933 0,0.233215556 C0,0.104414156 0.0751840432,0 0.167928259,0 L11.8320717,0 C11.924816,0 12,0.104414156 12,0.233215556 C12,0.362016933 11.924816,0.466431089 11.8320717,0.466431089 L0.167928259,0.466431089 Z"></path>
                </g>
            </g>
        </g>
        <text id="Finish-Individual-HW" font-family="SFUIText-Regular, SF UI Text" font-size="14" font-weight="normal" letter-spacing="-0.6002613" fill="#222222">
            <tspan x="32.6990803" y="157">Finish Individual HW 1 and discuss solutions with Fred. </tspan>
        </text>
        <text id="Saturday,-September" font-family="SFUIText-Regular, SF UI Text" font-size="14" font-weight="normal" letter-spacing="-0.6002613" fill="#222222">
            <tspan x="31.3938899" y="221">Saturday, September 21</tspan>
        </text>
        <g id="icons8-calendar" transform="translate(10.000000, 187.000000)" fill="#4A4A4A" fill-rule="nonzero">
            <path d="M2.18181818,0 L2.18181818,0.52173913 L0,0.52173913 L0,12 L12,12 L12,0.52173913 L9.81818182,0.52173913 L9.81818182,0 L8.72727273,0 L8.72727273,0.52173913 L3.27272727,0.52173913 L3.27272727,0 L2.18181818,0 Z M1.09090909,1.56521739 L2.18181818,1.56521739 L2.18181818,2.08695652 L3.27272727,2.08695652 L3.27272727,1.56521739 L8.72727273,1.56521739 L8.72727273,2.08695652 L9.81818182,2.08695652 L9.81818182,1.56521739 L10.9090909,1.56521739 L10.9090909,2.60869565 L1.09090909,2.60869565 L1.09090909,1.56521739 Z M1.09090909,3.65217391 L10.9090909,3.65217391 L10.9090909,10.9565217 L1.09090909,10.9565217 L1.09090909,3.65217391 Z M4.36363636,4.69565217 L4.36363636,5.73913043 L5.45454545,5.73913043 L5.45454545,4.69565217 L4.36363636,4.69565217 Z M6.54545455,4.69565217 L6.54545455,5.73913043 L7.63636364,5.73913043 L7.63636364,4.69565217 L6.54545455,4.69565217 Z M8.72727273,4.69565217 L8.72727273,5.73913043 L9.81818182,5.73913043 L9.81818182,4.69565217 L8.72727273,4.69565217 Z M2.18181818,6.7826087 L2.18181818,7.82608696 L3.27272727,7.82608696 L3.27272727,6.7826087 L2.18181818,6.7826087 Z M4.36363636,6.7826087 L4.36363636,7.82608696 L5.45454545,7.82608696 L5.45454545,6.7826087 L4.36363636,6.7826087 Z M6.54545455,6.7826087 L6.54545455,7.82608696 L7.63636364,7.82608696 L7.63636364,6.7826087 L6.54545455,6.7826087 Z M8.72727273,6.7826087 L8.72727273,7.82608696 L9.81818182,7.82608696 L9.81818182,6.7826087 L8.72727273,6.7826087 Z M2.18181818,8.86956522 L2.18181818,9.91304348 L3.27272727,9.91304348 L3.27272727,8.86956522 L2.18181818,8.86956522 Z M4.36363636,8.86956522 L4.36363636,9.91304348 L5.45454545,9.91304348 L5.45454545,8.86956522 L4.36363636,8.86956522 Z M6.54545455,8.86956522 L6.54545455,9.91304348 L7.63636364,9.91304348 L7.63636364,8.86956522 L6.54545455,8.86956522 Z" id="Shape"></path>
        </g>
        <g id="Delete_button" transform="translate(0.000000, 624.000000)">
            <g id="Rectangle-5" transform="translate(187.500000, 22.000000) rotate(180.000000) translate(-187.500000, -22.000000) ">
                <use fill="#FFFFFF" fill-rule="evenodd" xlink:href="#path-13"></use>
                <use fill="black" fill-opacity="1" filter="url(#filter-14)" xlink:href="#path-13"></use>
            </g>
            <text id="Delete-Task" font-family="SFUIText-Medium, SF UI Text" font-size="14" font-weight="400" letter-spacing="-0.409999996" fill="#D0021B" fill-opacity="0.795884284">
                <tspan x="150.815059" y="26">Delete Task</tspan>
            </text>
        </g>
        <g id="Back_to_work" transform="translate(10.000000, 31.000000)" fill="#76D9BF">
            <text id="↳-Label" font-family="SFUIText-Regular, SF UI Text" font-size="17" font-weight="normal" line-spacing="22" letter-spacing="-0.408">
                <tspan x="18.5" y="16">Work</tspan>
            </text>
            <path d="M10.0371349,21.5826673 L0.792151852,12.4458042 C0.402616049,12.0611888 0.402616049,11.4398102 0.792151852,11.0541958 L10.0371349,1.91733267 C10.5994648,1.36088911 11.5143745,1.36088911 12.0777032,1.91733267 C12.6400331,2.47377622 12.6400331,3.37687313 12.0777032,3.93331668 L4.16912762,11.7504995 L12.0777032,19.5656843 C12.6400331,20.1231269 12.6400331,21.0262238 12.0777032,21.5826673 C11.5143745,22.1391109 10.5994648,22.1391109 10.0371349,21.5826673" id="Chevron"></path>
        </g>
    </g>
</svg>