<?xml version="1.0" encoding="UTF-8"?>
<svg width="375px" height="667px" viewBox="0 0 375 667" version="1.1" xmlns="http://www.w3.org/2000/svg" xmlns:xlink="http://www.w3.org/1999/xlink">
    <!-- Generator: Sketch 51.3 (57544) - http://www.bohemiancoding.com/sketch -->
    <title>Home</title>
    <desc>Created with Sketch.</desc>
    <defs>
        <rect id="path-1" x="0" y="0" width="375" height="64"></rect>
        <filter x="-0.1%" y="-0.4%" width="100.1%" height="101.6%" filterUnits="objectBoundingBox" id="filter-2">
            <feOffset dx="0" dy="0.5" in="SourceAlpha" result="shadowOffsetOuter1"></feOffset>
            <feColorMatrix values="0 0 0 0 0.698039216   0 0 0 0 0.698039216   0 0 0 0 0.698039216  0 0 0 1 0" type="matrix" in="shadowOffsetOuter1"></feColorMatrix>
        </filter>
        <rect id="path-3" x="0" y="0" width="375" height="44"></rect>
        <filter x="-0.1%" y="-0.6%" width="100.1%" height="101.1%" filterUnits="objectBoundingBox" id="filter-4">
            <feOffset dx="0" dy="-0.5" in="SourceAlpha" result="shadowOffsetInner1"></feOffset>
            <feComposite in="shadowOffsetInner1" in2="SourceAlpha" operator="arithmetic" k2="-1" k3="1" result="shadowInnerInner1"></feComposite>
            <feColorMatrix values="0 0 0 0 0.784313725   0 0 0 0 0.780392157   0 0 0 0 0.8  0 0 0 1 0" type="matrix" in="shadowInnerInner1"></feColorMatrix>
        </filter>
        <rect id="path-5" x="0" y="0" width="375" height="44"></rect>
        <filter x="-0.1%" y="-0.6%" width="100.1%" height="101.1%" filterUnits="objectBoundingBox" id="filter-6">
            <feOffset dx="0" dy="-0.5" in="SourceAlpha" result="shadowOffsetInner1"></feOffset>
            <feComposite in="shadowOffsetInner1" in2="SourceAlpha" operator="arithmetic" k2="-1" k3="1" result="shadowInnerInner1"></feComposite>
            <feColorMatrix values="0 0 0 0 0.784313725   0 0 0 0 0.780392157   0 0 0 0 0.8  0 0 0 1 0" type="matrix" in="shadowInnerInner1"></feColorMatrix>
        </filter>
        <rect id="path-7" x="0" y="0" width="375" height="44"></rect>
        <filter x="-0.1%" y="-0.6%" width="100.1%" height="101.1%" filterUnits="objectBoundingBox" id="filter-8">
            <feOffset dx="0" dy="-0.5" in="SourceAlpha" result="shadowOffsetInner1"></feOffset>
            <feComposite in="shadowOffsetInner1" in2="SourceAlpha" operator="arithmetic" k2="-1" k3="1" result="shadowInnerInner1"></feComposite>
            <feColorMatrix values="0 0 0 0 0.784313725   0 0 0 0 0.780392157   0 0 0 0 0.8  0 0 0 1 0" type="matrix" in="shadowInnerInner1"></feColorMatrix>
        </filter>
        <rect id="path-9" x="0" y="0" width="375" height="44"></rect>
        <filter x="-0.1%" y="-0.6%" width="100.1%" height="101.1%" filterUnits="objectBoundingBox" id="filter-10">
            <feOffset dx="0" dy="-0.5" in="SourceAlpha" result="shadowOffsetInner1"></feOffset>
            <feComposite in="shadowOffsetInner1" in2="SourceAlpha" operator="arithmetic" k2="-1" k3="1" result="shadowInnerInner1"></feComposite>
            <feColorMatrix values="0 0 0 0 0.784313725   0 0 0 0 0.780392157   0 0 0 0 0.8  0 0 0 1 0" type="matrix" in="shadowInnerInner1"></feColorMatrix>
        </filter>
        <rect id="path-11" x="0" y="0" width="375" height="44"></rect>
        <filter x="-0.1%" y="-0.6%" width="100.1%" height="101.1%" filterUnits="objectBoundingBox" id="filter-12">
            <feOffset dx="0" dy="-0.5" in="SourceAlpha" result="shadowOffsetInner1"></feOffset>
            <feComposite in="shadowOffsetInner1" in2="SourceAlpha" operator="arithmetic" k2="-1" k3="1" result="shadowInnerInner1"></feComposite>
            <feColorMatrix values="0 0 0 0 0.784313725   0 0 0 0 0.780392157   0 0 0 0 0.8  0 0 0 1 0" type="matrix" in="shadowInnerInner1"></feColorMatrix>
        </filter>
    </defs>
    <g id="Home" stroke="none" stroke-width="1" fill="none" fill-rule="evenodd">
        <rect fill="#FFFFFF" x="0" y="0" width="375" height="667"></rect>
        <g id="Alternate-header">
            <g id="Bar">
                <use fill="black" fill-opacity="1" filter="url(#filter-2)" xlink:href="#path-1"></use>
                <use fill="#FFFFFF" fill-rule="evenodd" xlink:href="#path-1"></use>
            </g>
            <g id="Center" transform="translate(164.000000, 32.000000)" fill="#000000" font-family="SFUIText-Semibold, SF UI Text" font-size="17" font-weight="500" letter-spacing="-0.409999996">
                <text id="Home">
                    <tspan x="0.394951165" y="16">Home</tspan>
                </text>
            </g>
        </g>
        <g id="Settings-button" transform="translate(16.000000, 32.000000)" fill="#76D9BF" fill-rule="nonzero" stroke="#76D9BF" stroke-width="0.25">
            <path d="M9.66318485,3.06866296e-07 C9.42904034,0.000124315761 9.22939935,0.169705943 9.19142273,0.400730579 L8.72619995,3.24881135 C8.16678574,3.41152923 7.63335239,3.63108716 7.13061595,3.90455155 L4.78021294,2.22596831 C4.59019462,2.09029214 4.32998113,2.11161281 4.16458635,2.27640986 L2.30369494,4.13527511 C2.13954242,4.29952859 2.11708667,4.5579446 2.2504465,4.74804682 L3.90394937,7.11319643 C3.62624372,7.61882528 3.40180353,8.15522017 3.23507492,8.71985398 L0.398896751,9.19157605 C0.168595042,9.23036449 -2.72953407e-05,9.42977207 7.98330325e-07,9.66329812 L7.98330325e-07,12.2937328 C-0.000420286953,12.5257742 0.165781036,12.7246475 0.39422585,12.7654549 L3.23227236,13.2680028 C3.39809713,13.8316576 3.62111087,14.3684222 3.89927875,14.8746598 L2.22522361,17.2164569 C2.0895362,17.406459 2.11085867,17.6666501 2.27566944,17.8320308 L4.13562711,19.6927644 C4.29951863,19.8566872 4.55736775,19.8795177 4.74751625,19.7469423 L7.11753728,18.0879749 C7.62175645,18.3630553 8.15649509,18.584226 8.71779237,18.7483862 L9.19142273,21.6002031 C9.22980734,21.8308566 9.42933992,21.9999511 9.66318485,21.9999995 L12.2938429,21.9999995 C12.5261996,22.0003405 12.7251959,21.8336706 12.765605,21.6048738 L13.2728662,18.7418474 C13.8318475,18.5751721 14.3640722,18.3507243 14.8656473,18.0739638 L17.2515494,19.7478768 C17.4416677,19.8812253 17.7001057,19.8587715 17.8643731,19.694633 L19.7243306,17.8329648 C19.8898826,17.6670725 19.9108439,17.4056725 19.7738424,17.2155229 L18.0726959,14.8541099 C18.3446935,14.3549797 18.5638187,13.8259835 18.7266239,13.2708049 L21.6048402,12.7663889 C21.8336565,12.7259832 22.0003405,12.5270039 21.9999995,12.2946668 L21.9999995,9.66423216 C21.9998754,9.43010746 21.8302793,9.2304834 21.599235,9.19251009 L18.7256898,8.72265611 C18.5617931,8.16813465 18.3420619,7.64008493 18.0698935,7.14121965 L19.7476851,4.75084943 C19.881045,4.56074723 19.8585892,4.30233122 19.6944368,4.13807772 L17.8335451,2.27827809 C17.6676387,2.11274017 17.4062165,2.09178069 17.2160508,2.22877058 L14.8609767,3.92229981 C14.3592002,3.64664848 13.8266244,3.42338746 13.2663268,3.25815236 L12.765605,0.396060075 C12.7255986,0.166891882 12.5264959,-0.000261394199 12.2938429,3.06866296e-07 L9.66318485,3.06866296e-07 Z M10.0745049,1 L11.8882893,1 L12.3626639,3.70740329 C12.394913,3.89292088 12.5334528,4.04201946 12.7161196,4.08779762 C13.4126177,4.26134857 14.0667647,4.5364519 14.663845,4.89787952 C14.8270262,4.99674228 15.033464,4.98869044 15.1884476,4.8774181 L17.4170773,3.27585567 L18.6997489,4.55840762 L17.1129199,6.81938238 C17.0046404,6.97347837 16.9973484,7.17690376 17.0943168,7.33835571 C17.4522029,7.93403381 17.723641,8.58399 17.8970328,9.27659952 C17.9431813,9.4609662 18.0945393,9.60024651 18.2821134,9.63095238 L21,10.075521 L21,11.8891371 L18.2765324,12.3671876 C18.0908477,12.4000535 17.9420396,12.5393658 17.8970328,12.7224705 C17.7256469,13.4141986 17.454045,14.0641367 17.0961769,14.6597843 C16.9979897,14.8229098 17.006403,15.028834 17.1175704,15.1834076 L18.7267229,17.4164805 L17.4440517,18.6999629 L15.1865874,17.1160714 C15.0316838,17.0075786 14.8272575,17.0010084 14.6657057,17.0993305 C14.0715952,17.4607548 13.4167747,17.7371562 12.7226307,17.9131324 C12.5408626,17.9589493 12.4028762,18.1071161 12.370105,18.2916667 L11.8892198,21 L10.0726442,21 L9.62431394,18.3037576 C9.59312553,18.1163034 9.45347182,17.9653306 9.26899804,17.9196429 C8.5720837,17.7478843 7.91499592,17.4731952 7.31383144,17.1123514 C7.1525904,17.0157967 6.94964019,17.0230832 6.79573992,17.1309524 L4.55594828,18.6999629 L3.27234676,17.4146205 L4.85545519,15.202009 C4.96604123,15.0470577 4.97372265,14.8411436 4.87498843,14.6783852 C4.51018307,14.0756452 4.23428456,13.4186729 4.06018027,12.71875 C4.01467573,12.5366373 3.86643101,12.3982399 3.68161102,12.3653276 L1,11.8891371 L1,10.0727305 L3.6797507,9.62723238 C3.8669678,9.596188 4.0178885,9.45697382 4.06390109,9.27287952 C4.23950123,8.57054429 4.51526593,7.91368048 4.87870878,7.31231381 C4.97663334,7.15100115 4.97006675,6.94708972 4.86196627,6.79241048 L3.29746072,4.55654762 L4.58199261,3.27306548 L6.802251,4.85974714 C6.9566133,4.96980421 7.1615551,4.97784044 7.32406287,4.88020857 C7.92205086,4.5210919 8.58066402,4.24861 9.27829985,4.07756714 C9.4636816,4.03193101 9.60389567,3.88001582 9.63454537,3.69159229 L10.0745049,1 Z M11,7 C8.7967835,7 7,8.7967835 7,11 C7,13.2032165 8.7967835,15 11,15 C13.2032165,15 15,13.2032165 15,11 C15,8.7967835 13.2032165,7 11,7 Z M11,8 C12.6627765,8 14,9.3372235 14,11 C14,12.6627765 12.6627765,14 11,14 C9.3372235,14 8,12.6627765 8,11 C8,9.3372235 9.3372235,8 11,8 Z" id="Shape"></path>
        </g>
        <g id="Inbox-cell" transform="translate(0.000000, 64.000000)">
            <g id="Cell" fill="black" fill-opacity="1">
                <use filter="url(#filter-4)" xlink:href="#path-3"></use>
            </g>
            <g id="Label" transform="translate(52.000000, 12.000000)" fill="#222222" font-family="SFUIText-Medium, SF UI Text" font-size="17" font-weight="400" letter-spacing="-0.409999996">
                <text>
                    <tspan x="0" y="16">Inbox</tspan>
                </text>
            </g>
            <g id="inbox" transform="translate(18.000000, 13.000000)">
                <rect id="bounds" x="0" y="0" width="20" height="20"></rect>
                <path d="M15.8333333,2.5 L4.15833333,2.5 C3.23833333,2.5 2.50833333,3.24583333 2.50833333,4.16666667 L2.5,15.8333333 C2.5,16.7533333 3.23833333,17.5 4.15833333,17.5 L15.8333333,17.5 C16.7541667,17.5 17.5,16.7533333 17.5,15.8333333 L17.5,4.16666667 C17.5,3.24583333 16.7541667,2.5 15.8333333,2.5 L15.8333333,2.5 Z M15.8333333,12.5 L12.5023793,12.5 C12.5023793,13.8808333 11.3840114,15 10.0041637,15 C8.62431596,15 7.50594813,13.8808333 7.50594813,12.5 L4.16666667,12.5 L4.16666667,4.16666667 L15.8333333,4.16666667 L15.8333333,12.5 L15.8333333,12.5 Z M13.3333333,8.33333333 L11.6666667,8.33333333 L11.6666667,5.83333333 L8.33333333,5.83333333 L8.33333333,8.33333333 L6.66666667,8.33333333 L10,11.6666667 L13.3333333,8.33333333 L13.3333333,8.33333333 Z" id="Fill-1" fill="#76D9BF"></path>
            </g>
        </g>
        <g id="Work-cell" transform="translate(0.000000, 108.000000)">
            <g id="Cell" fill="black" fill-opacity="1">
                <use filter="url(#filter-6)" xlink:href="#path-5"></use>
            </g>
            <g id="Label" transform="translate(52.000000, 12.000000)" fill="#030303" font-family="SFUIText-Medium, SF UI Text" font-size="17" font-weight="400" letter-spacing="-0.409999996">
                <text>
                    <tspan x="0" y="16">Work</tspan>
                </text>
            </g>
        </g>
        <g id="Cell" transform="translate(0.000000, 152.000000)">
            <g fill="black" fill-opacity="1">
                <use filter="url(#filter-8)" xlink:href="#path-7"></use>
            </g>
            <g id="Label" transform="translate(51.000000, 12.000000)" fill="#030303" font-family="SFUIText-Medium, SF UI Text" font-size="17" font-weight="400" letter-spacing="-0.409999996">
                <text>
                    <tspan x="0" y="16">Groceries</tspan>
                </text>
            </g>
        </g>
        <g id="Cell" transform="translate(0.000000, 196.000000)">
            <g fill="black" fill-opacity="1">
                <use filter="url(#filter-10)" xlink:href="#path-9"></use>
            </g>
            <g id="Label" transform="translate(51.000000, 12.000000)" fill="#030303" font-family="SFUIText-Medium, SF UI Text" font-size="17" font-weight="400" letter-spacing="-0.409999996">
                <text>
                    <tspan x="0" y="16">Chores</tspan>
                </text>
            </g>
        </g>
        <g id="Misc-cell" transform="translate(0.000000, 240.000000)">
            <g id="Cell" fill="black" fill-opacity="1">
                <use filter="url(#filter-12)" xlink:href="#path-11"></use>
            </g>
            <g id="Label" transform="translate(51.000000, 12.000000)" fill="#030303" font-family="SFUIText-Medium, SF UI Text" font-size="17" font-weight="400" letter-spacing="-0.409999996">
                <text>
                    <tspan x="0" y="16">Miscellaneous</tspan>
                </text>
            </g>
        </g>
        <g id="noun_928817_cc" transform="translate(21.000000, 125.000000)" fill="#4A4A4A" fill-rule="nonzero" stroke="#4A4A4A" stroke-width="0.25">
            <g id="Group">
                <g id="Shape">
                    <path d="M0.167928259,8.46643109 C0.0751840432,8.46643109 0,8.36201693 0,8.23321553 C0,8.10441416 0.0751840432,8 0.167928259,8 L11.8320717,8 C11.924816,8 12,8.10441416 12,8.23321553 C12,8.36201693 11.924816,8.46643109 11.8320717,8.46643109 L0.167928259,8.46643109 Z M0.168637005,11.4664311 C0.0755013593,11.4664311 0,11.3620169 0,11.2332155 C0,11.1044142 0.0755013593,11 0.168637005,11 L5.831363,11 C5.92449864,11 6,11.1044142 6,11.2332155 C6,11.3620169 5.92449864,11.4664311 5.831363,11.4664311 L0.168637005,11.4664311 Z M0.167928259,6.46643111 C0.0751840432,6.46643111 0,6.36201696 0,6.23321556 C0,6.10441418 0.0751840432,6 0.167928259,6 L11.8320717,6 C11.924816,6 12,6.10441418 12,6.23321556 C12,6.36201696 11.924816,6.46643111 11.8320717,6.46643111 L0.167928259,6.46643111 Z M0.167928259,4.46643111 C0.0751840432,4.46643111 0,4.36201693 0,4.23321556 C0,4.10441416 0.0751840432,4 0.167928259,4 L11.8320717,4 C11.924816,4 12,4.10441416 12,4.23321556 C12,4.36201693 11.924816,4.46643111 11.8320717,4.46643111 L0.167928259,4.46643111 Z M0.167928259,2.46643109 C0.0751840432,2.46643109 0,2.36201693 0,2.23321556 C0,2.10441416 0.0751840432,2 0.167928259,2 L11.8320717,2 C11.924816,2 12,2.10441416 12,2.23321556 C12,2.36201693 11.924816,2.46643109 11.8320717,2.46643109 L0.167928259,2.46643109 Z M0.167928259,0.466431089 C0.0751840432,0.466431089 0,0.362016933 0,0.233215556 C0,0.104414156 0.0751840432,0 0.167928259,0 L11.8320717,0 C11.924816,0 12,0.104414156 12,0.233215556 C12,0.362016933 11.924816,0.466431089 11.8320717,0.466431089 L0.167928259,0.466431089 Z"></path>
                </g>
            </g>
        </g>
        <g id="noun_928817_cc" transform="translate(20.000000, 168.000000)" fill="#4A4A4A" fill-rule="nonzero" stroke="#4A4A4A" stroke-width="0.25">
            <g id="Group">
                <g id="Shape">
                    <path d="M0.167928259,8.46643109 C0.0751840432,8.46643109 0,8.36201693 0,8.23321553 C0,8.10441416 0.0751840432,8 0.167928259,8 L11.8320717,8 C11.924816,8 12,8.10441416 12,8.23321553 C12,8.36201693 11.924816,8.46643109 11.8320717,8.46643109 L0.167928259,8.46643109 Z M0.168637005,11.4664311 C0.0755013593,11.4664311 0,11.3620169 0,11.2332155 C0,11.1044142 0.0755013593,11 0.168637005,11 L5.831363,11 C5.92449864,11 6,11.1044142 6,11.2332155 C6,11.3620169 5.92449864,11.4664311 5.831363,11.4664311 L0.168637005,11.4664311 Z M0.167928259,6.46643111 C0.0751840432,6.46643111 0,6.36201696 0,6.23321556 C0,6.10441418 0.0751840432,6 0.167928259,6 L11.8320717,6 C11.924816,6 12,6.10441418 12,6.23321556 C12,6.36201696 11.924816,6.46643111 11.8320717,6.46643111 L0.167928259,6.46643111 Z M0.167928259,4.46643111 C0.0751840432,4.46643111 0,4.36201693 0,4.23321556 C0,4.10441416 0.0751840432,4 0.167928259,4 L11.8320717,4 C11.924816,4 12,4.10441416 12,4.23321556 C12,4.36201693 11.924816,4.46643111 11.8320717,4.46643111 L0.167928259,4.46643111 Z M0.167928259,2.46643109 C0.0751840432,2.46643109 0,2.36201693 0,2.23321556 C0,2.10441416 0.0751840432,2 0.167928259,2 L11.8320717,2 C11.924816,2 12,2.10441416 12,2.23321556 C12,2.36201693 11.924816,2.46643109 11.8320717,2.46643109 L0.167928259,2.46643109 Z M0.167928259,0.466431089 C0.0751840432,0.466431089 0,0.362016933 0,0.233215556 C0,0.104414156 0.0751840432,0 0.167928259,0 L11.8320717,0 C11.924816,0 12,0.104414156 12,0.233215556 C12,0.362016933 11.924816,0.466431089 11.8320717,0.466431089 L0.167928259,0.466431089 Z"></path>
                </g>
            </g>
        </g>
        <g id="noun_928817_cc" transform="translate(20.000000, 212.000000)" fill="#4A4A4A" fill-rule="nonzero" stroke="#4A4A4A" stroke-width="0.25">
            <g id="Group">
                <g id="Shape">
                    <path d="M0.167928259,8.46643109 C0.0751840432,8.46643109 0,8.36201693 0,8.23321553 C0,8.10441416 0.0751840432,8 0.167928259,8 L11.8320717,8 C11.924816,8 12,8.10441416 12,8.23321553 C12,8.36201693 11.924816,8.46643109 11.8320717,8.46643109 L0.167928259,8.46643109 Z M0.168637005,11.4664311 C0.0755013593,11.4664311 0,11.3620169 0,11.2332155 C0,11.1044142 0.0755013593,11 0.168637005,11 L5.831363,11 C5.92449864,11 6,11.1044142 6,11.2332155 C6,11.3620169 5.92449864,11.4664311 5.831363,11.4664311 L0.168637005,11.4664311 Z M0.167928259,6.46643111 C0.0751840432,6.46643111 0,6.36201696 0,6.23321556 C0,6.10441418 0.0751840432,6 0.167928259,6 L11.8320717,6 C11.924816,6 12,6.10441418 12,6.23321556 C12,6.36201696 11.924816,6.46643111 11.8320717,6.46643111 L0.167928259,6.46643111 Z M0.167928259,4.46643111 C0.0751840432,4.46643111 0,4.36201693 0,4.23321556 C0,4.10441416 0.0751840432,4 0.167928259,4 L11.8320717,4 C11.924816,4 12,4.10441416 12,4.23321556 C12,4.36201693 11.924816,4.46643111 11.8320717,4.46643111 L0.167928259,4.46643111 Z M0.167928259,2.46643109 C0.0751840432,2.46643109 0,2.36201693 0,2.23321556 C0,2.10441416 0.0751840432,2 0.167928259,2 L11.8320717,2 C11.924816,2 12,2.10441416 12,2.23321556 C12,2.36201693 11.924816,2.46643109 11.8320717,2.46643109 L0.167928259,2.46643109 Z M0.167928259,0.466431089 C0.0751840432,0.466431089 0,0.362016933 0,0.233215556 C0,0.104414156 0.0751840432,0 0.167928259,0 L11.8320717,0 C11.924816,0 12,0.104414156 12,0.233215556 C12,0.362016933 11.924816,0.466431089 11.8320717,0.466431089 L0.167928259,0.466431089 Z"></path>
                </g>
            </g>
        </g>
        <g id="noun_928817_cc" transform="translate(20.000000, 256.000000)" fill="#4A4A4A" fill-rule="nonzero" stroke="#4A4A4A" stroke-width="0.25">
            <g id="Group">
                <g id="Shape">
                    <path d="M0.167928259,8.46643109 C0.0751840432,8.46643109 0,8.36201693 0,8.23321553 C0,8.10441416 0.0751840432,8 0.167928259,8 L11.8320717,8 C11.924816,8 12,8.10441416 12,8.23321553 C12,8.36201693 11.924816,8.46643109 11.8320717,8.46643109 L0.167928259,8.46643109 Z M0.168637005,11.4664311 C0.0755013593,11.4664311 0,11.3620169 0,11.2332155 C0,11.1044142 0.0755013593,11 0.168637005,11 L5.831363,11 C5.92449864,11 6,11.1044142 6,11.2332155 C6,11.3620169 5.92449864,11.4664311 5.831363,11.4664311 L0.168637005,11.4664311 Z M0.167928259,6.46643111 C0.0751840432,6.46643111 0,6.36201696 0,6.23321556 C0,6.10441418 0.0751840432,6 0.167928259,6 L11.8320717,6 C11.924816,6 12,6.10441418 12,6.23321556 C12,6.36201696 11.924816,6.46643111 11.8320717,6.46643111 L0.167928259,6.46643111 Z M0.167928259,4.46643111 C0.0751840432,4.46643111 0,4.36201693 0,4.23321556 C0,4.10441416 0.0751840432,4 0.167928259,4 L11.8320717,4 C11.924816,4 12,4.10441416 12,4.23321556 C12,4.36201693 11.924816,4.46643111 11.8320717,4.46643111 L0.167928259,4.46643111 Z M0.167928259,2.46643109 C0.0751840432,2.46643109 0,2.36201693 0,2.23321556 C0,2.10441416 0.0751840432,2 0.167928259,2 L11.8320717,2 C11.924816,2 12,2.10441416 12,2.23321556 C12,2.36201693 11.924816,2.46643109 11.8320717,2.46643109 L0.167928259,2.46643109 Z M0.167928259,0.466431089 C0.0751840432,0.466431089 0,0.362016933 0,0.233215556 C0,0.104414156 0.0751840432,0 0.167928259,0 L11.8320717,0 C11.924816,0 12,0.104414156 12,0.233215556 C12,0.362016933 11.924816,0.466431089 11.8320717,0.466431089 L0.167928259,0.466431089 Z"></path>
                </g>
            </g>
        </g>
        <g id="Indicator-tags" transform="translate(335.000000, 79.000000)">
            <g id="Priority_tag" fill="#D0021B">
                <rect id="Rectangle-3" fill-opacity="0.2" x="0" y="0" width="16" height="16" rx="8"></rect>
                <text id="1" font-family="SFUIText-Regular, SF UI Text" font-size="9" font-weight="normal" letter-spacing="-0.2170588">
                    <tspan x="6.01014073" y="11">1</tspan>
                </text>
            </g>
            <text id="3" font-family="SFUIText-Regular, SF UI Text" font-size="9" font-weight="normal" letter-spacing="-0.2170588" fill="#9B9B9B">
                <tspan x="24.2872403" y="11">3</tspan>
            </text>
        </g>
        <g id="Indicator-tags" transform="translate(335.000000, 122.000000)">
            <g id="Priority_tag" fill="#D0021B">
                <rect id="Rectangle-3" fill-opacity="0.2" x="0" y="0" width="16" height="16" rx="8"></rect>
                <text id="1" font-family="SFUIText-Regular, SF UI Text" font-size="9" font-weight="normal" letter-spacing="-0.2170588">
                    <tspan x="6.01014073" y="11">1</tspan>
                </text>
            </g>
            <text id="3" font-family="SFUIText-Regular, SF UI Text" font-size="9" font-weight="normal" letter-spacing="-0.2170588" fill="#9B9B9B">
                <tspan x="24.2872403" y="11">3</tspan>
            </text>
        </g>
        <g id="Indicator-tags" transform="translate(359.000000, 166.000000)" fill="#9B9B9B" font-family="SFUIText-Regular, SF UI Text" font-size="9" font-weight="normal" letter-spacing="-0.2170588">
            <text id="2">
                <tspan x="0.390511822" y="9">2</tspan>
            </text>
        </g>
        <g id="Indicator-tags" transform="translate(335.000000, 212.000000)">
            <g id="Priority_tag" fill="#D0021B">
                <rect id="Rectangle-3" fill-opacity="0.2" x="0" y="0" width="16" height="16" rx="8"></rect>
                <text id="2" font-family="SFUIText-Regular, SF UI Text" font-size="9" font-weight="normal" letter-spacing="-0.2170588">
                    <tspan x="5.39051182" y="11">2</tspan>
                </text>
            </g>
            <text id="5" font-family="SFUIText-Regular, SF UI Text" font-size="9" font-weight="normal" letter-spacing="-0.2170588" fill="#9B9B9B">
                <tspan x="24.3245939" y="11">5</tspan>
            </text>
        </g>
        <g id="Indicator-tags" transform="translate(336.000000, 252.000000)">
            <g id="Priority_tag" fill="#D0021B">
                <rect id="Rectangle-3" fill-opacity="0.2" x="0" y="0" width="16" height="16" rx="8"></rect>
                <text id="1" font-family="SFUIText-Regular, SF UI Text" font-size="9" font-weight="normal" letter-spacing="-0.2170588">
                    <tspan x="6.01014073" y="11">1</tspan>
                </text>
            </g>
            <text id="4" font-family="SFUIText-Regular, SF UI Text" font-size="9" font-weight="normal" letter-spacing="-0.2170588" fill="#9B9B9B">
                <tspan x="24.2125333" y="11">4</tspan>
            </text>
        </g>
        <g id="Status-Bar">
            <g id="Pin-Right" transform="translate(309.000000, 3.000000)" fill="#000000">
                <path d="M37.4937128,2.5 L57.0062872,2.5 C57.8266197,2.5 58.5,3.17394722 58.5,4.00530324 L58.5,10.4946968 C58.5,11.3319784 57.831242,12 57.0062872,12 L37.4937128,12 C36.6733803,12 36,11.3260528 36,10.4946968 L36,4.00530324 C36,3.16802155 36.668758,2.5 37.4937128,2.5 Z M59,5.5 L59.75,5.5 C60.1671014,5.5 60.5,5.83232111 60.5,6.24225998 L60.5,8.25774002 C60.5,8.66440529 60.1642136,9 59.75,9 L59,9 L59,5.5 Z M37.5081524,3 C36.9513652,3 36.5,3.45699692 36.5,4.00844055 L36.5,10.4915594 C36.5,11.0485058 36.9490581,11.5 37.5081524,11.5 L56.9918476,11.5 C57.5486348,11.5 58,11.0430031 58,10.4915594 L58,4.00844055 C58,3.45149422 57.5509419,3 56.9918476,3 L37.5081524,3 Z M37.5067444,3.5 L56.9932556,3.5 C57.2697754,3.5 57.5,3.72031886 57.5,3.99209595 L57.5,10.5079041 C57.5,10.783628 57.2731228,11 56.9932556,11 L37.5067444,11 C37.2302246,11 37,10.7796811 37,10.5079041 L37,3.99209595 C37,3.71637201 37.2268772,3.5 37.5067444,3.5 Z" id="Battery"></path>
                <text id="100%" font-family="SanFranciscoText-Light, San Francisco Text" font-size="12" font-weight="300">
                    <tspan x="4.93945312" y="11.5">100%</tspan>
                </text>
            </g>
            <text id="Time" font-family="SanFranciscoText-Medium, San Francisco Text" font-size="12" font-weight="400" fill="#000000">
                <tspan x="165.75" y="15">9:41 AM</tspan>
            </text>
            <g id="Overrides/Status-Bar/Signal---Black" fill="#030303">
                <path d="M96.1444208,12.4385043 L94.0225391,14.5 L91.8601652,12.4053177 C92.3778594,11.8314341 93.1390073,11.4689119 93.987563,11.4689119 C94.8523616,11.4689119 95.626374,11.8454456 96.1444208,12.4385043 Z M98.3234964,10.3214425 L97.2346215,11.3793293 C96.4356305,10.518235 95.2768836,9.97668394 93.987563,9.97668394 C92.713648,9.97668394 91.567205,10.5053708 90.7692987,11.3486 L89.6792698,10.2926936 C90.7566264,9.17975893 92.2882723,8.48445596 93.987563,8.48445596 C95.7014387,8.48445596 97.2447794,9.19174563 98.3234964,10.3214425 Z M100.5,8.20687933 L99.4118698,9.26404272 C98.0538809,7.86552609 96.1260026,6.99222798 93.987563,6.99222798 C91.8628921,6.99222798 89.9460798,7.85431655 88.5895579,9.23709441 L87.5,8.18164431 C89.1355496,6.52895605 91.4375103,5.5 93.987563,5.5 C96.5505699,5.5 98.8629578,6.53943672 100.5,8.20687933 Z" id="Wi-Fi" fill-rule="evenodd"></path>
                <text id="Carrier" font-family="SFUIText-Regular, SF UI Text" font-size="12" font-weight="normal">
                    <tspan x="44" y="14.5">Sketch</tspan>
                </text>
                <path d="M9.25,13 C7.73121694,13 6.5,11.7687831 6.5,10.25 C6.5,8.73121694 7.73121694,7.5 9.25,7.5 C10.7687831,7.5 12,8.73121694 12,10.25 C12,11.7687831 10.7687831,13 9.25,13 Z M16.25,13 C14.7312169,13 13.5,11.7687831 13.5,10.25 C13.5,8.73121694 14.7312169,7.5 16.25,7.5 C17.7687831,7.5 19,8.73121694 19,10.25 C19,11.7687831 17.7687831,13 16.25,13 Z M23.25,13 C21.7312169,13 20.5,11.7687831 20.5,10.25 C20.5,8.73121694 21.7312169,7.5 23.25,7.5 C24.7687831,7.5 26,8.73121694 26,10.25 C26,11.7687831 24.7687831,13 23.25,13 Z M30.25,13 C28.7312169,13 27.5,11.7687831 27.5,10.25 C27.5,8.73121694 28.7312169,7.5 30.25,7.5 C31.7687831,7.5 33,8.73121694 33,10.25 C33,11.7687831 31.7687831,13 30.25,13 Z M37.25,13 C35.7312169,13 34.5,11.7687831 34.5,10.25 C34.5,8.73121694 35.7312169,7.5 37.25,7.5 C38.7687831,7.5 40,8.73121694 40,10.25 C40,11.7687831 38.7687831,13 37.25,13 Z" id="Mobile-Signal" fill-rule="evenodd"></path>
            </g>
        </g>
        <g id="New-board" transform="translate(138.000000, 450.000000)">
            <rect id="Rectangle" fill="#76D9BF" x="0" y="0" width="100" height="32" rx="5"></rect>
            <text id="New-Board" font-family="SFUIText-Semibold, SF UI Text" font-size="14" font-weight="500" letter-spacing="-0.2391667" fill="#FFFFFF">
                <tspan x="13.7451955" y="21">New Board</tspan>
            </text>
        </g>
        <g id="activity" transform="translate(343.000000, 33.000000)" stroke="#76D9BF" stroke-linecap="round" stroke-linejoin="round" stroke-width="2">
            <polyline id="Shape" points="20 9 16 9 13 18 7 0 4 9 0 9"></polyline>
        </g>
    </g>
</svg>