<svg width="63" height="87" viewBox="0 0 63 87" version="1.1" xmlns="http://www.w3.org/2000/svg" xmlns:xlink="http://www.w3.org/1999/xlink">
<title>Path-icon</title>
<desc>Created using Figma</desc>
<g id="Canvas" transform="translate(2290 -1562)">
<g id="Path-icon">
<g id="Vector">
<use xlink:href="#path0_fill" transform="translate(-2290 1562)"/>
</g>
</g>
</g>
<defs>
<path id="path0_fill" d="M 55.857 72.806L 50.445 72.806L 50.445 68.348C 59.021 60.398 63.039 52.189 62.383 43.944C 61.949 38.502 59.393 33.013 54.992 28.07C 51.687 24.361 48.547 22.278 48.414 22.191C 48.269 22.096 48.103 22.044 47.934 22.034C 45.93 18.993 42.485 16.983 38.579 16.983C 36.128 16.983 33.766 17.788 31.839 19.238L 31.839 15.623C 31.839 15.366 31.736 15.118 31.552 14.936C 28.739 12.144 28.656 9.211 28.807 7.869C 29.828 7.824 30.474 7.381 30.86 6.967C 32.46 5.239 31.642 1.72599 31.543 1.33099C 31.45 0.962994 31.152 0.683006 30.781 0.615006C 28.041 0.108006 22.292 0.00400012 22.048 1.2207e-07C 22.042 1.2207e-07 22.039 0.00199902 22.032 0.00199902C 22.026 0.00199902 22.02 1.2207e-07 22.015 1.2207e-07C 21.771 0.00400012 16.021 0.108006 13.282 0.615006C 12.908 0.683006 12.611 0.962994 12.52 1.33099C 12.421 1.72599 11.601 5.239 13.203 6.967C 13.588 7.381 14.232 7.824 15.256 7.869C 15.405 9.213 15.321 12.146 12.511 14.936C 12.327 15.118 12.225 15.366 12.225 15.623L 12.225 33.899C 12.225 34.114 12.296 34.325 12.43 34.495L 14.886 37.633L 14.886 45.425C 14.863 45.766 14.845 47.203 16.002 48.481C 17.144 49.744 19.005 50.384 21.536 50.384C 21.718 50.384 21.888 50.33 22.033 50.24C 22.18 50.33 22.348 50.384 22.533 50.384C 25.061 50.384 26.925 49.743 28.066 48.481C 29.221 47.204 29.206 45.766 29.183 45.425L 29.183 37.633L 30.504 35.942C 32.608 38.142 35.491 39.383 38.583 39.383C 40.06 39.383 41.468 39.094 42.761 38.572C 42.894 38.845 43.032 39.122 43.177 39.399C 45.304 43.44 45.843 46.919 44.784 49.738C 43.639 52.781 40.905 54.168 40.247 54.464L 0.967993 54.464C 0.433993 54.464 6.10352e-06 54.898 6.10352e-06 55.432L 6.10352e-06 61.28C 6.10352e-06 61.814 0.433993 62.248 0.967993 62.248L 39.477 62.248L 39.477 63.638L 31.405 63.638C 30.871 63.638 30.438 64.07 30.438 64.605L 30.438 72.807L 6.947 72.807C 3.116 72.807 6.10352e-06 75.835 6.10352e-06 79.558C 6.10352e-06 83.278 3.117 86.306 6.947 86.306L 55.862 86.306C 59.694 86.306 62.809 83.278 62.809 79.558C 62.805 75.834 59.689 72.806 55.857 72.806ZM 16.817 39.651L 27.243 39.651L 27.243 42.369L 16.817 42.369L 16.817 39.651ZM 26.603 47.209C 25.849 48.02 24.44 48.449 22.529 48.449C 22.345 48.449 22.176 48.504 22.029 48.593C 21.884 48.504 21.714 48.449 21.532 48.449C 19.62 48.449 18.212 48.019 17.457 47.209C 16.755 46.453 16.809 45.584 16.811 45.559C 16.814 45.527 16.816 45.496 16.816 45.462L 16.816 44.303L 27.242 44.303L 27.242 45.462C 27.242 45.495 27.242 45.515 27.246 45.547C 27.249 45.584 27.306 46.454 26.603 47.209ZM 38.578 25.429C 40.098 25.429 41.332 26.663 41.332 28.182C 41.332 29.703 40.098 30.937 38.578 30.937C 37.06 30.937 35.824 29.702 35.824 28.182C 35.824 26.663 37.06 25.429 38.578 25.429Z"/>
</defs>
</svg>
