<svg width="100" height="100" viewBox="0 0 100 100" version="1.1" xmlns="http://www.w3.org/2000/svg" xmlns:xlink="http://www.w3.org/1999/xlink">
<title>Radio-icon</title>
<desc>Created using Figma</desc>
<g id="Canvas" transform="translate(2951 -1564)">
<g id="Radio-icon">
<g id="Group">
<g id="Vector">
<use xlink:href="#path0_fill" transform="translate(-2914.79 1564)"/>
</g>
<g id="Vector">
<use xlink:href="#path1_fill" transform="translate(-2951 1597.36)"/>
</g>
<g id="Vector">
<use xlink:href="#path2_fill" transform="translate(-2926.77 1608.39)"/>
</g>
<g id="Vector">
<use xlink:href="#path3_fill" transform="translate(-2903.59 1605.2)"/>
</g>
<g id="Vector">
<use xlink:href="#path4_fill" transform="translate(-2916.4 1640.59)"/>
</g>
<g id="Vector">
<use xlink:href="#path5_fill" transform="translate(-2928.48 1618.64)"/>
</g>
<g id="Vector">
<use xlink:href="#path6_fill" transform="translate(-2925.21 1629.03)"/>
</g>
</g>
</g>
</g>
<defs>
<path id="path0_fill" d="M 13.698 31.203C 5.463 31.203 1.83105e-07 20.71 1.83105e-07 13.769C 1.83105e-07 6.177 6.145 0 13.698 0C 21.252 0 27.396 6.177 27.396 13.769C 27.396 20.709 21.933 31.203 13.698 31.203ZM 13.698 5C 8.902 5 5 8.934 5 13.769C 5 19.083 9.3 26.203 13.698 26.203C 18.095 26.203 22.396 19.083 22.396 13.769C 22.396 8.934 18.494 5 13.698 5Z"/>
<path id="path1_fill" d="M 97.5 66.636L 2.5 66.636C 1.119 66.636 0 65.517 0 64.136L 0 2.5C 0 1.119 1.119 -1.58691e-06 2.5 -1.58691e-06L 97.5 -1.58691e-06C 98.881 -1.58691e-06 100 1.119 100 2.5L 100 64.136C 100 65.517 98.881 66.636 97.5 66.636ZM 5 61.636L 95 61.636L 95 5L 5 5L 5 61.636Z"/>
<path id="path2_fill" d="M 2.50261 11.167C 1.67061 11.167 0.858606 10.753 0.383606 9.997C -0.351394 8.828 0.00160623 7.285 1.17061 6.55C 7.89161 2.326 16.6506 1.00708e-06 25.8336 1.00708e-06C 34.8506 1.00708e-06 43.4916 2.252 50.1636 6.342C 51.3406 7.063 51.7096 8.602 50.9886 9.78C 50.2666 10.958 48.7276 11.324 47.5506 10.605C 41.6546 6.99 33.9426 5 25.8346 5C 17.5816 5 9.76761 7.054 3.83261 10.784C 3.41761 11.043 2.95761 11.167 2.50261 11.167Z"/>
<path id="path3_fill" d="M 2.5 40.57C 1.119 40.57 -1.77002e-06 39.451 -1.77002e-06 38.07L -1.77002e-06 2.5C -1.77002e-06 1.119 1.119 1.31226e-06 2.5 1.31226e-06C 3.881 1.31226e-06 5 1.119 5 2.5L 5 38.069C 5 39.45 3.881 40.57 2.5 40.57Z"/>
<path id="path4_fill" d="M 15.309 15.969C 6.859 15.969 1.2207e-07 8.833 1.2207e-07 4.176C 1.2207e-07 3.197 0.369 2.31934e-06 5.11 2.31934e-06C 6.255 2.31934e-06 7.563 0.149001 9.079 0.322001C 10.951 0.535001 13.073 0.777003 15.309 0.777003C 17.545 0.777003 19.666 0.535001 21.538 0.322001C 23.054 0.149001 24.362 2.31934e-06 25.507 2.31934e-06C 30.249 2.31934e-06 30.617 3.196 30.617 4.176C 30.618 8.833 23.759 15.969 15.309 15.969ZM 5.236 5.001C 6.221 7.084 10.196 10.969 15.309 10.969C 20.422 10.969 24.397 7.083 25.382 5.001C 24.533 5.013 23.403 5.142 22.105 5.29C 20.2 5.507 17.829 5.777 15.309 5.777C 12.788 5.777 10.418 5.506 8.513 5.29C 7.214 5.141 6.084 5.012 5.236 5.001Z"/>
<path id="path5_fill" d="M 2.50209 12.456C 1.71809 12.456 0.946091 12.089 0.459091 11.399C -0.337909 10.272 -0.0709089 8.711 1.05609 7.915C 8.27309 2.811 17.6841 -6.10352e-08 27.5571 -6.10352e-08C 37.2541 -6.10352e-08 46.5381 2.722 53.7011 7.665C 54.8381 8.449 55.1231 10.006 54.3391 11.143C 53.5541 12.28 51.9971 12.563 50.8611 11.781C 44.5251 7.409 36.2491 5.001 27.5571 5.001C 18.7091 5.001 10.3231 7.486 3.94409 11.998C 3.50509 12.307 3.00109 12.456 2.50209 12.456Z"/>
<path id="path6_fill" d="M 2.50289 10.751C 1.67089 10.751 0.858892 10.337 0.383892 9.581C -0.351108 8.412 0.000893116 6.869 1.16989 6.135C 7.46389 2.179 15.6639 -2.86865e-06 24.2589 -2.86865e-06C 32.6989 -2.86865e-06 40.7889 2.109 47.0359 5.938C 48.2129 6.66 48.5819 8.2 47.8609 9.376C 47.1389 10.554 45.5999 10.92 44.4229 10.201C 38.9509 6.847 31.7899 4.999 24.2589 4.999C 16.5929 4.999 9.33789 6.905 3.83089 10.366C 3.41789 10.627 2.95789 10.751 2.50289 10.751Z"/>
</defs>
</svg>
