<?xml version="1.0" encoding="UTF-8" standalone="no"?>
<svg
   xmlns:dc="http://purl.org/dc/elements/1.1/"
   xmlns:cc="http://creativecommons.org/ns#"
   xmlns:rdf="http://www.w3.org/1999/02/22-rdf-syntax-ns#"
   xmlns:svg="http://www.w3.org/2000/svg"
   xmlns="http://www.w3.org/2000/svg"
   viewBox="0 0 970.66669 548.65332"
   height="548.65332"
   width="970.66669"
   xml:space="preserve"
   id="svg2"
   version="1.1"><metadata
     id="metadata8"><rdf:RDF><cc:Work
         rdf:about=""><dc:format>image/svg+xml</dc:format><dc:type
           rdf:resource="http://purl.org/dc/dcmitype/StillImage" /></cc:Work></rdf:RDF></metadata><defs
     id="defs6" /><g
     transform="matrix(1.3333333,0,0,-1.3333333,0,548.65333)"
     id="g10"><g
       transform="scale(0.1)"
       id="g12"><path
         id="path14"
         style="fill:#c4dcec;fill-opacity:1;fill-rule:evenodd;stroke:none"
         d="m 5705.14,306.961 h 1421.4 c 84.43,0 153.49,-69.063 153.49,-153.492 v 0 C 7280.03,69.0508 7210.97,0 7126.54,0 h -1421.4 c -84.43,0 -153.49,69.0508 -153.49,153.469 v 0 c 0,84.429 69.06,153.492 153.49,153.492" /><path
         id="path16"
         style="fill:#beeaf5;fill-opacity:1;fill-rule:evenodd;stroke:none"
         d="m 1989.2,1946.21 h 641.98 c 9.24,0 16.79,-7.55 16.79,-16.79 v -790.97 c 0,-9.22 -7.55,-16.78 -16.79,-16.78 H 1989.2 c -9.24,0 -16.78,7.56 -16.78,16.78 v 790.97 c 0,9.24 7.54,16.79 16.78,16.79 z m 713.55,0 h 642 c 9.23,0 16.78,-7.55 16.78,-16.79 v -790.97 c 0,-9.22 -7.55,-16.78 -16.78,-16.78 h -642 c -9.23,0 -16.79,7.56 -16.79,16.78 v 790.97 c 0,9.24 7.56,16.79 16.79,16.79 z m 713.57,0 h 641.99 c 9.23,0 16.79,-7.55 16.79,-16.79 v -790.97 c 0,-9.22 -7.56,-16.78 -16.79,-16.78 h -641.99 c -9.24,0 -16.79,7.56 -16.79,16.78 v 790.97 c 0,9.24 7.55,16.79 16.79,16.79 z m 713.55,0 h 642 c 9.23,0 16.79,-7.55 16.79,-16.79 v -790.97 c 0,-9.22 -7.56,-16.78 -16.79,-16.78 h -642 c -9.22,0 -16.78,7.56 -16.78,16.78 v 790.97 c 0,9.24 7.56,16.79 16.78,16.79 z m 713.57,0 h 641.99 c 9.24,0 16.78,-7.55 16.78,-16.79 v -790.97 c 0,-9.22 -7.54,-16.78 -16.78,-16.78 h -641.99 c -9.25,0 -16.79,7.56 -16.79,16.78 v 790.97 c 0,9.24 7.54,16.79 16.79,16.79 z M 1989.2,3655.04 h 641.98 c 9.24,0 16.79,-7.56 16.79,-16.79 v -790.96 c 0,-9.24 -7.55,-16.79 -16.79,-16.79 H 1989.2 c -9.24,0 -16.78,7.55 -16.78,16.79 v 790.96 c 0,9.23 7.54,16.79 16.78,16.79 z m 713.55,0 h 642 c 9.23,0 16.78,-7.56 16.78,-16.79 v -790.96 c 0,-9.24 -7.55,-16.79 -16.78,-16.79 h -642 c -9.23,0 -16.79,7.55 -16.79,16.79 v 790.96 c 0,9.23 7.56,16.79 16.79,16.79 z m 713.57,0 h 641.99 c 9.23,0 16.79,-7.56 16.79,-16.79 v -790.96 c 0,-9.24 -7.56,-16.79 -16.79,-16.79 h -641.99 c -9.24,0 -16.79,7.55 -16.79,16.79 v 790.96 c 0,9.23 7.55,16.79 16.79,16.79 z m 713.55,0 h 642 c 9.23,0 16.79,-7.56 16.79,-16.79 v -790.96 c 0,-9.24 -7.56,-16.79 -16.79,-16.79 h -642 c -9.22,0 -16.78,7.55 -16.78,16.79 v 790.96 c 0,9.23 7.56,16.79 16.78,16.79 z m 713.57,0 h 641.99 c 9.24,0 16.78,-7.56 16.78,-16.79 v -790.96 c 0,-9.24 -7.54,-16.79 -16.78,-16.79 h -641.99 c -9.25,0 -16.79,7.55 -16.79,16.79 v 790.96 c 0,9.23 7.54,16.79 16.79,16.79 z m -3567.79,0 h 641.97 c 9.25,0 16.79,-7.56 16.79,-16.79 v -790.96 c 0,-9.24 -7.54,-16.79 -16.79,-16.79 h -641.97 c -9.25,0 -16.79,7.55 -16.79,16.79 v 790.96 c 0,9.23 7.54,16.79 16.79,16.79 z M 1265.74,941.809 H 5495.3 c 132.56,0 240.98,-108.411 240.98,-240.95 v -0.019 c 0,-132.52 -108.42,-240.961 -240.98,-240.961 H 1265.74 c -132.54,0 -240.96,108.441 -240.96,240.961 v 0.019 c 0,132.539 108.42,240.95 240.96,240.95 z m 0,1688.981 H 5495.3 c 132.56,0 240.98,-108.43 240.98,-240.95 v -0.03 c 0,-132.52 -108.42,-240.96 -240.98,-240.96 H 1265.74 c -132.54,0 -240.96,108.44 -240.96,240.96 v 0.03 c 0,132.52 108.42,240.95 240.96,240.95 z m 9.91,-684.58 h 641.97 c 9.25,0 16.79,-7.55 16.79,-16.79 v -790.97 c 0,-9.22 -7.54,-16.78 -16.79,-16.78 h -641.97 c -9.25,0 -16.79,7.56 -16.79,16.78 v 790.97 c 0,9.24 7.54,16.79 16.79,16.79 v 0" /><path
         id="path18"
         style="fill:#737c88;fill-opacity:1;fill-rule:evenodd;stroke:none"
         d="M 3337.43,3440.22 H 5152.96 V 2356.21 H 3337.43 v 1084.01" /><path
         id="path20"
         style="fill:#55606c;fill-opacity:1;fill-rule:evenodd;stroke:none"
         d="M 5152.96,3068.69 V 2356.21 H 3337.43 v 712.48 c 30.01,100.26 123.33,173.89 233.02,173.89 h 1349.49 c 109.69,0 203.01,-73.63 233.02,-173.89" /><path
         id="path22"
         style="fill:#bec6cd;fill-opacity:1;fill-rule:evenodd;stroke:none"
         d="m 3586.9,3176.82 h 121.57 v -435.64 c 0,-66.87 -54.71,-121.56 -121.57,-121.56 h -121.57 v 435.63 c 0,66.87 54.7,121.57 121.57,121.57" /><path
         id="path24"
         style="fill:#bec6cd;fill-opacity:1;fill-rule:evenodd;stroke:none"
         d="m 3868.04,3176.82 h -121.56 v -435.64 c 0,-66.87 54.69,-121.56 121.56,-121.56 h 121.56 v 435.63 c 0,66.87 -54.7,121.57 -121.56,121.57" /><path
         id="path26"
         style="fill:#e9e8e7;fill-opacity:1;fill-rule:evenodd;stroke:none"
         d="m 3443.85,3039.99 h 212.78 c 13.93,0 25.3,-11.37 25.3,-25.31 v -0.02 c 0,-13.94 -11.37,-25.32 -25.3,-25.32 h -212.78 c -13.93,0 -25.32,11.38 -25.32,25.32 v 0.02 c 0,13.94 11.39,25.31 25.32,25.31" /><path
         id="path28"
         style="fill:#e9e8e7;fill-opacity:1;fill-rule:evenodd;stroke:none"
         d="m 3443.85,2938.69 h 212.78 c 13.93,0 25.3,-11.39 25.3,-25.32 v -0.02 c 0,-13.94 -11.37,-25.31 -25.3,-25.31 h -212.78 c -13.93,0 -25.32,11.37 -25.32,25.31 v 0.02 c 0,13.93 11.39,25.32 25.32,25.32" /><path
         id="path30"
         style="fill:#e9e8e7;fill-opacity:1;fill-rule:evenodd;stroke:none"
         d="m 3443.85,2837.38 h 212.78 c 13.93,0 25.3,-11.38 25.3,-25.31 v -0.03 c 0,-13.93 -11.37,-25.29 -25.3,-25.29 h -212.78 c -13.93,0 -25.32,11.36 -25.32,25.29 v 0.03 c 0,13.93 11.39,25.31 25.32,25.31" /><path
         id="path32"
         style="fill:#e9e8e7;fill-opacity:1;fill-rule:evenodd;stroke:none"
         d="m 3443.85,2736.08 h 212.78 c 13.93,0 25.3,-11.38 25.3,-25.31 v -0.03 c 0,-13.93 -11.37,-25.31 -25.3,-25.31 h -212.78 c -13.93,0 -25.32,11.38 -25.32,25.31 v 0.03 c 0,13.93 11.39,25.31 25.32,25.31" /><path
         id="path34"
         style="fill:#e9e8e7;fill-opacity:1;fill-rule:evenodd;stroke:none"
         d="m 3808.57,3039.99 h 212.78 c 13.91,0 25.31,-11.37 25.31,-25.31 v -0.02 c 0,-13.94 -11.4,-25.32 -25.31,-25.32 h -212.78 c -13.94,0 -25.32,11.38 -25.32,25.32 v 0.02 c 0,13.94 11.38,25.31 25.32,25.31" /><path
         id="path36"
         style="fill:#e9e8e7;fill-opacity:1;fill-rule:evenodd;stroke:none"
         d="m 3808.57,2938.69 h 212.78 c 13.91,0 25.31,-11.39 25.31,-25.32 v -0.02 c 0,-13.94 -11.4,-25.31 -25.31,-25.31 h -212.78 c -13.94,0 -25.32,11.37 -25.32,25.31 v 0.02 c 0,13.93 11.38,25.32 25.32,25.32" /><path
         id="path38"
         style="fill:#e9e8e7;fill-opacity:1;fill-rule:evenodd;stroke:none"
         d="m 3808.57,2837.38 h 212.78 c 13.91,0 25.31,-11.38 25.31,-25.31 v -0.03 c 0,-13.93 -11.4,-25.29 -25.31,-25.29 h -212.78 c -13.94,0 -25.32,11.36 -25.32,25.29 v 0.03 c 0,13.93 11.38,25.31 25.32,25.31" /><path
         id="path40"
         style="fill:#e9e8e7;fill-opacity:1;fill-rule:evenodd;stroke:none"
         d="m 3808.57,2736.08 h 212.78 c 13.91,0 25.31,-11.38 25.31,-25.31 v -0.03 c 0,-13.93 -11.4,-25.31 -25.31,-25.31 h -212.78 c -13.94,0 -25.32,11.38 -25.32,25.31 v 0.03 c 0,13.93 11.38,25.31 25.32,25.31" /><path
         id="path42"
         style="fill:#e9e8e7;fill-opacity:1;fill-rule:evenodd;stroke:none"
         d="m 3397.18,3340.32 h 838.95 v 27.87 h -838.95 v -27.87" /><path
         id="path44"
         style="fill:#e9e8e7;fill-opacity:1;fill-rule:evenodd;stroke:none"
         d="m 3397.15,3294.73 h 149.42 v 27.86 h -149.42 v -27.86" /><path
         id="path46"
         style="fill:#e9e8e7;fill-opacity:1;fill-rule:evenodd;stroke:none"
         d="m 3601.17,2535.87 h 268.47 v 27.86 h -268.47 v -27.86" /><path
         id="path48"
         style="fill:#929aae;fill-opacity:1;fill-rule:evenodd;stroke:none"
         d="m 4192.77,2632.87 h 339.41 v 506.01 h -339.41 v -506.01" /><path
         id="path50"
         style="fill:#c7cbd3;fill-opacity:1;fill-rule:evenodd;stroke:none"
         d="m 4425.19,2970.47 c -14.7,0 -26.61,-16.39 -26.61,-36.63 0,-20.25 11.91,-36.65 26.61,-36.65 14.68,0 26.59,16.4 26.59,36.65 0,20.24 -11.91,36.63 -26.59,36.63 z m -105.12,0 c -14.69,0 -26.58,-16.39 -26.58,-36.63 0,-20.25 11.89,-36.65 26.58,-36.65 14.71,0 26.6,16.4 26.6,36.65 0,20.24 -11.89,36.63 -26.6,36.63 z m 21.61,-220.12 c 3.14,6.01 4.99,13.41 4.99,21.39 0,20.24 -11.89,36.64 -26.6,36.64 -10.07,0 -18.82,-7.7 -23.33,-19.07 12.12,-17.9 27.55,-31.5 44.94,-38.96 z m 106.85,38.96 c -4.52,11.37 -13.28,19.07 -23.34,19.07 -14.7,0 -26.61,-16.4 -26.61,-36.64 0,-7.98 1.87,-15.38 5,-21.39 17.4,7.48 32.83,21.08 44.95,38.96 z m -75.89,240.75 c 57.34,0 103.84,-64.05 103.84,-143.08 0,-30.1 -6.75,-58.01 -18.28,-81.05 -18.71,37.47 -50.05,62.05 -85.56,62.05 -35.53,0 -66.86,-24.58 -85.59,-62.05 -11.5,23.04 -18.25,50.95 -18.25,81.05 0,79.03 46.47,143.08 103.84,143.08 v 0" /><path
         id="path52"
         style="fill:#acb1c0;fill-opacity:1;fill-rule:evenodd;stroke:none"
         d="m 4612.79,2632.87 h 339.41 v 506.01 h -339.41 v -506.01" /><path
         id="path54"
         style="fill:#c7cbd3;fill-opacity:1;fill-rule:evenodd;stroke:none"
         d="m 4845.2,2809.95 c -14.69,0 -26.6,16.41 -26.6,36.65 0,20.24 11.91,36.65 26.6,36.65 14.68,0 26.6,-16.41 26.6,-36.65 0,-20.24 -11.92,-36.65 -26.6,-36.65 z m -105.11,0 c -14.69,0 -26.58,16.41 -26.58,36.65 0,20.24 11.89,36.65 26.58,36.65 14.71,0 26.6,-16.41 26.6,-36.65 0,-20.24 -11.89,-36.65 -26.6,-36.65 z m 21.6,220.13 c 3.14,-6.02 5,-13.39 5,-21.39 0,-20.23 -11.89,-36.64 -26.6,-36.64 -10.07,0 -18.82,7.71 -23.34,19.06 12.13,17.9 27.56,31.5 44.94,38.97 z m 106.85,-38.97 c -4.51,-11.35 -13.27,-19.06 -23.34,-19.06 -14.69,0 -26.6,16.41 -26.6,36.64 0,8 1.85,15.37 5,21.39 17.38,-7.47 32.83,-21.08 44.94,-38.97 z m -75.89,-240.75 c 57.35,0 103.83,64.07 103.83,143.1 0,30.1 -6.75,58 -18.26,81.05 -18.72,-37.47 -50.06,-62.05 -85.57,-62.05 -35.52,0 -66.85,24.58 -85.58,62.05 -11.51,-23.05 -18.27,-50.95 -18.27,-81.05 0,-79.03 46.49,-143.1 103.85,-143.1 v 0" /><path
         id="path56"
         style="fill:#e9e8e7;fill-opacity:1;fill-rule:evenodd;stroke:none"
         d="m 3601.17,2477.18 h 268.47 v 27.85 h -268.47 v -27.85" /><path
         id="path58"
         style="fill:#e9e8e7;fill-opacity:1;fill-rule:evenodd;stroke:none"
         d="m 4275.52,2535.87 h 179.41 v 27.86 h -179.41 v -27.86" /><path
         id="path60"
         style="fill:#e9e8e7;fill-opacity:1;fill-rule:evenodd;stroke:none"
         d="m 4275.52,2477.18 h 179.41 v 27.85 h -179.41 v -27.85" /><path
         id="path62"
         style="fill:#e9e8e7;fill-opacity:1;fill-rule:evenodd;stroke:none"
         d="m 4692.77,2535.87 h 179.43 v 27.86 h -179.43 v -27.86" /><path
         id="path64"
         style="fill:#e9e8e7;fill-opacity:1;fill-rule:evenodd;stroke:none"
         d="m 4692.77,2477.18 h 179.43 v 27.85 h -179.43 v -27.85" /><path
         id="path66"
         style="fill:#cadfe7;fill-opacity:1;fill-rule:evenodd;stroke:none"
         d="M 3296.99,3505.81 H 5193.4 v -48.04 c 0,-26.43 -21.61,-48.04 -48.05,-48.04 H 3345.04 c -26.44,0 -48.05,21.61 -48.05,48.04 v 48.04" /><path
         id="path68"
         style="fill:#cadfe7;fill-opacity:1;fill-rule:evenodd;stroke:none"
         d="M 3296.99,2260.13 H 5193.4 v 48.06 c 0,26.42 -21.61,48.02 -48.05,48.02 H 3345.04 c -26.44,0 -48.05,-21.6 -48.05,-48.02 v -48.06" /><path
         id="path70"
         style="fill:#f8a378;fill-opacity:1;fill-rule:evenodd;stroke:none"
         d="M 2559.02,2107.47 V 1903.3 h 287.17 v 204.17 h -287.17" /><path
         id="path72"
         style="fill:#e4af82;fill-opacity:1;fill-rule:evenodd;stroke:none"
         d="m 2559.02,1974.16 v -70.86 h 287.17 v 70.86 h -287.17" /><path
         id="path74"
         style="fill:#4d2124;fill-opacity:1;fill-rule:evenodd;stroke:none"
         d="m 2249.33,1991.57 v 313.44 c 0,55.83 -45.66,101.49 -101.49,101.49 h -101.5 v -313.43 c 0,-55.83 45.64,-101.5 101.48,-101.5 h 101.51" /><path
         id="path76"
         style="fill:#f8a378;fill-opacity:1;fill-rule:evenodd;stroke:none"
         d="m 2116.23,2113.64 v -78.47 c 0,-73.2 59.9,-133.1 133.1,-133.1 h 285.28 c 73.2,0 133.1,59.9 133.1,133.1 v 156.92 c 0,73.19 -59.9,133.09 -133.1,133.09 h -138.65 c -15.59,24.47 -42.97,40.82 -73.97,40.82 h -33.1 c -46.64,0 -85.08,-36.95 -87.5,-83.01 -51.61,-38.68 -85.16,-100.28 -85.16,-169.35" /><path
         id="path78"
         style="fill:#e56e4d;fill-opacity:1;fill-rule:evenodd;stroke:none"
         d="m 2324.4,2021.06 c 0,-29.1 23.59,-52.7 52.7,-52.7 29.1,0 52.69,23.6 52.69,52.7 0,29.11 -23.59,52.7 -52.69,52.7 -29.11,0 -52.7,-23.59 -52.7,-52.7" /><path
         id="path80"
         style="fill:#612a2e;fill-opacity:1;fill-rule:evenodd;stroke:none"
         d="m 2314.13,2218.52 c 2.33,-0.53 4.74,-0.83 7.23,-0.83 17.52,0 31.71,14.2 31.71,31.72 0,17.51 -14.19,31.7 -31.71,31.7 -2.49,0 -4.9,-0.29 -7.23,-0.82 14.05,-3.28 24.48,-15.86 24.48,-30.88 0,-15.03 -10.43,-27.61 -24.48,-30.89" /><path
         id="path82"
         style="fill:#612a2e;fill-opacity:1;fill-rule:evenodd;stroke:none"
         d="m 2249.33,1902.07 v 313.43 c 0,55.84 -45.66,101.5 -101.49,101.5 h -101.5 v -313.44 c 0,-55.82 45.64,-101.49 101.48,-101.49 h 101.51" /><path
         id="path84"
         style="fill:#612a2e;fill-opacity:1;fill-rule:evenodd;stroke:none"
         d="m 2249.33,1902.07 v 176.78 c 0,31.49 25.75,57.25 57.25,57.25 h 57.25 v -176.79 c 0,-31.49 -25.75,-57.24 -57.24,-57.24 h -57.26" /><path
         id="path86"
         style="fill:#4d2124;fill-opacity:1;fill-rule:evenodd;stroke:none"
         d="m 2249.33,1902.07 v 209.19 c 0,37.25 -30.48,67.74 -67.74,67.74 h -67.75 v -209.19 c 0,-37.26 30.49,-67.74 67.74,-67.74 h 67.75" /><path
         id="path88"
         style="fill:#4d2124;fill-opacity:1;fill-rule:evenodd;stroke:none"
         d="m 2249.33,1902.07 v 115.57 c 0,20.6 16.83,37.43 37.43,37.43 h 37.44 v -115.58 c 0,-20.59 -16.84,-37.42 -37.43,-37.42 h -37.44" /><path
         id="path90"
         style="fill:#f8a378;fill-opacity:1;fill-rule:evenodd;stroke:none"
         d="m 2311.13,2026.14 c 0,-29.11 23.61,-52.71 52.7,-52.71 29.11,0 52.7,23.6 52.7,52.71 0,29.1 -23.59,52.69 -52.7,52.69 -29.09,0 -52.7,-23.59 -52.7,-52.69" /><path
         id="path92"
         style="fill:#cfa179;fill-opacity:1;fill-rule:evenodd;stroke:none"
         d="m 2341.93,2026.14 c 0,-12.09 9.8,-21.9 21.9,-21.9 12.1,0 21.9,9.81 21.9,21.9 h -43.8" /><path
         id="path94"
         style="fill:#3a629f;fill-opacity:1;fill-rule:evenodd;stroke:none"
         d="m 3570.87,1902.07 h -821.66 v 230.42 c 0,126.73 103.7,230.43 230.43,230.43 h 591.23 v -460.85" /><path
         id="path96"
         style="fill:#3a629f;fill-opacity:1;fill-rule:evenodd;stroke:none"
         d="m 3323.57,1902.07 h 494.62 v 460.83 h -494.62 v -460.83" /><path
         id="path98"
         style="fill:#5a9d32;fill-opacity:1;fill-rule:evenodd;stroke:none"
         d="m 4321.15,1902.07 h 856.13 v 228.77 H 4050.95 v 9.24 c 0,64 -52.37,116.37 -116.38,116.37 h -116.38 v -354.38 h 156.35 76.41 270.2" /><path
         id="path100"
         style="fill:#8cd024;fill-opacity:1;fill-rule:evenodd;stroke:none"
         d="m 3818.19,2063.93 v -161.86 h 246.55 c 0,97.41 -78.99,176.38 -176.38,176.38 -24.93,0 -48.66,-5.18 -70.17,-14.52" /><path
         id="path102"
         style="fill:#f8a378;fill-opacity:1;fill-rule:evenodd;stroke:none"
         d="m 5202.65,2061.19 v -159.12 h 108.94 v 159.12 h -108.94" /><path
         id="path104"
         style="fill:#6db82f;fill-opacity:1;fill-rule:evenodd;stroke:none"
         d="m 5083.93,2173.7 v -271.63 h 118.72 v 271.63 h -118.72" /><path
         id="path106"
         style="fill:#65b031;fill-opacity:1;fill-rule:evenodd;stroke:none"
         d="m 5083.93,1987.45 v -85.38 h 118.72 v 85.38 h -118.72" /><path
         id="path108"
         style="fill:#f8a378;fill-opacity:1;fill-rule:evenodd;stroke:none"
         d="m 5292.91,1902.07 v 366.68 c 0,41.11 33.63,74.73 74.75,74.73 h 74.76 v -441.41 h -149.51" /><path
         id="path110"
         style="fill:#4d8831;fill-opacity:1;fill-rule:evenodd;stroke:none"
         d="m 4015.68,1902.07 h -197.49 v 129.67 c 17.23,7.47 36.23,11.63 56.21,11.63 78.02,0 141.28,-63.27 141.28,-141.3" /><path
         id="path112"
         style="fill:#8cd024;fill-opacity:1;fill-rule:evenodd;stroke:none"
         d="m 3818.2,1902.07 h 56.21 v 379.56 h -56.21 v -379.56" /><path
         id="path114"
         style="fill:#5581bf;fill-opacity:1;fill-rule:evenodd;stroke:none"
         d="m 3649.83,2333.19 h -63.42 v -91.42 c 0,-14.39 -5.85,-27.46 -15.24,-36.92 -9.49,-9.41 -22.56,-15.27 -36.95,-15.27 h -384.13 c -4.53,0 -9,0.32 -13.37,0.93 v -127.37 c 4.42,-0.27 8.88,-0.41 13.37,-0.41 h 384.13 c 49.12,0 93.85,20.13 126.25,52.53 l 0.25,0.25 c 32.42,32.43 52.55,77.13 52.55,126.26 v 91.42 h -63.44" /><path
         id="path116"
         style="fill:#7fa9de;fill-opacity:1;fill-rule:evenodd;stroke:none"
         d="m 2790.53,2102.31 v -0.03 c 0,-72.48 59.31,-131.8 131.8,-131.8 h 214.39 v 263.62 h -214.39 c -72.49,0 -131.8,-59.31 -131.8,-131.79" /><path
         id="path118"
         style="fill:#5581bf;fill-opacity:1;fill-rule:evenodd;stroke:none"
         d="m 2790.53,2102.29 v 0 c 0,-72.49 59.31,-131.81 131.81,-131.81 h 214.38 v 68.56 h -214.38 c -60.65,0 -112.07,41.51 -127.25,97.52 -2.98,-10.93 -4.56,-22.42 -4.56,-34.27" /><path
         id="path120"
         style="fill:#f8a378;fill-opacity:1;fill-rule:evenodd;stroke:none"
         d="m 3603.21,2333.18 h 91.4 v 101.92 h -91.4 v -101.92" /><path
         id="path122"
         style="fill:#f8a378;fill-opacity:1;fill-rule:evenodd;stroke:none"
         d="m 3649.82,2466.78 c -57.5,0 -104.12,-46.45 -104.41,-103.88 h 208.83 c -0.29,57.43 -46.92,103.88 -104.42,103.88" /><path
         id="path124"
         style="fill:#e56e4d;fill-opacity:1;fill-rule:evenodd;stroke:none"
         d="m 3649.72,2466.78 c -57.48,0 -104.11,-46.45 -104.4,-103.88 h 29.82 c 0.28,52.37 39.07,95.61 89.5,102.82 -4.86,0.69 -9.85,1.06 -14.92,1.06" /><path
         id="path126"
         style="fill:#f1445b;fill-opacity:1;fill-rule:evenodd;stroke:none"
         d="m 2544.36,2244.79 c 14.69,0 26.68,11.98 26.68,26.68 0,14.7 -11.99,26.69 -26.68,26.69 -14.71,0 -26.69,-11.99 -26.69,-26.69 0,-14.7 11.98,-26.68 26.69,-26.68" /><path
         id="path128"
         style="fill:#578fa3;fill-opacity:1;fill-rule:evenodd;stroke:none"
         d="m 201.328,3307.59 h 28.02 V 975.809 c 0,-50.797 20.742,-96.95 54.125,-130.309 l 0.117,-0.121 C 316.969,812 363.105,791.25 413.906,791.25 H 544.898 V 735.199 H 413.906 c -66.058,0 -126.195,27.051 -169.843,70.653 l -0.114,0.109 C 200.367,849.609 173.297,909.75 173.297,975.809 V 3307.59 h 28.031" /><path
         id="path130"
         style="fill:#beeaf5;fill-opacity:1;fill-rule:evenodd;stroke:none"
         d="m 2777.78,3927.11 h 1304.34 v -89 l -88.98,-88.99 H 2866.76 l -88.98,88.99 v 89" /><path
         id="path132"
         style="fill:#578fa3;fill-opacity:1;fill-rule:evenodd;stroke:none"
         d="M 661.855,2888.91 C 506.793,2876.54 383.723,2745.78 383.723,2587.67 v -522.78 h 35.922 c 133.218,0 242.21,109 242.21,242.22 v 581.8" /><path
         id="path134"
         style="fill:#d1e0ec;fill-opacity:1;fill-rule:evenodd;stroke:none"
         d="m 464.297,2266.13 h 0.016 c 44.324,0 80.585,-36.26 80.585,-80.59 V 699.719 c 0,-44.297 -36.261,-80.559 -80.585,-80.559 h -0.016 c -44.32,0 -80.574,36.262 -80.574,80.559 V 2185.54 c 0,44.33 36.254,80.59 80.574,80.59" /><path
         id="path136"
         style="fill:#c4dcec;fill-opacity:1;fill-rule:evenodd;stroke:none"
         d="M 153.488,460.469 H 6542.41 c 84.44,0 153.49,-69.071 153.49,-153.5 v 0 c 0,-84.418 -69.05,-153.489 -153.49,-153.489 H 153.488 C 69.0586,153.48 0,222.551 0,306.969 v 0 c 0,84.429 69.0586,153.5 153.488,153.5" /><path
         id="path138"
         style="fill:#578fa3;fill-opacity:1;fill-rule:evenodd;stroke:none"
         d="m 4681.23,1932.64 h 844.19 c 29.01,0 52.74,-23.74 52.74,-52.75 v -0.03 c 0,-29.02 -23.73,-52.75 -52.74,-52.75 h -844.19 v 105.53" /><path
         id="path140"
         style="fill:#c4dcec;fill-opacity:1;fill-rule:evenodd;stroke:none"
         d="M 745.301,1029.26 H 2040.37 c 150.37,0 273.39,-123.022 273.39,-273.408 V 482.441 H 471.906 v 273.411 c 0,150.386 123.028,273.408 273.395,273.408" /><path
         id="path142"
         style="fill:#578fa3;fill-opacity:1;fill-rule:evenodd;stroke:none"
         d="m 1210.44,3418.06 h 306.96 c 253.26,0 460.47,-207.21 460.47,-460.47 V 1163.71 c 0,-253.261 -207.21,-460.472 -460.47,-460.472 h -306.96 c -253.264,0 -460.471,207.211 -460.471,460.472 v 1793.88 c 0,253.26 207.207,460.47 460.471,460.47" /><path
         id="path144"
         style="fill:#4d869b;fill-opacity:1;fill-rule:evenodd;stroke:none"
         d="m 1977.87,1768.73 v -594.78 c 0,-253.251 -207.21,-460.47 -460.47,-460.47 h -306.96 c -253.264,0 -460.471,207.219 -460.471,460.47 v 594.78 c 0,-253.27 207.207,-460.47 460.471,-460.47 h 306.96 c 253.26,0 460.47,207.2 460.47,460.47" /><path
         id="path146"
         style="fill:#c1e8f6;fill-opacity:1;fill-rule:evenodd;stroke:none"
         d="m 1977.87,2957.58 h 74.37 l 74.35,-74.35 V 1338.79 l -74.35,-74.35 h -74.37 v 1693.14" /><path
         id="path148"
         style="fill:#a2cadc;fill-opacity:1;fill-rule:evenodd;stroke:none"
         d="m 2126.59,1919.17 v -580.36 l -74.35,-74.37 h -74.37 v 580.37 h 74.37 l 74.35,74.36" /><path
         id="path150"
         style="fill:#72acbf;fill-opacity:1;fill-rule:evenodd;stroke:none"
         d="m 1893.44,2636.72 h 0.04 c 13.69,0 24.9,-11.2 24.9,-24.9 v -838.08 c 0,-13.7 -11.21,-24.9 -24.9,-24.9 h -0.04 c -13.7,0 -24.9,11.2 -24.9,24.9 v 838.08 c 0,13.7 11.2,24.9 24.9,24.9" /><path
         id="path152"
         style="fill:#72acbf;fill-opacity:1;fill-rule:evenodd;stroke:none"
         d="m 1893.44,2808.86 h 0.04 c 13.69,0 24.9,-11.2 24.9,-24.9 v -67.98 c 0,-13.7 -11.21,-24.9 -24.9,-24.9 h -0.04 c -13.7,0 -24.9,11.2 -24.9,24.9 v 67.98 c 0,13.7 11.2,24.9 24.9,24.9" /><path
         id="path154"
         style="fill:#e4f5f9;fill-opacity:1;fill-rule:evenodd;stroke:none"
         d="m 2179.41,2031.82 h 2925.87 v -302.16 c 0,-166.21 -135.97,-302.2 -302.17,-302.2 h -2623.7 v 604.36" /><path
         id="path156"
         style="fill:#a2cadc;fill-opacity:1;fill-rule:evenodd;stroke:none"
         d="m 5104.33,1705.6 c -12.36,-155.07 -143.12,-278.14 -301.22,-278.14 H 2956.48 v 35.93 c 0,133.22 109.01,242.21 242.23,242.21 h 1905.62" /><path
         id="path158"
         style="fill:#a2cadc;fill-opacity:1;fill-rule:evenodd;stroke:none"
         d="m 2179.42,1938.3 h 2925.86 v 93.52 H 2179.42 v -93.52" /><path
         id="path160"
         style="fill:#578fa3;fill-opacity:1;fill-rule:evenodd;stroke:none"
         d="M 476.695,626.352 H 2385.72 l 119.9,-119.903 V 386.531 H 356.793 v 119.918 l 119.902,119.903" /><path
         id="path162"
         style="fill:#4d869b;fill-opacity:1;fill-rule:evenodd;stroke:none"
         d="M 2505.62,506.449 V 386.531 H 356.793 V 506.449 H 2505.62" /><path
         id="path164"
         style="fill:#e4f5f9;fill-opacity:1;fill-rule:evenodd;stroke:none"
         d="M 4472.19,1427.46 H 2956.48 v -189.52 c 0,-104.24 85.29,-189.51 189.51,-189.51 h 1136.69 c 104.23,0 189.51,85.27 189.51,189.51 v 189.52" /><path
         id="path166"
         style="fill:#a2cadc;fill-opacity:1;fill-rule:evenodd;stroke:none"
         d="m 3727.53,1048.43 -234,-234.039 h -339.18 l 234.01,234.039 h 339.17" /><path
         id="path168"
         style="fill:#d1e0ec;fill-opacity:1;fill-rule:evenodd;stroke:none"
         d="M 4034.5,1048.43 3800.51,814.391 h -339.18 l 234.01,234.039 h 339.16" /><path
         id="path170"
         style="fill:#578fa3;fill-opacity:1;fill-rule:evenodd;stroke:none"
         d="M 4472.19,386.531 H 2956.48 v 213.938 c 0,117.66 96.27,213.922 213.94,213.922 h 1087.83 c 117.67,0 213.94,-96.262 213.94,-213.922 V 386.531" /><path
         id="path172"
         style="fill:#4d869b;fill-opacity:1;fill-rule:evenodd;stroke:none"
         d="m 4472.19,386.531 h -201.46 v 213.93 c 0,117.668 -96.26,213.93 -213.92,213.93 h 201.44 c 117.67,0 213.94,-96.262 213.94,-213.93 v -213.93" /><path
         id="path174"
         style="fill:#72acbf;fill-opacity:1;fill-rule:evenodd;stroke:none"
         d="m 1072.28,1806.66 h 583.27 v 689.31 h -583.27 v -689.31" /><path
         id="path176"
         style="fill:#95cad6;fill-opacity:1;fill-rule:evenodd;stroke:none"
         d="m 1101.44,2151.33 h 524.94 v 310.18 h -524.94 v -310.18" /><path
         id="path178"
         style="fill:#95cad6;fill-opacity:1;fill-rule:evenodd;stroke:none"
         d="m 1101.44,2077.07 h 92.42 v 53.04 h -92.42 v -53.04" /><path
         id="path180"
         style="fill:#b0e4e0;fill-opacity:1;fill-rule:evenodd;stroke:none"
         d="M 1209.58,2077.07 H 1302 v 53.04 h -92.42 v -53.04" /><path
         id="path182"
         style="fill:#95cad6;fill-opacity:1;fill-rule:evenodd;stroke:none"
         d="m 1317.7,2077.07 h 92.42 v 53.04 h -92.42 v -53.04" /><path
         id="path184"
         style="fill:#bee6ef;fill-opacity:1;fill-rule:evenodd;stroke:none"
         d="m 1425.83,2077.07 h 92.42 v 53.04 h -92.42 v -53.04" /><path
         id="path186"
         style="fill:#bee6ef;fill-opacity:1;fill-rule:evenodd;stroke:none"
         d="m 1533.97,2077.07 h 92.41 v 53.04 h -92.41 v -53.04" /><path
         id="path188"
         style="fill:#b0e4e0;fill-opacity:1;fill-rule:evenodd;stroke:none"
         d="m 1101.44,2008.14 h 92.42 v 53.03 h -92.42 v -53.03" /><path
         id="path190"
         style="fill:#95cad6;fill-opacity:1;fill-rule:evenodd;stroke:none"
         d="M 1209.58,2008.14 H 1302 v 53.03 h -92.42 v -53.03" /><path
         id="path192"
         style="fill:#95cad6;fill-opacity:1;fill-rule:evenodd;stroke:none"
         d="m 1317.7,2008.14 h 92.42 v 53.03 h -92.42 v -53.03" /><path
         id="path194"
         style="fill:#95cad6;fill-opacity:1;fill-rule:evenodd;stroke:none"
         d="m 1425.83,2008.14 h 92.42 v 53.03 h -92.42 v -53.03" /><path
         id="path196"
         style="fill:#95cad6;fill-opacity:1;fill-rule:evenodd;stroke:none"
         d="m 1533.97,2008.14 h 92.41 v 53.03 h -92.41 v -53.03" /><path
         id="path198"
         style="fill:#f8a4b1;fill-opacity:1;fill-rule:evenodd;stroke:none"
         d="M 1209.58,1846.42 H 1302 v 53.05 h -92.42 v -53.05" /><path
         id="path200"
         style="fill:#f8a4b1;fill-opacity:1;fill-rule:evenodd;stroke:none"
         d="m 1317.7,1846.42 h 92.42 v 53.05 h -92.42 v -53.05" /><path
         id="path202"
         style="fill:#bee6ef;fill-opacity:1;fill-rule:evenodd;stroke:none"
         d="m 1132.28,2191.01 h 146.94 v 242.6 h -146.94 v -242.6" /><path
         id="path204"
         style="fill:#bee6ef;fill-opacity:1;fill-rule:evenodd;stroke:none"
         d="m 1305.17,2433.61 h 123.09 c 6.57,0 11.94,-5.37 11.94,-11.93 v 0 c 0,-6.58 -5.37,-11.93 -11.94,-11.93 h -123.09 c -6.57,0 -11.94,5.35 -11.94,11.93 v 0 c 0,6.56 5.37,11.93 11.94,11.93" /><path
         id="path206"
         style="fill:#bee6ef;fill-opacity:1;fill-rule:evenodd;stroke:none"
         d="m 1468.21,2433.61 h 19.14 c 6.58,0 11.94,-5.37 11.94,-11.93 v 0 c 0,-6.58 -5.36,-11.93 -11.94,-11.93 h -19.14 c -6.56,0 -11.93,5.35 -11.93,11.93 v 0 c 0,6.56 5.37,11.93 11.93,11.93" /><path
         id="path208"
         style="fill:#bee6ef;fill-opacity:1;fill-rule:evenodd;stroke:none"
         d="m 1305.17,2391.18 h 123.09 c 6.57,0 11.94,-5.36 11.94,-11.92 v 0 c 0,-6.58 -5.37,-11.94 -11.94,-11.94 h -123.09 c -6.57,0 -11.94,5.36 -11.94,11.94 v 0 c 0,6.56 5.37,11.92 11.94,11.92" /><path
         id="path210"
         style="fill:#bee6ef;fill-opacity:1;fill-rule:evenodd;stroke:none"
         d="m 1305.17,2348.76 h 123.09 c 6.57,0 11.94,-5.36 11.94,-11.94 v 0 c 0,-6.56 -5.37,-11.93 -11.94,-11.93 h -123.09 c -6.57,0 -11.94,5.37 -11.94,11.93 v 0 c 0,6.58 5.37,11.94 11.94,11.94" /><path
         id="path212"
         style="fill:#bee6ef;fill-opacity:1;fill-rule:evenodd;stroke:none"
         d="m 1305.17,2306.34 h 123.09 c 6.57,0 11.94,-5.36 11.94,-11.93 v 0 c 0,-6.57 -5.37,-11.93 -11.94,-11.93 h -123.09 c -6.57,0 -11.94,5.36 -11.94,11.93 v 0 c 0,6.57 5.37,11.93 11.94,11.93" /><path
         id="path214"
         style="fill:#bee6ef;fill-opacity:1;fill-rule:evenodd;stroke:none"
         d="m 1305.17,2214.87 h 282.94 c 6.56,0 11.92,-5.37 11.92,-11.93 v 0 c 0,-6.57 -5.36,-11.93 -11.92,-11.93 h -282.94 c -6.57,0 -11.94,5.36 -11.94,11.93 v 0 c 0,6.56 5.37,11.93 11.94,11.93" /><path
         id="path216"
         style="fill:#bee6ef;fill-opacity:1;fill-rule:evenodd;stroke:none"
         d="m 1471.61,2343.48 h 128.41 v 42.42 h -128.41 v -42.42" /><path
         id="path218"
         style="fill:#bee6ef;fill-opacity:1;fill-rule:evenodd;stroke:none"
         d="m 1471.61,2287.81 h 128.41 v 42.41 h -128.41 v -42.41" /><path
         id="path220"
         style="fill:#94c5d2;fill-opacity:1;fill-rule:evenodd;stroke:none"
         d="m 1072.28,2495.97 h 583.27 v 113.94 h -583.27 v -113.94" /><path
         id="path222"
         style="fill:#adbdd0;fill-opacity:1;fill-rule:evenodd;stroke:none"
         d="m 2696.56,1778.5 h -235.02 c -10.2,0 -19.47,-4.18 -26.19,-10.89 -6.73,-6.7 -10.91,-15.99 -10.91,-26.19 v -67.15 c 0,-10.18 4.18,-19.46 10.91,-26.19 6.72,-6.72 15.99,-10.9 26.19,-10.9 h 235.02 c 10.19,0 19.46,4.18 26.18,10.9 6.73,6.73 10.91,16.01 10.91,26.19 v 67.15 c 0,10.2 -4.18,19.49 -10.88,26.21 -6.75,6.69 -16.02,10.87 -26.21,10.87 z m -235.02,21.77 h 235.02 c 16.18,0 30.92,-6.63 41.57,-17.28 10.65,-10.7 17.28,-25.4 17.28,-41.57 v -67.15 c 0,-16.18 -6.63,-30.92 -17.28,-41.57 -10.65,-10.64 -25.39,-17.27 -41.57,-17.27 h -235.02 c -16.19,0 -30.93,6.63 -41.58,17.27 -10.65,10.65 -17.26,25.39 -17.26,41.57 v 67.15 c 0,16.17 6.61,30.87 17.26,41.53 10.65,10.69 25.39,17.32 41.58,17.32 v 0" /><path
         id="path224"
         style="fill:#f8a4b1;fill-opacity:1;fill-rule:evenodd;stroke:none"
         d="m 1951.94,770.102 h 45.59 c 8.56,0 15.57,-7 15.57,-15.571 v -14.422 c 0,-8.57 -7.01,-15.558 -15.57,-15.558 h -45.59 c -8.57,0 -15.58,6.988 -15.58,15.558 v 14.422 c 0,8.571 7.01,15.571 15.58,15.571" /><path
         id="path226"
         style="fill:#b0e4e0;fill-opacity:1;fill-rule:evenodd;stroke:none"
         d="m 2062.28,770.102 h 45.59 c 8.55,0 15.56,-7 15.56,-15.571 v -14.422 c 0,-8.57 -7.01,-15.558 -15.56,-15.558 h -45.59 c -8.56,0 -15.57,6.988 -15.57,15.558 v 14.422 c 0,8.571 7.01,15.571 15.57,15.571" /><path
         id="path228"
         style="fill:#4d869b;fill-opacity:1;fill-rule:evenodd;stroke:none"
         d="m 5105.28,1827.11 h 70 v 105.53 h -70 v -105.53" /><path
         id="path230"
         style="fill:#578fa3;fill-opacity:1;fill-rule:evenodd;stroke:none"
         d="m 5398.33,1832.76 c -12.35,-155.06 -143.12,-278.13 -301.22,-278.13 h -522.77 v 35.91 c 0,133.23 108.99,242.22 242.21,242.22 h 581.78" /><path
         id="path232"
         style="fill:#4e8196;fill-opacity:1;fill-rule:evenodd;stroke:none"
         d="m 4693.27,1605.94 c 19.83,0 35.99,16.17 35.99,35.99 0,19.82 -16.16,35.99 -35.99,35.99 -19.81,0 -35.97,-16.17 -35.97,-35.99 0,-19.82 16.16,-35.99 35.97,-35.99" /><path
         id="path234"
         style="fill:#ffffff;fill-opacity:1;fill-rule:evenodd;stroke:none"
         d="m 4693.27,1622.17 c 10.9,0 19.79,8.86 19.79,19.76 0,10.89 -8.89,19.77 -19.79,19.77 -10.89,0 -19.76,-8.88 -19.76,-19.77 0,-10.9 8.87,-19.76 19.76,-19.76" /><path
         id="path236"
         style="fill:#4e8196;fill-opacity:1;fill-rule:evenodd;stroke:none"
         d="m 5026.03,1605.94 c 19.82,0 35.98,16.17 35.98,35.99 0,19.82 -16.16,35.99 -35.98,35.99 -19.83,0 -35.97,-16.17 -35.97,-35.99 0,-19.82 16.14,-35.99 35.97,-35.99" /><path
         id="path238"
         style="fill:#ffffff;fill-opacity:1;fill-rule:evenodd;stroke:none"
         d="m 5026.03,1622.17 c 10.89,0 19.78,8.86 19.78,19.76 0,10.89 -8.89,19.77 -19.78,19.77 -10.89,0 -19.77,-8.88 -19.77,-19.77 0,-10.9 8.88,-19.76 19.77,-19.76" /><path
         id="path240"
         style="fill:#dbf2f9;fill-opacity:1;fill-rule:evenodd;stroke:none"
         d="M 6020.76,748.172 H 6084 V 3214.69 h -63.24 V 748.172" /><path
         id="path242"
         style="fill:#4186a6;fill-opacity:1;fill-rule:evenodd;stroke:none"
         d="m 5762.51,756.969 h 579.75 c 53.83,0 102.77,-22.047 138.25,-57.52 35.6,-35.48 57.64,-84.488 57.64,-138.379 v -50.082 h -59.76 v 50.082 c 0,37.391 -15.32,71.43 -40.01,96.121 -24.63,24.7 -58.69,40.02 -96.12,40.02 h -579.75 c -37.44,0 -71.5,-15.32 -96.18,-39.973 -24.64,-24.656 -39.96,-58.726 -39.96,-96.168 v -50.082 h -59.76 v 50.082 c 0,53.828 22.05,102.782 57.51,138.25 l 0.12,0.129 c 35.49,35.473 84.44,57.52 138.27,57.52" /><path
         id="path244"
         style="fill:#4186a6;fill-opacity:1;fill-rule:evenodd;stroke:none"
         d="m 6022.07,1085.47 h 60.6 l 29,-29 V 756.969 h -118.58 v 299.501 l 28.98,29" /><path
         id="path246"
         style="fill:#a2cadc;fill-opacity:1;fill-rule:evenodd;stroke:none"
         d="m 5648.25,412.59 c 52.96,0 96.15,43.191 96.15,96.14 0,52.942 -43.19,96.122 -96.15,96.122 -52.95,0 -96.14,-43.18 -96.14,-96.122 0,-52.949 43.19,-96.14 96.14,-96.14" /><path
         id="path248"
         style="fill:#dbf2f9;fill-opacity:1;fill-rule:evenodd;stroke:none"
         d="m 5648.25,455.969 c 29.07,0 52.76,23.703 52.76,52.761 0,29.051 -23.69,52.75 -52.76,52.75 -29.05,0 -52.75,-23.699 -52.75,-52.75 0,-29.058 23.7,-52.761 52.75,-52.761" /><path
         id="path250"
         style="fill:#a2cadc;fill-opacity:1;fill-rule:evenodd;stroke:none"
         d="m 6469.06,412.59 c 52.95,0 96.14,43.191 96.14,96.14 0,52.942 -43.19,96.122 -96.14,96.122 -52.97,0 -96.15,-43.18 -96.15,-96.122 0,-52.949 43.18,-96.14 96.15,-96.14" /><path
         id="path252"
         style="fill:#ffffff;fill-opacity:1;fill-rule:evenodd;stroke:none"
         d="m 6469.06,455.969 c 29.06,0 52.75,23.703 52.75,52.761 0,29.051 -23.69,52.75 -52.75,52.75 -29.06,0 -52.75,-23.699 -52.75,-52.75 0,-29.058 23.69,-52.761 52.75,-52.761" /><path
         id="path254"
         style="fill:#dbf2f9;fill-opacity:1;fill-rule:evenodd;stroke:none"
         d="m 5709.82,2786.89 h 685.14 v 548.1 h -685.14 v -548.1" /><path
         id="path256"
         style="fill:#bedbe8;fill-opacity:1;fill-rule:evenodd;stroke:none"
         d="M 6020.76,2682.39 H 6084 v 104.5 h -63.24 v -104.5" /><path
         id="path258"
         style="fill:#989fa4;fill-opacity:1;fill-rule:evenodd;stroke:none"
         d="m 5770.1,2997.67 h 564.57 v 274.06 H 5770.1 v -274.06" /><path
         id="path260"
         style="fill:#989fa4;fill-opacity:1;fill-rule:evenodd;stroke:none"
         d="m 5797.73,2970 h 23.71 c 3.99,0 7.24,-3.26 7.24,-7.24 v -15.83 c 0,-3.99 -3.25,-7.25 -7.24,-7.25 h -23.71 c -3.99,0 -7.25,3.26 -7.25,7.25 v 15.83 c 0,3.98 3.26,7.24 7.25,7.24" /><path
         id="path262"
         style="fill:#989fa4;fill-opacity:1;fill-rule:evenodd;stroke:none"
         d="m 5850.41,2970 h 23.7 c 4,0 7.27,-3.26 7.27,-7.24 v -15.83 c 0,-3.99 -3.27,-7.25 -7.27,-7.25 h -23.7 c -3.98,0 -7.26,3.26 -7.26,7.25 v 15.83 c 0,3.98 3.28,7.24 7.26,7.24" /><path
         id="path264"
         style="fill:#989fa4;fill-opacity:1;fill-rule:evenodd;stroke:none"
         d="m 5903.09,2970 h 23.72 c 3.98,0 7.24,-3.26 7.24,-7.24 v -15.83 c 0,-3.99 -3.26,-7.25 -7.24,-7.25 h -23.72 c -3.99,0 -7.24,3.26 -7.24,7.25 v 15.83 c 0,3.98 3.25,7.24 7.24,7.24" /><path
         id="path266"
         style="fill:#989fa4;fill-opacity:1;fill-rule:evenodd;stroke:none"
         d="m 5955.77,2970 h 23.71 c 3.99,0 7.26,-3.26 7.26,-7.24 v -15.83 c 0,-3.99 -3.27,-7.25 -7.26,-7.25 h -23.71 c -3.97,0 -7.24,3.26 -7.24,7.25 v 15.83 c 0,3.98 3.27,7.24 7.24,7.24" /><path
         id="path268"
         style="fill:#989fa4;fill-opacity:1;fill-rule:evenodd;stroke:none"
         d="m 6008.45,2970 h 23.72 c 3.99,0 7.24,-3.26 7.24,-7.24 v -15.83 c 0,-3.99 -3.25,-7.25 -7.24,-7.25 h -23.72 c -3.98,0 -7.24,3.26 -7.24,7.25 v 15.83 c 0,3.98 3.26,7.24 7.24,7.24" /><path
         id="path270"
         style="fill:#989fa4;fill-opacity:1;fill-rule:evenodd;stroke:none"
         d="m 6061.13,2970 h 23.71 c 4,0 7.27,-3.26 7.27,-7.24 v -15.83 c 0,-3.99 -3.27,-7.25 -7.27,-7.25 h -23.71 c -3.97,0 -7.24,3.26 -7.24,7.25 v 15.83 c 0,3.98 3.27,7.24 7.24,7.24" /><path
         id="path272"
         style="fill:#989fa4;fill-opacity:1;fill-rule:evenodd;stroke:none"
         d="m 6113.82,2970 h 23.7 c 4,0 7.27,-3.26 7.27,-7.24 v -15.83 c 0,-3.99 -3.27,-7.25 -7.27,-7.25 h -23.7 c -3.98,0 -7.24,3.26 -7.24,7.25 v 15.83 c 0,3.98 3.26,7.24 7.24,7.24" /><path
         id="path274"
         style="fill:#989fa4;fill-opacity:1;fill-rule:evenodd;stroke:none"
         d="m 6166.5,2970 h 23.72 c 3.98,0 7.24,-3.26 7.24,-7.24 v -15.83 c 0,-3.99 -3.26,-7.25 -7.24,-7.25 h -23.72 c -3.98,0 -7.24,3.26 -7.24,7.25 v 15.83 c 0,3.98 3.26,7.24 7.24,7.24" /><path
         id="path276"
         style="fill:#989fa4;fill-opacity:1;fill-rule:evenodd;stroke:none"
         d="m 6219.18,2970 h 23.71 c 4.01,0 7.26,-3.26 7.26,-7.24 v -15.83 c 0,-3.99 -3.25,-7.25 -7.26,-7.25 h -23.71 c -3.97,0 -7.24,3.26 -7.24,7.25 v 15.83 c 0,3.98 3.27,7.24 7.24,7.24" /><path
         id="path278"
         style="fill:#989fa4;fill-opacity:1;fill-rule:evenodd;stroke:none"
         d="m 5770.2,2930.47 h 23.71 c 3.98,0 7.25,-3.27 7.25,-7.25 v -15.82 c 0,-3.98 -3.27,-7.26 -7.25,-7.26 h -23.71 c -3.98,0 -7.24,3.28 -7.24,7.26 v 15.82 c 0,3.98 3.26,7.25 7.24,7.25" /><path
         id="path280"
         style="fill:#989fa4;fill-opacity:1;fill-rule:evenodd;stroke:none"
         d="m 5822.89,2930.47 h 23.71 c 3.99,0 7.25,-3.27 7.25,-7.25 v -15.82 c 0,-3.98 -3.26,-7.26 -7.25,-7.26 h -23.71 c -3.99,0 -7.24,3.28 -7.24,7.26 v 15.82 c 0,3.98 3.25,7.25 7.24,7.25" /><path
         id="path282"
         style="fill:#989fa4;fill-opacity:1;fill-rule:evenodd;stroke:none"
         d="m 5875.57,2930.47 h 23.71 c 3.98,0 7.25,-3.27 7.25,-7.25 v -15.82 c 0,-3.98 -3.27,-7.26 -7.25,-7.26 h -23.71 c -3.98,0 -7.25,3.28 -7.25,7.26 v 15.82 c 0,3.98 3.27,7.25 7.25,7.25" /><path
         id="path284"
         style="fill:#989fa4;fill-opacity:1;fill-rule:evenodd;stroke:none"
         d="m 5928.24,2930.47 h 23.72 c 3.99,0 7.25,-3.27 7.25,-7.25 v -15.82 c 0,-3.98 -3.26,-7.26 -7.25,-7.26 h -23.72 c -3.97,0 -7.23,3.28 -7.23,7.26 v 15.82 c 0,3.98 3.26,7.25 7.23,7.25" /><path
         id="path286"
         style="fill:#989fa4;fill-opacity:1;fill-rule:evenodd;stroke:none"
         d="m 5980.93,2930.47 h 23.71 c 3.98,0 7.26,-3.27 7.26,-7.25 v -15.82 c 0,-3.98 -3.28,-7.26 -7.26,-7.26 h -23.71 c -3.98,0 -7.25,3.28 -7.25,7.26 v 15.82 c 0,3.98 3.27,7.25 7.25,7.25" /><path
         id="path288"
         style="fill:#989fa4;fill-opacity:1;fill-rule:evenodd;stroke:none"
         d="m 6033.6,2930.47 h 23.73 c 3.99,0 7.25,-3.27 7.25,-7.25 v -15.82 c 0,-3.98 -3.26,-7.26 -7.25,-7.26 h -23.73 c -3.97,0 -7.22,3.28 -7.22,7.26 v 15.82 c 0,3.98 3.25,7.25 7.22,7.25" /><path
         id="path290"
         style="fill:#989fa4;fill-opacity:1;fill-rule:evenodd;stroke:none"
         d="m 6086.3,2930.47 h 23.71 c 3.98,0 7.26,-3.27 7.26,-7.25 v -15.82 c 0,-3.98 -3.28,-7.26 -7.26,-7.26 h -23.71 c -3.98,0 -7.25,3.28 -7.25,7.26 v 15.82 c 0,3.98 3.27,7.25 7.25,7.25" /><path
         id="path292"
         style="fill:#989fa4;fill-opacity:1;fill-rule:evenodd;stroke:none"
         d="m 6138.98,2930.47 h 23.71 c 4,0 7.25,-3.27 7.25,-7.25 v -15.82 c 0,-3.98 -3.25,-7.26 -7.25,-7.26 h -23.71 c -3.98,0 -7.24,3.28 -7.24,7.26 v 15.82 c 0,3.98 3.26,7.25 7.24,7.25" /><path
         id="path294"
         style="fill:#989fa4;fill-opacity:1;fill-rule:evenodd;stroke:none"
         d="m 6191.66,2930.47 h 23.71 c 4,0 7.25,-3.27 7.25,-7.25 v -15.82 c 0,-3.98 -3.25,-7.26 -7.25,-7.26 h -23.71 c -3.98,0 -7.25,3.28 -7.25,7.26 v 15.82 c 0,3.98 3.27,7.25 7.25,7.25" /><path
         id="path296"
         style="fill:#989fa4;fill-opacity:1;fill-rule:evenodd;stroke:none"
         d="m 5845.11,2879.7 h 212.23 c 3.98,0 7.24,-3.25 7.24,-7.23 v -15.83 c 0,-3.99 -3.26,-7.25 -7.24,-7.25 h -212.23 c -3.97,0 -7.23,3.26 -7.23,7.25 v 15.83 c 0,3.98 3.26,7.23 7.23,7.23" /><path
         id="path298"
         style="fill:#989fa4;fill-opacity:1;fill-rule:evenodd;stroke:none"
         d="m 6277.32,2911.33 h 23.71 c 3.99,0 7.25,-3.26 7.25,-7.24 v -15.83 c 0,-3.99 -3.26,-7.25 -7.25,-7.25 h -23.71 c -3.99,0 -7.25,3.26 -7.25,7.25 v 15.83 c 0,3.98 3.26,7.24 7.25,7.24" /><path
         id="path300"
         style="fill:#989fa4;fill-opacity:1;fill-rule:evenodd;stroke:none"
         d="m 6330,2911.33 h 23.71 c 3.99,0 7.26,-3.26 7.26,-7.24 v -15.83 c 0,-3.99 -3.27,-7.25 -7.26,-7.25 H 6330 c -3.97,0 -7.25,3.26 -7.25,7.25 v 15.83 c 0,3.98 3.28,7.24 7.25,7.24" /><path
         id="path302"
         style="fill:#989fa4;fill-opacity:1;fill-rule:evenodd;stroke:none"
         d="m 6277.32,2866.55 h 23.71 c 3.99,0 7.25,-3.28 7.25,-7.26 v -15.82 c 0,-3.99 -3.26,-7.25 -7.25,-7.25 h -23.71 c -3.99,0 -7.25,3.26 -7.25,7.25 v 15.82 c 0,3.98 3.26,7.26 7.25,7.26" /><path
         id="path304"
         style="fill:#989fa4;fill-opacity:1;fill-rule:evenodd;stroke:none"
         d="m 6330,2866.55 h 23.71 c 3.99,0 7.26,-3.28 7.26,-7.26 v -15.82 c 0,-3.99 -3.27,-7.25 -7.26,-7.25 H 6330 c -3.97,0 -7.25,3.26 -7.25,7.25 v 15.82 c 0,3.98 3.28,7.26 7.25,7.26" /><path
         id="path306"
         style="fill:#989fa4;fill-opacity:1;fill-rule:evenodd;stroke:none"
         d="m 6164.64,2811.87 c 21.05,0 38.22,17.16 38.22,38.2 0,21.04 -17.17,38.21 -38.22,38.21 -21.04,0 -38.19,-17.17 -38.19,-38.21 0,-21.04 17.15,-38.2 38.19,-38.2" /><path
         id="path308"
         style="fill:#beeaf5;fill-opacity:1;fill-rule:evenodd;stroke:none"
         d="m 5692.69,3186.03 h -36.65 l -31.63,-31.61 v -200.31 l 31.63,-31.6 h 36.65 v 263.52" /><path
         id="path310"
         style="fill:#dbf2f9;fill-opacity:1;fill-rule:evenodd;stroke:none"
         d="m 6279.01,2624.64 h -453.27 c -8.28,0 -15.84,-3.4 -21.32,-8.89 -5.47,-5.47 -8.87,-13.01 -8.87,-21.31 v -84.34 c 0,-8.31 3.4,-15.85 8.87,-21.33 5.48,-5.47 13.04,-8.88 21.32,-8.88 h 453.27 c 8.3,0 15.85,3.41 21.33,8.88 5.46,5.48 8.88,13.02 8.88,21.33 v 84.34 c 0,8.3 -3.42,15.84 -8.88,21.31 -5.48,5.49 -13.03,8.89 -21.33,8.89 z m -453.27,23.9 h 453.27 c 14.89,0 28.44,-6.1 38.23,-15.89 9.78,-9.78 15.88,-23.32 15.88,-38.21 v -84.34 c 0,-14.9 -6.1,-28.43 -15.88,-38.22 -9.79,-9.79 -23.34,-15.89 -38.23,-15.89 h -453.27 c -14.89,0 -28.42,6.1 -38.21,15.89 -9.79,9.79 -15.88,23.32 -15.88,38.22 v 84.34 c 0,14.89 6.09,28.43 15.88,38.21 9.79,9.79 23.32,15.89 38.21,15.89 v 0" /><path
         id="path312"
         style="fill:#bedbe8;fill-opacity:1;fill-rule:evenodd;stroke:none"
         d="M 6020.76,2601.9 H 6084 v 22.75 h -63.24 v -22.75" /><path
         id="path314"
         style="fill:#bedbe8;fill-opacity:1;fill-rule:evenodd;stroke:none"
         d="M 6020.76,2433.26 H 6084 v 22.75 h -63.24 v -22.75" /><path
         id="path316"
         style="fill:#bedbe8;fill-opacity:1;fill-rule:evenodd;stroke:none"
         d="m 5583.84,3112.11 h 29.32 v -101.45 h -58.64 v 72.14 c 0,16.12 13.2,29.31 29.32,29.31" /><path
         id="path318"
         style="fill:#bedbe8;fill-opacity:1;fill-rule:evenodd;stroke:none"
         d="m 5566.48,3046.72 h 11.96 v -620.71 c 0,-43.06 17.64,-82.24 46.03,-110.65 28.39,-28.38 67.56,-46.02 110.64,-46.02 v -23.9 c -49.67,0 -94.82,20.31 -127.54,53.02 -32.73,32.73 -53.05,77.88 -53.05,127.55 v 620.71 h 11.96" /><path
         id="path320"
         style="fill:#bedbe8;fill-opacity:1;fill-rule:evenodd;stroke:none"
         d="m 5903.74,756.969 h -11.96 V 2088.77 c 0,43.07 -17.64,82.25 -46.03,110.64 -28.39,28.39 -67.58,46.03 -110.64,46.03 v 23.9 c 49.68,0 94.82,-20.32 127.54,-53.03 32.72,-32.72 53.03,-77.88 53.03,-127.54 V 756.969 h -11.94" /><path
         id="path322"
         style="fill:#4186a6;fill-opacity:1;fill-rule:evenodd;stroke:none"
         d="m 5762.51,1030.42 h 214.85 V 756.969 h -214.85 c -36.19,0 -65.79,29.59 -65.79,65.769 v 141.891 c 0,36.201 29.6,65.791 65.79,65.791" /><path
         id="path324"
         style="fill:#dbf2f9;fill-opacity:1;fill-rule:evenodd;stroke:none"
         d="m 5932.58,975.07 h 93.45 c 14.49,0 26.34,-11.859 26.34,-26.351 v -1.137 c 0,-14.512 -11.85,-26.371 -26.34,-26.371 h -93.45 c -14.5,0 -26.37,11.859 -26.37,26.371 v 1.137 c 0,14.492 11.87,26.351 26.37,26.351" /><path
         id="path326"
         style="fill:#dbf2f9;fill-opacity:1;fill-rule:evenodd;stroke:none"
         d="m 5932.58,841.988 h 93.45 c 14.49,0 26.34,-11.859 26.34,-26.347 v -1.153 c 0,-14.5 -11.85,-26.359 -26.34,-26.359 h -93.45 c -14.5,0 -26.37,11.859 -26.37,26.359 v 1.153 c 0,14.488 11.87,26.347 26.37,26.347" /><path
         id="path328"
         style="fill:#306682;fill-opacity:1;fill-rule:evenodd;stroke:none"
         d="m 5737.57,967.172 h 102.78 v 19.758 h -102.78 v -19.758" /><path
         id="path330"
         style="fill:#306682;fill-opacity:1;fill-rule:evenodd;stroke:none"
         d="m 5737.57,934.219 h 102.78 v 19.769 h -102.78 v -19.769" /><path
         id="path332"
         style="fill:#306682;fill-opacity:1;fill-rule:evenodd;stroke:none"
         d="m 5737.57,901.281 h 102.78 v 19.75 h -102.78 v -19.75" /><path
         id="path334"
         style="fill:#c4dcec;fill-opacity:1;fill-rule:evenodd;stroke:none"
         d="m 2762.77,306.961 h 2206.38 c 84.42,0 153.48,-69.063 153.48,-153.492 v 0 C 5122.63,69.0508 5053.57,0 4969.15,0 H 2762.77 C 2678.36,0 2609.3,69.0508 2609.3,153.469 v 0 c 0,84.429 69.06,153.492 153.47,153.492" /><path
         id="path336"
         style="fill:#e9e8e7;fill-opacity:1;fill-rule:evenodd;stroke:none"
         d="m 5804.75,3155.47 h 179.26 v 81.49 h -179.26 v -81.49" /><path
         id="path338"
         style="fill:#e9e8e7;fill-opacity:1;fill-rule:evenodd;stroke:none"
         d="m 5804.75,3109.3 h 179.26 v 21.73 h -179.26 v -21.73" /><path
         id="path340"
         style="fill:#e9e8e7;fill-opacity:1;fill-rule:evenodd;stroke:none"
         d="m 6098.09,3041.39 h 179.26 v 195.57 h -179.26 v -195.57" /><path
         id="path342"
         style="fill:#beeaf5;fill-opacity:1;fill-rule:evenodd;stroke:none"
         d="m 1037.6,3927.11 h 1304.33 v -89 l -88.98,-88.99 H 1126.58 l -88.98,88.99 v 89" /><path
         id="path344"
         style="fill:#578fa3;fill-opacity:1;fill-rule:evenodd;stroke:none"
         d="M 632.207,3991.37 H 4433.92 c 40.79,0 74.16,-33.35 74.16,-74.14 v 0 c 0,-40.79 -33.37,-74.17 -74.16,-74.17 H 632.207 v 148.31" /><path
         id="path346"
         style="fill:#e4f5f9;fill-opacity:1;fill-rule:evenodd;stroke:none"
         d="m 483.879,4114.94 h 0.012 c 97.886,0 177.964,-80.08 177.964,-177.96 V 2888.89 c 0,-97.88 -80.078,-177.96 -177.964,-177.96 h -0.012 c -97.887,0 -177.965,80.08 -177.965,177.96 v 1048.09 c 0,97.88 80.078,177.96 177.965,177.96" /><path
         id="path348"
         style="fill:#cadfe7;fill-opacity:1;fill-rule:evenodd;stroke:none"
         d="m 483.891,3828.21 c 54.461,0 98.879,44.42 98.879,98.87 0,54.47 -44.418,98.87 -98.879,98.87 -54.457,0 -98.891,-44.4 -98.891,-98.87 0,-54.45 44.434,-98.87 98.891,-98.87" /><path
         id="path350"
         style="fill:#e4f5f9;fill-opacity:1;fill-rule:evenodd;stroke:none"
         d="m 483.891,2799.91 c 54.461,0 98.879,44.41 98.879,98.87 0,54.46 -44.418,98.89 -98.879,98.89 -54.457,0 -98.891,-44.43 -98.891,-98.89 0,-54.46 44.434,-98.87 98.891,-98.87" /><path
         id="path352"
         style="fill:#adbdd0;fill-opacity:1;fill-rule:evenodd;stroke:none"
         d="m 464.328,2137.59 c 23.145,0 42.024,18.88 42.024,42.03 0,23.14 -18.879,42.02 -42.024,42.02 -23.144,0 -42.027,-18.88 -42.027,-42.02 0,-23.15 18.883,-42.03 42.027,-42.03" /><path
         id="path354"
         style="fill:#beeaf5;fill-opacity:1;fill-rule:evenodd;stroke:none"
         d="m 218.625,3586.07 h 61.805 v -435.05 h -61.805 c -33.984,0 -61.805,27.8 -61.805,61.8 v 311.45 c 0,34 27.821,61.8 61.805,61.8" /><path
         id="path356"
         style="fill:#578fa3;fill-opacity:1;fill-rule:evenodd;stroke:none"
         d="m 156.184,3037.33 h 87.738 v 46.96 h -87.738 v -46.96" /><path
         id="path358"
         style="fill:#578fa3;fill-opacity:1;fill-rule:evenodd;stroke:none"
         d="m 156.184,2980.48 h 87.738 v 46.97 h -87.738 v -46.97" /><path
         id="path360"
         style="fill:#578fa3;fill-opacity:1;fill-rule:evenodd;stroke:none"
         d="m 156.184,2923.61 h 87.738 v 46.98 h -87.738 v -46.98" /><path
         id="path362"
         style="fill:#578fa3;fill-opacity:1;fill-rule:evenodd;stroke:none"
         d="m 156.184,2866.77 h 87.738 v 46.97 h -87.738 v -46.97" /><path
         id="path364"
         style="fill:#e4f5f9;fill-opacity:1;fill-rule:evenodd;stroke:none"
         d="M 904.496,3843.06 C 901.855,3711.31 794.242,3605.32 661.855,3605.32 v 237.74 h 242.641" /><path
         id="path366"
         style="fill:#cadfe7;fill-opacity:1;fill-rule:evenodd;stroke:none"
         d="m 716.809,3611.56 c -17.657,-4.08 -36.051,-6.24 -54.954,-6.24 v 237.74 h 54.954 v -231.5" /><path
         id="path368"
         style="fill:#f8a378;fill-opacity:1;fill-rule:evenodd;stroke:none"
         d="m 5678.62,2354.91 c 55.38,0 100.56,45.18 100.56,100.56 0,55.38 -45.18,100.57 -100.56,100.57 -55.39,0 -100.55,-45.19 -100.55,-100.57 0,-55.38 45.16,-100.56 100.55,-100.56" /><path
         id="path370"
         style="fill:#66c994;fill-opacity:1;fill-rule:evenodd;stroke:none"
         d="m 6994.61,322.281 h -422.59 c -37.74,0 -68.63,-30.883 -68.63,-68.633 V 185.02 h 491.22 v 137.261" /><path
         id="path372"
         style="fill:#32ab69;fill-opacity:1;fill-rule:evenodd;stroke:none"
         d="m 6801.19,322.281 h -229.17 c -37.74,0 -68.62,-30.883 -68.62,-68.633 V 185.02 h 297.79 v 137.261" /><path
         id="path374"
         style="fill:#81d3a9;fill-opacity:1;fill-rule:evenodd;stroke:none"
         d="m 6402.79,322.281 h 193.4 v 996.649 h -193.4 V 322.281" /><path
         id="path376"
         style="fill:#66c994;fill-opacity:1;fill-rule:evenodd;stroke:none"
         d="m 6518.84,322.281 h 77.35 v 996.649 h -77.35 V 322.281" /><path
         id="path378"
         style="fill:#81d3a9;fill-opacity:1;fill-rule:evenodd;stroke:none"
         d="m 6801.19,322.281 h 193.42 V 1318.93 H 6801.19 V 322.281" /><path
         id="path380"
         style="fill:#66c994;fill-opacity:1;fill-rule:evenodd;stroke:none"
         d="m 6917.25,322.281 h 77.36 v 996.649 h -77.36 V 322.281" /><path
         id="path382"
         style="fill:#272523;fill-opacity:1;fill-rule:evenodd;stroke:none"
         d="m 6428.74,3272.74 h -46.36 c -7.43,0 -14.19,-3.05 -19.07,-7.94 -4.88,-4.89 -7.93,-11.65 -7.93,-19.06 0,-7.43 3.05,-14.19 7.93,-19.08 4.88,-4.89 11.64,-7.94 19.07,-7.94 h 46.36 z m -46.36,17.54 h 63.9 v -89.1 h -63.9 c -12.26,0 -23.4,5.02 -31.46,13.07 -8.08,8.07 -13.1,19.22 -13.1,31.49 0,12.25 5.02,23.4 13.1,31.46 8.06,8.06 19.2,13.08 31.46,13.08 v 0" /><path
         id="path384"
         style="fill:#81d3a9;fill-opacity:1;fill-rule:evenodd;stroke:none"
         d="m 6527.74,2912.55 h 321.06 c 166.49,0 302.72,-136.22 302.72,-302.72 V 1048.17 h -926.49 v 1561.66 c 0,166.52 136.21,302.72 302.71,302.72" /><path
         id="path386"
         style="fill:#5bc592;fill-opacity:1;fill-rule:evenodd;stroke:none"
         d="m 6790.76,2912.55 h 58.04 c 166.49,0 302.72,-136.22 302.72,-302.72 V 1048.17 h -663.46 v 1561.66 c 0,166.52 136.21,302.72 302.7,302.72" /><path
         id="path388"
         style="fill:#f8a378;fill-opacity:1;fill-rule:evenodd;stroke:none"
         d="m 6410.42,3442.45 h 355.85 v -529.9 h -177.93 c -97.86,0 -177.92,80.05 -177.92,177.92 v 351.98" /><path
         id="path390"
         style="fill:#e56e4d;fill-opacity:1;fill-rule:evenodd;stroke:none"
         d="m 6677.31,2912.55 h 174.06 v 518.3 h -174.06 v -518.3" /><path
         id="path392"
         style="fill:#5bc592;fill-opacity:1;fill-rule:evenodd;stroke:none"
         d="m 6522.58,3566.22 h 216.62 c 61.7,0 112.17,-50.47 112.17,-112.15 v -112.19 h -440.95 v 112.19 c 0,61.68 50.47,112.15 112.16,112.15" /><path
         id="path394"
         style="fill:#81d3a9;fill-opacity:1;fill-rule:evenodd;stroke:none"
         d="m 6522.58,3566.24 h 42.57 c 61.68,0 112.16,-50.5 112.16,-112.18 v -112.18 h -266.89 v 112.18 c 0,61.68 50.47,112.18 112.16,112.18" /><path
         id="path396"
         style="fill:#6b2b23;fill-opacity:1;fill-rule:evenodd;stroke:none"
         d="m 6510.98,3341.88 h 340.39 V 3171.7 h -255.29 c -46.81,0 -85.1,38.28 -85.1,85.08 v 85.1" /><path
         id="path398"
         style="fill:#272523;fill-opacity:1;fill-rule:evenodd;stroke:none"
         d="m 6346.59,3245.74 h 157.64 v 14.49 h -157.64 v -14.49" /><path
         id="path400"
         style="fill:#e56e4d;fill-opacity:1;fill-rule:evenodd;stroke:none"
         d="m 6475.24,3244.22 h 28.99 v -94.76 h -28.99 c -15.93,0 -28.96,13.04 -28.96,28.97 v 36.82 c 0,15.94 13.03,28.97 28.96,28.97" /><path
         id="path402"
         style="fill:#5bc592;fill-opacity:1;fill-rule:evenodd;stroke:none"
         d="m 5761.82,2200.41 v -29.42 c 0,-73.34 30.08,-140.08 78.47,-188.47 48.42,-48.43 115.14,-78.48 188.49,-78.48 73.35,0 140.09,30.06 188.48,78.48 48.41,48.41 78.47,115.13 78.47,188.47 v 369.9 30.76 50.74 c 0,33.51 27.42,60.91 60.93,60.91 v 0 c 33.53,0 60.93,-27.4 60.93,-60.91 v -81.5 h -0.02 v -369.9 c 0,-106.98 -43.72,-204.2 -114.15,-274.64 -70.42,-70.42 -167.65,-114.16 -274.64,-114.16 -106.99,0 -204.2,43.74 -274.63,114.16 -70.42,70.42 -114.17,167.66 -114.17,274.64 v 151.29 h 60.92 60.92 v -121.87" /><path
         id="path404"
         style="fill:#81d3a9;fill-opacity:1;fill-rule:evenodd;stroke:none"
         d="m 6652.29,1913.98 h 499.23 v -143.11 h -499.23 c -39.36,0 -71.56,32.18 -71.56,71.54 v 0.03 c 0,39.35 32.2,71.54 71.56,71.54" /><path
         id="path406"
         style="fill:#66c994;fill-opacity:1;fill-rule:evenodd;stroke:none"
         d="m 6689.02,1819.24 c 12.8,0 23.23,10.44 23.23,23.21 0,12.78 -10.43,23.21 -23.23,23.21 -12.78,0 -23.2,-10.43 -23.2,-23.21 0,-12.77 10.42,-23.21 23.2,-23.21" /><path
         id="path408"
         style="fill:#66c994;fill-opacity:1;fill-rule:evenodd;stroke:none"
         d="m 7075.84,1819.24 c 12.77,0 23.21,10.44 23.21,23.21 0,12.78 -10.44,23.21 -23.21,23.21 -12.77,0 -23.21,-10.43 -23.21,-23.21 0,-12.77 10.44,-23.21 23.21,-23.21" /><path
         id="path410"
         style="fill:#66c994;fill-opacity:1;fill-rule:evenodd;stroke:none"
         d="m 6596.19,322.281 h -422.58 c -37.74,0 -68.62,-30.883 -68.62,-68.633 V 185.02 h 491.2 v 137.261" /><path
         id="path412"
         style="fill:#4bbf79;fill-opacity:1;fill-rule:evenodd;stroke:none"
         d="m 6402.79,322.281 h -229.18 c -37.74,0 -68.61,-30.883 -68.61,-68.633 V 185.02 h 297.79 v 137.261" /><path
         id="path414"
         style="fill:#4bbf79;fill-opacity:1;fill-rule:evenodd;stroke:none"
         d="m 6105,185.02 h 491.19 v 68.628 H 6105 V 185.02" /><path
         id="path416"
         style="fill:#32ab69;fill-opacity:1;fill-rule:evenodd;stroke:none"
         d="m 6596.19,185.02 h 398.42 v 68.628 H 6596.19 V 185.02" /><path
         id="path418"
         style="fill:#81d3a9;fill-opacity:1;fill-rule:evenodd;stroke:none"
         d="m 6782.87,3371.54 c -6.47,6.48 -15.46,10.51 -25.36,10.51 -9.9,0 -18.89,-4.03 -25.36,-10.51 -6.49,-6.48 -10.51,-15.46 -10.51,-25.36 0,-9.91 4.02,-18.89 10.51,-25.37 6.47,-6.49 15.46,-10.52 25.36,-10.52 9.9,0 18.89,4.03 25.36,10.52 6.49,6.48 10.51,15.46 10.51,25.37 0,9.9 -4.02,18.88 -10.51,25.36 z m -25.36,28.05 c 14.76,0 28.11,-6 37.76,-15.65 9.67,-9.65 15.66,-23.01 15.66,-37.76 0,-14.75 -5.99,-28.12 -15.66,-37.77 -9.65,-9.66 -23,-15.65 -37.76,-15.65 -14.75,0 -28.11,5.99 -37.77,15.65 -9.66,9.65 -15.65,23.02 -15.65,37.77 0,14.75 5.99,28.11 15.65,37.76 9.66,9.65 23.02,15.65 37.77,15.65 v 0" /><path
         id="path420"
         style="fill:#81d3a9;fill-opacity:1;fill-rule:evenodd;stroke:none"
         d="m 6872.16,3371.54 c -6.48,6.48 -15.46,10.51 -25.36,10.51 -9.9,0 -18.88,-4.03 -25.36,-10.51 -6.5,-6.48 -10.51,-15.46 -10.51,-25.36 0,-9.91 4.01,-18.89 10.51,-25.37 6.48,-6.49 15.46,-10.52 25.36,-10.52 9.9,0 18.88,4.03 25.36,10.52 6.48,6.48 10.52,15.46 10.52,25.37 0,9.9 -4.04,18.88 -10.52,25.36 z m -25.36,28.05 c 14.75,0 28.11,-6 37.77,-15.65 9.65,-9.65 15.64,-23.01 15.64,-37.76 0,-14.75 -5.99,-28.12 -15.64,-37.77 -9.66,-9.66 -23.02,-15.65 -37.77,-15.65 -14.74,0 -28.11,5.99 -37.77,15.65 -9.66,9.65 -15.65,23.02 -15.65,37.77 0,14.75 5.99,28.11 15.65,37.76 9.66,9.65 23.03,15.65 37.77,15.65 v 0" /><path
         id="path422"
         style="fill:#81d3a9;fill-opacity:1;fill-rule:evenodd;stroke:none"
         d="m 6783.01,3239.4 h 15.37 v 78.58 h -15.37 v -78.58" /><path
         id="path424"
         style="fill:#81d3a9;fill-opacity:1;fill-rule:evenodd;stroke:none"
         d="m 6805.49,3217.64 h 15.37 v 102.27 h -15.37 v -102.27" /><path
         id="path426"
         style="fill:#f8a378;fill-opacity:1;fill-rule:evenodd;stroke:none"
         d="m 5649.81,2322.28 h 100.57 v 189.92 h -100.57 v -189.92" /><path
         id="path428"
         style="fill:#f8a378;fill-opacity:1;fill-rule:evenodd;stroke:none"
         d="m 5750.23,2437.29 v 0 c -15.63,0 -28.42,12.79 -28.42,28.43 v 156.89 c 0,15.63 12.79,28.43 28.42,28.43 v 0 c 15.65,0 28.43,-12.8 28.43,-28.43 v -156.89 c 0,-15.64 -12.78,-28.43 -28.43,-28.43" /><path
         id="path430"
         style="fill:#4d869b;fill-opacity:1;fill-rule:evenodd;stroke:none"
         d="m 1750.57,3098.12 h 15.59 c 28.39,0 51.61,-23.22 51.61,-51.61 v -386.13 c 0,-28.4 -23.22,-51.62 -51.61,-51.62 h -15.59 c -28.39,0 -51.61,23.22 -51.61,51.62 v 386.13 c 0,28.39 23.22,51.61 51.61,51.61" /><path
         id="path432"
         style="fill:#f9e328;fill-opacity:1;fill-rule:evenodd;stroke:none"
         d="m 1732.75,3054.88 h 50.05 c 4.62,0 8.37,-3.75 8.37,-8.37 v -24.55 c 0,-4.62 -3.75,-8.38 -8.37,-8.38 h -50.05 c -4.62,0 -8.38,3.76 -8.38,8.38 v 24.55 c 0,4.62 3.76,8.37 8.38,8.37" /><path
         id="path434"
         style="fill:#f9e328;fill-opacity:1;fill-rule:evenodd;stroke:none"
         d="m 1732.75,2976.86 h 50.05 c 4.62,0 8.37,-3.76 8.37,-8.38 v -24.55 c 0,-4.62 -3.75,-8.38 -8.37,-8.38 h -50.05 c -4.62,0 -8.38,3.76 -8.38,8.38 v 24.55 c 0,4.62 3.76,8.38 8.38,8.38" /><path
         id="path436"
         style="fill:#f9e328;fill-opacity:1;fill-rule:evenodd;stroke:none"
         d="m 1732.75,2898.85 h 50.05 c 4.62,0 8.37,-3.76 8.37,-8.38 v -24.55 c 0,-4.62 -3.75,-8.38 -8.37,-8.38 h -50.05 c -4.62,0 -8.38,3.76 -8.38,8.38 v 24.55 c 0,4.62 3.76,8.38 8.38,8.38" /><path
         id="path438"
         style="fill:#4dbd38;fill-opacity:1;fill-rule:evenodd;stroke:none"
         d="m 1732.75,2767.81 h 50.05 c 4.62,0 8.37,-3.76 8.37,-8.38 v -24.55 c 0,-4.62 -3.75,-8.38 -8.37,-8.38 h -50.05 c -4.62,0 -8.38,3.76 -8.38,8.38 v 24.55 c 0,4.62 3.76,8.38 8.38,8.38" /><path
         id="path440"
         style="fill:#f9e328;fill-opacity:1;fill-rule:evenodd;stroke:none"
         d="m 1732.75,2695.13 h 50.05 c 4.62,0 8.37,-3.76 8.37,-8.37 v -24.56 c 0,-4.62 -3.75,-8.37 -8.37,-8.37 h -50.05 c -4.62,0 -8.38,3.75 -8.38,8.37 v 24.56 c 0,4.61 3.76,8.37 8.38,8.37" /><path
         id="path442"
         style="fill:#e4f5f9;fill-opacity:1;fill-rule:evenodd;stroke:none"
         d="m 4068.17,1589.87 v -0.04 c 0,-13.69 -11.2,-24.9 -24.9,-24.9 h -838.08 c -13.71,0 -24.91,11.21 -24.91,24.9 v 0.04 c 0,13.7 11.2,24.9 24.91,24.9 h 838.08 c 13.7,0 24.9,-11.2 24.9,-24.9" /><path
         id="path444"
         style="fill:#ffffff;fill-opacity:1;fill-rule:evenodd;stroke:none"
         d="m 4240.31,1589.87 v -0.04 c 0,-13.69 -11.2,-24.9 -24.9,-24.9 h -67.98 c -13.7,0 -24.9,11.21 -24.9,24.9 v 0.04 c 0,13.7 11.2,24.9 24.9,24.9 h 67.98 c 13.7,0 24.9,-11.2 24.9,-24.9" /><path
         id="path446"
         style="fill:#b2dddf;fill-opacity:1;fill-rule:evenodd;stroke:none"
         d="m 4273.23,3907.03 v 0 c 0,-7.17 -5.85,-13.02 -13.02,-13.02 h -438.12 c -7.17,0 -13.02,5.85 -13.02,13.02 v 0 c 0,7.18 5.85,13.02 13.02,13.02 h 438.12 c 7.17,0 13.02,-5.84 13.02,-13.02" /><path
         id="path448"
         style="fill:#b2dddf;fill-opacity:1;fill-rule:evenodd;stroke:none"
         d="m 4363.23,3907.03 v 0 c 0,-7.17 -5.85,-13.02 -13.02,-13.02 h -35.54 c -7.17,0 -13.02,5.85 -13.02,13.02 v 0 c 0,7.18 5.85,13.02 13.02,13.02 h 35.54 c 7.17,0 13.02,-5.84 13.02,-13.02" /></g></g></svg>