<?xml version="1.0" encoding="UTF-8"?>
<svg width="80px" height="80px" viewBox="0 0 80 80" version="1.1" xmlns="http://www.w3.org/2000/svg" xmlns:xlink="http://www.w3.org/1999/xlink">
    <!-- Generator: Sketch 56.2 (81672) - https://sketch.com -->
    <title>Referral-illustration</title>
    <desc>Created with Sketch.</desc>
    <g id="Referral-illustration" stroke="none" stroke-width="1" fill="none" fill-rule="evenodd">
        <rect fill="#FFFFFF" x="0" y="0" width="80" height="80"></rect>
        <g id="Img" transform="translate(21.000000, 14.000000)">
            <g id="humaaan-8">
                <g id="Head/Front/Curly" transform="translate(10.000000, 0.000000)">
                    <g id="Head" stroke-width="1" transform="translate(6.742099, 3.592196)" fill="#997659">
                        <path d="M1.0315754,3.99662218 C0.456260881,3.36987082 0.0668759817,2.60177839 0.131942427,1.74110877 C0.319416974,-0.738720063 4.03883349,-0.193189315 4.762337,1.05841533 C5.48584052,2.31001997 5.39986949,5.48481895 4.46480566,5.70851561 C4.0919036,5.7977255 3.29751145,5.57919707 2.48900547,5.12691034 L2.99648861,8.45904165 L0,8.45904165 L1.0315754,3.99662218 Z"></path>
                    </g>
                    <path d="M12.8319256,2.91552317 C12.7698745,2.71309265 12.6029729,2.53976993 12.3780449,2.48834995 C12.3235003,2.47587735 12.2671695,2.47083961 12.2110445,2.47293993 C12.1909123,2.4736857 12.1852661,2.4790735 12.1758584,2.46600733 C12.1688788,2.45631995 12.1687224,2.43265321 12.1658499,2.42126882 C12.1569114,2.38586764 12.1457341,2.35090784 12.1319395,2.31685361 C12.0848765,2.20070395 12.0057879,2.09790964 11.9104438,2.01131677 C11.7321097,1.84931756 11.4911484,1.73751315 11.2408042,1.71728608 C11.1037881,1.70622131 10.967768,1.72688214 10.8382336,1.76824947 C10.7711701,1.78966369 10.7061395,1.81632872 10.6428044,1.84580941 C10.623734,1.85468253 10.561864,1.89814258 10.5427276,1.89532692 C10.5215913,1.89222209 10.4791128,1.84347317 10.4619271,1.83123648 C10.2495016,1.67997482 9.98718171,1.62050358 9.72259016,1.62228196 C9.42394008,1.6243694 9.13636026,1.63821939 8.88728354,1.80718925 C8.83455783,1.84296331 8.78434248,1.88213138 8.73653048,1.92336934 C8.71135284,1.94508034 8.68696535,1.9676056 8.66370546,1.99106687 C8.64967216,2.00522125 8.63600923,2.01969525 8.62285661,2.03455736 C8.60053502,2.05978412 8.60411536,2.06807128 8.57287172,2.05046962 C8.45300015,1.98287864 8.31409103,1.95126718 8.17417777,1.9672251 C8.09109733,1.97670702 8.01026386,1.99985629 7.9335128,2.03032626 C7.90738041,2.04069853 7.84689317,2.08207347 7.81904056,2.08247679 C7.79141018,2.08287251 7.7317707,2.04451869 7.70330902,2.03477043 C7.54958469,1.98210243 7.38389295,1.96911997 7.22231655,1.99345637 C7.05564536,2.01856899 6.89192075,2.08028515 6.75070704,2.16556912 C6.6827875,2.206594 6.62352663,2.25204784 6.57592863,2.31304867 C6.55537664,2.33938647 6.5368,2.36724626 6.51350719,2.39166637 C6.49986896,2.40596535 6.47286411,2.4206372 6.46554704,2.43873351 C6.46992576,2.42789703 6.28327049,2.36111269 6.26565684,2.35684355 C6.1718189,2.3340976 6.07626898,2.33870919 5.98438172,2.36677444 C5.81159513,2.41954899 5.66299851,2.5378979 5.54087174,2.6592375 C5.47814575,2.72156245 5.42325538,2.79045473 5.37666152,2.86385206 C5.35433169,2.89900972 5.33391139,2.93517189 5.31522775,2.97210265 C5.30617401,2.98999349 5.30017385,3.01237416 5.2882476,3.02849189 C5.27287269,3.04925927 5.2625432,3.04965498 5.23469882,3.05871074 C5.09328757,3.10468966 4.96437872,3.18251594 4.86621145,3.28767693 C4.76691658,3.39407071 4.70248684,3.52509008 4.67547376,3.66306489 C4.67388524,3.67119224 4.67293872,3.70487359 4.66781101,3.7092721 C4.66078201,3.71532957 4.63234502,3.71265089 4.62158753,3.71382281 C4.58433549,3.71787888 4.54734683,3.72391352 4.51085201,3.73193433 C4.44357447,3.74671273 4.37809121,3.76846178 4.31614714,3.79690752 C4.07467557,3.90779114 3.90199598,4.11567034 3.8174834,4.34958295 C3.7288061,4.59506258 3.73037816,4.87630105 3.83636457,5.11719954 C3.85348438,5.15610887 3.8738553,5.19387673 3.89778188,5.22960513 C3.91247363,5.25153682 3.9172145,5.25159009 3.90767515,5.27460237 C3.89704112,5.30020202 3.87761672,5.32507873 3.86499086,5.35009242 C3.82379633,5.43172365 3.79499719,5.51830129 3.7768074,5.60672814 C3.74696297,5.75178014 3.73217244,5.90421372 3.76161357,6.05036915 C3.77528473,6.11823409 3.7991043,6.18457706 3.83544274,6.24502237 C3.85396999,6.2758424 3.87564959,6.30507196 3.90012762,6.33210988 C3.91283578,6.34615012 3.92633409,6.35955873 3.9404497,6.37240421 C3.94852399,6.37974014 3.95910864,6.38616288 3.96597303,6.39435873 C3.98273068,6.41434228 3.98625341,6.39791255 3.9776112,6.42725626 C3.96552857,6.46828114 3.93813688,6.50875811 3.92136276,6.54867956 C3.90407834,6.5898186 3.88845652,6.63152076 3.87416807,6.67363386 C3.84522901,6.75891021 3.82075921,6.84573138 3.80545838,6.93404408 C3.77607487,7.1035999 3.7812355,7.28426615 3.86764937,7.43988067 C3.90459688,7.50644432 3.95760243,7.56483496 4.02189224,7.61025836 C4.05335812,7.63247922 4.08744135,7.6516333 4.1231954,7.66736293 C4.14156627,7.67545984 4.1650237,7.67892995 4.17340253,7.69542057 C4.18242335,7.7131516 4.16903204,7.74836253 4.16597846,7.76818628 C4.13940983,7.94064146 4.12608437,8.12171104 4.18132044,8.29071134 C4.23219424,8.44637151 4.34420552,8.58380602 4.48963333,8.6747974 C4.77175621,8.85130865 5.15204637,8.84135492 5.4484824,8.70004699 C5.52575198,8.66320754 5.59804201,8.61747214 5.66252936,8.56352567 C5.82673958,8.76868814 6.16464998,8.76219691 6.40464827,8.70373778 C6.70365226,8.6309112 6.94357647,8.43794737 7.08181068,8.18441648 C7.27082815,8.39797265 7.66751381,8.32868466 7.79858733,8.09700936 C7.83067051,8.04030811 7.84969983,7.97781575 7.85906634,7.91457761 C7.86399651,7.88132242 7.86085239,7.84777805 7.8645562,7.8147892 C7.86928061,7.77275221 7.89953657,7.73190235 7.91692799,7.69123513 C7.95079722,7.61209234 7.9718266,7.53033936 7.97273197,7.44497168 C7.97320112,7.40040059 7.96711865,7.35696337 7.96255063,7.31274995 C7.95844352,7.27295026 7.97033685,7.23586729 7.97709423,7.19658507 C7.90040902,7.20830429 7.80698262,7.18911217 7.73473375,7.16847416 C7.6638347,7.14822426 7.59742961,7.09488659 7.5473871,7.04617572 C7.43119464,6.93306241 7.36021329,6.78478382 7.31166877,6.63720534 C7.2051062,6.31329825 7.2487864,5.92468431 7.5998165,5.74691742 C7.76334358,5.66410667 8.25325003,5.66437829 8.44801803,5.70530619 C8.65280804,5.74834009 8.88497072,6.16772878 8.8963949,6.20714798 C8.90346505,6.23154526 8.8999094,6.26174128 8.9240582,6.277996 C8.9771296,6.31373962 9.06465461,6.25171146 9.10379971,6.22109689 C9.17134887,6.16826147 9.21953124,6.09796136 9.26126077,6.02670241 C9.35218505,5.87146078 9.42548745,5.70497935 9.47726663,5.53502782 C9.51718541,5.40400084 9.54270874,5.26888735 9.59488299,5.14120111 C9.6468021,5.01414649 9.72864794,4.90058419 9.85590242,4.82860991 C9.99433416,4.75031182 10.1530134,4.70907386 10.3049846,4.65986835 C10.4556224,4.61110421 10.6036593,4.5515036 10.7204279,4.44803201 C10.7460994,4.42527846 10.7710384,4.40110186 10.7917056,4.37431507 C10.8080188,4.3531672 10.8241427,4.31268262 10.8489993,4.299274 C10.8876424,4.27841531 10.944039,4.33265856 10.9774555,4.35235294 C11.1423159,4.44953116 11.2798588,4.58506319 11.3907918,4.73312109 C11.5011076,4.88037234 11.5916269,5.02206077 11.6651845,5.18648753 C11.7197456,5.30843592 11.7537976,5.46461356 11.849759,5.56455417 C11.8925997,5.60917853 12.2110445,5.63617505 12.3141914,5.59721579 C12.4173382,5.55825653 12.532938,5.457095 12.5675563,5.39369706 C12.6029976,5.32880758 12.6114669,5.25752579 12.5963225,5.18648753 C12.5874169,5.14469405 12.5692271,5.10565534 12.5592762,5.06460763 C12.5508974,5.03012725 12.5432922,4.99753411 12.5252094,4.96594549 C12.4909369,4.90608614 12.4323839,4.86305986 12.3617729,4.84507009 C12.4352564,4.78218962 12.4961469,4.70696592 12.5382797,4.6228767 C12.5820587,4.53551524 12.6191626,4.42927365 12.6296896,4.33338911 C12.6382495,4.25550956 12.6250393,4.17482196 12.5791039,4.10789303 C12.5309133,4.03768425 12.4455447,3.99188036 12.3716826,3.94808547 C12.4845087,3.86615747 12.581071,3.76652126 12.6604559,3.65620838 C12.8148387,3.44168576 12.910331,3.17127614 12.8319256,2.91552317 Z" id="hair" fill="#191847"></path>
                </g>
                <g id="Bottom/Sitting/Skinny-Jeans-1" transform="translate(0.000000, 22.000000)">
                    <g id="Objects/Seat/Cube-2" transform="translate(1.199496, 5.101393)" fill="#C5CFD6">
                        <path d="M12.7071701,0 L15.4079148,0 C19.5602949,-7.62779852e-16 22.9264641,3.36616917 22.9264641,7.51854929 C22.9264641,11.6709294 19.5602949,15.0370986 15.4079148,15.0370986 L12.7071701,15.0370986 C8.55478999,15.0370986 5.18862082,11.6709294 5.18862082,7.51854929 C5.18862082,3.36616917 8.55478999,1.65095827e-15 12.7071701,0 Z M12.690333,3.39547387 C10.4132214,3.39547387 8.56725763,5.24143761 8.56725763,7.51854929 C8.56725763,9.79566096 10.4132214,11.6416247 12.690333,11.6416247 L15.4247518,11.6416247 C17.7018635,11.6416247 19.5478273,9.79566096 19.5478273,7.51854929 C19.5478273,5.24143761 17.7018635,3.39547387 15.4247518,3.39547387 L12.690333,3.39547387 Z" id="Seat"></path>
                    </g>
                    <path d="M30.9414089,2.52107364 C31.9294103,1.92032896 33.5870395,2.69216528 33.5859019,3.55134852 C33.582496,6.12202473 31.2656771,18.2376125 31.1447129,19.0035028 C31.0237487,19.7693931 29.7279189,19.9716936 29.6524584,19.0060127 C29.5323882,17.4694514 29.3093125,12.150196 29.5325088,9.68810975 C29.6246389,8.67181958 29.723858,7.70393841 29.8215372,6.84045113 C28.6058132,9.06356385 26.7256424,12.2465102 24.1810246,16.3892901 L22.7996179,15.7502067 C23.8843937,12.1311238 24.7738935,9.57614749 25.4681174,8.08527791 C26.6567972,5.53254725 27.7713789,3.34647375 28.2404704,2.5764471 C28.9783504,1.36519647 30.2627479,1.78781733 30.9414089,2.52107364 Z" id="Skin" fill="#2F3676"></path>
                    <path d="M25.0711032,14.9623217 L25.6365255,2.65316213 C26.0710748,0.526098001 29.8251782,1.52927209 29.8282309,2.67011966 C29.8350844,5.26019682 28.329935,14.2013143 28.3319838,14.9729848 L25.0711032,14.9623217 Z" id="LegLower" fill="#1F28CF" transform="translate(27.449667, 8.190296) rotate(20.000000) translate(-27.449667, -8.190296) "></path>
                    <g id="Accessories/Shoe/Flat-Sneaker" transform="translate(25.849149, 16.154410) rotate(30.000000) translate(-25.849149, -16.154410) translate(22.190685, 13.725176)" fill="#E4E4E4">
                        <path d="M0.1140667,3.98605489 C0.1140667,3.98605489 0.1140667,3.98605489 0.1140667,3.98605489 C0.1140667,4.20994051 0.148333957,4.5366453 0.216868472,4.96616927 C0.455489,4.96616927 2.60001187,4.96616927 6.65043708,4.96616927 C6.81762272,4.36458084 6.72111348,4.0398026 6.36090934,3.99183456 C6.0007052,3.94386652 5.7014775,3.90055522 5.46322625,3.86190066 L2.96761989,2.6509578 C2.6637927,2.50353176 2.29797968,2.63031994 2.15055364,2.93414712 C2.14257005,2.95060033 2.1353286,2.96740342 2.12885114,2.98450571 L2.12885114,2.98450571 C1.79539631,3.15384676 1.52442965,3.23851728 1.31595115,3.23851728 C1.25485953,3.23851728 1.18537281,3.22883153 1.10749098,3.20946003 L1.10749228,3.20945481 C0.678587896,3.10277367 0.244410047,3.36398723 0.137728913,3.79289161 C0.122012843,3.85607702 0.1140667,3.92094429 0.1140667,3.98605489 Z" id="shoe"></path>
                    </g>
                    <g id="Accessories/Shoe/Flat-Sneaker" transform="translate(29.027815, 15.304178)" fill="#E4E4E4">
                        <path d="M0.1140667,3.98605489 C0.1140667,3.98605489 0.1140667,3.98605489 0.1140667,3.98605489 C0.1140667,4.20994051 0.148333957,4.5366453 0.216868472,4.96616927 C0.455489,4.96616927 2.60001187,4.96616927 6.65043708,4.96616927 C6.81762272,4.36458084 6.72111348,4.0398026 6.36090934,3.99183456 C6.0007052,3.94386652 5.7014775,3.90055522 5.46322625,3.86190066 L2.96761989,2.6509578 C2.6637927,2.50353176 2.29797968,2.63031994 2.15055364,2.93414712 C2.14257005,2.95060033 2.1353286,2.96740342 2.12885114,2.98450571 L2.12885114,2.98450571 C1.79539631,3.15384676 1.52442965,3.23851728 1.31595115,3.23851728 C1.25485953,3.23851728 1.18537281,3.22883153 1.10749098,3.20946003 L1.10749228,3.20945481 C0.678587896,3.10277367 0.244410047,3.36398723 0.137728913,3.79289161 C0.122012843,3.85607702 0.1140667,3.92094429 0.1140667,3.98605489 Z" id="shoe"></path>
                    </g>
                    <path d="M33.9182066,4.4252186 C33.9182066,7.65208901 32.404829,15.1791081 32.4038714,15.8896371 L29.1477643,15.8921697 C29.6243575,9.17588484 29.7933539,5.78156534 29.6547535,5.70921121 C29.4468528,5.60068001 21.1322296,6.54982752 18.6385388,6.54982752 C15.0426244,6.54982752 13.5550666,4.25363803 13.4343605,-4.40536496e-13 L20.5577332,-4.40536496e-13 C22.0081158,0.157155317 29.5734447,1.70231734 32.3830578,2.23348844 C33.5859013,2.46089189 33.9182066,3.53629887 33.9182066,4.4252186 Z" id="Leg-and-Butt" fill="#2B44FF"></path>
                </g>
                <g id="Body/Pointing-Forward" transform="translate(3.000000, 10.000000)">
                    <path d="M18.5890904,5.02410981 L22.6563575,2.78734468 C23.3327191,1.98086772 23.9991236,1.35452537 24.6555712,0.908317617 C24.8561604,0.824231331 25.2069402,0.773336304 24.8788945,1.35797383 C24.5508487,1.94261136 24.2319797,2.57237626 24.3991061,2.75249043 C24.5662325,2.9326046 24.9829771,2.68099305 25.1823564,2.98025427 C25.3152759,3.17976175 24.6033006,3.49492741 23.0464306,3.92575124 L20.0910654,6.64280676 L18.5890904,5.02410981 Z M24.9591855,6.91133014 L26.745762,5.92585306 C26.996444,4.96806577 27.2961038,4.4861706 27.6447413,4.48016754 C27.9125674,4.35503948 27.4461501,5.56529317 27.9538637,5.46034018 C28.4615774,5.3553872 29.7007613,4.42998043 29.9142788,4.61787297 C30.2301643,4.89584787 29.9485014,5.74939192 29.6166356,6.17398438 C28.9963788,6.96754715 28.482833,7.23892168 27.2135247,7.59428825 C26.5498647,7.78009224 25.832331,8.15252034 25.0609234,8.71157255 L24.9591855,6.91133014 Z" id="Skin" fill="#997659"></path>
                    <path d="M16.7403171,4.09055728 C18.1497604,4.29849112 20.0733682,4.2972719 22.2775483,3.33831659 L22.7849531,5.22344355 C21.1860141,6.38085037 19.0651466,7.20396259 17.3748643,6.8871697 C16.0428286,6.63751945 15.6163799,4.90412959 16.7403171,4.09055728 Z" id="Sleeve" fill="#8CAC54" transform="translate(19.439681, 5.146928) rotate(-9.000000) translate(-19.439681, -5.146928) "></path>
                    <path d="M18.5265434,7.38448747 C20.0389517,7.76321981 22.5751669,7.31658973 26.1351889,6.04459723 C27.0182215,7.87892832 27.4264253,9.18666571 27.3598004,9.96780939 C24.3058264,11.569632 21.6883069,12.2838031 19.5318205,12.3309494 C19.6003499,13.6157776 19.4446021,14.8383212 18.9213984,15.9553994 C17.8457802,18.2519226 11.5474384,16.125086 9.42974289,16.5436994 C8.10357969,12.2191474 10.6677564,10.4616669 10.6698195,7.69456648 C10.6720789,4.66429662 13.0953007,-1.42108547e-13 13.4518293,-1.42108547e-13 L16.7031732,-1.42108547e-13 C16.8825689,2.31425701 17.7855173,4.86476875 18.5265434,7.38448747 Z" id="Clothes" fill="#8CAC54"></path>
                </g>
            </g>
            <g id="Heart-uwu" transform="translate(32.000000, 9.000000) rotate(45.000000) translate(-32.000000, -9.000000) translate(29.000000, 6.000000)" fill="#D0021B">
                <path d="M2,2 L4,2 L4,6 L2,6 C0.8954305,6 1.3527075e-16,5.1045695 0,4 C-1.3527075e-16,2.8954305 0.8954305,2 2,2 Z" id="Rectangle"></path>
                <path d="M4,0 C5.1045695,-2.02906125e-16 6,0.8954305 6,2 L6,6 L2,6 L2,2 C2,0.8954305 2.8954305,2.02906125e-16 4,0 Z" id="Rectangle"></path>
            </g>
        </g>
    </g>
</svg>